G04 #@! TF.GenerationSoftware,KiCad,Pcbnew,(5.1.6)-1*
G04 #@! TF.CreationDate,2021-07-28T11:50:04+02:00*
G04 #@! TF.ProjectId,Panel Clean,50616e65-6c20-4436-9c65-616e2e6b6963,rev?*
G04 #@! TF.SameCoordinates,Original*
G04 #@! TF.FileFunction,Profile,NP*
%FSLAX46Y46*%
G04 Gerber Fmt 4.6, Leading zero omitted, Abs format (unit mm)*
G04 Created by KiCad (PCBNEW (5.1.6)-1) date 2021-07-28 11:50:04*
%MOMM*%
%LPD*%
G01*
G04 APERTURE LIST*
G04 #@! TA.AperFunction,Profile*
%ADD10C,0.200000*%
G04 #@! TD*
G04 #@! TA.AperFunction,Profile*
%ADD11C,0.050000*%
G04 #@! TD*
G04 APERTURE END LIST*
D10*
X243664396Y-27960800D02*
G75*
G02*
X242518396Y-28803800I-1145666J357000D01*
G01*
X237840405Y-26146801D02*
G75*
G02*
X238986403Y-25303801I1145665J-356999D01*
G01*
X242518396Y-25303800D02*
G75*
G02*
X243664396Y-26146800I334J-1200000D01*
G01*
X238986400Y-28803800D02*
X242518399Y-28803800D01*
X237840402Y-27960799D02*
G75*
G02*
X237840402Y-26146801I2911998J906999D01*
G01*
X238986405Y-28803801D02*
G75*
G02*
X237840403Y-27960801I-335J1200001D01*
G01*
X242518399Y-25303800D02*
X238986400Y-25303800D01*
X243664398Y-26146802D02*
G75*
G02*
X243664397Y-27960800I-2911998J-906998D01*
G01*
X243613596Y-150310000D02*
G75*
G02*
X242467596Y-151153000I-1145666J357000D01*
G01*
X238935600Y-151153000D02*
X242467599Y-151153000D01*
X238935605Y-151153001D02*
G75*
G02*
X237789603Y-150310001I-335J1200001D01*
G01*
X243613598Y-148496002D02*
G75*
G02*
X243613597Y-150310000I-2911998J-906998D01*
G01*
X237789605Y-148496001D02*
G75*
G02*
X238935603Y-147653001I1145665J-356999D01*
G01*
X242467599Y-147653000D02*
X238935600Y-147653000D01*
X242467596Y-147653000D02*
G75*
G02*
X243613596Y-148496000I334J-1200000D01*
G01*
X237789602Y-150309999D02*
G75*
G02*
X237789602Y-148496001I2911998J906999D01*
G01*
X190664396Y-27960800D02*
G75*
G02*
X189518396Y-28803800I-1145666J357000D01*
G01*
X184840405Y-26146801D02*
G75*
G02*
X185986403Y-25303801I1145665J-356999D01*
G01*
X189518396Y-25303800D02*
G75*
G02*
X190664396Y-26146800I334J-1200000D01*
G01*
X185986400Y-28803800D02*
X189518399Y-28803800D01*
X190664396Y-150360800D02*
G75*
G02*
X189518396Y-151203800I-1145666J357000D01*
G01*
X185986400Y-151203800D02*
X189518399Y-151203800D01*
X185986405Y-151203801D02*
G75*
G02*
X184840403Y-150360801I-335J1200001D01*
G01*
X184840402Y-27960799D02*
G75*
G02*
X184840402Y-26146801I2911998J906999D01*
G01*
X190664398Y-148546802D02*
G75*
G02*
X190664397Y-150360800I-2911998J-906998D01*
G01*
X184840405Y-148546801D02*
G75*
G02*
X185986403Y-147703801I1145665J-356999D01*
G01*
X189518399Y-147703800D02*
X185986400Y-147703800D01*
X185986405Y-28803801D02*
G75*
G02*
X184840403Y-27960801I-335J1200001D01*
G01*
X189518396Y-147703800D02*
G75*
G02*
X190664396Y-148546800I334J-1200000D01*
G01*
X189518399Y-25303800D02*
X185986400Y-25303800D01*
X190664398Y-26146802D02*
G75*
G02*
X190664397Y-27960800I-2911998J-906998D01*
G01*
X184840402Y-150360799D02*
G75*
G02*
X184840402Y-148546801I2911998J906999D01*
G01*
D11*
X178570000Y-23910000D02*
X249420000Y-23910000D01*
X178570000Y-152400000D02*
X178570000Y-23910000D01*
X178570000Y-152400000D02*
X249420000Y-152400000D01*
X249420000Y-152400000D02*
X249420000Y-23910000D01*
M02*
