M48
; DRILL file {KiCad (5.1.4)-1} date 15-11-2019 08:19:14
; FORMAT={3:3/ absolute / metric / suppress leading zeros}
; #@! TF.CreationDate,2019-11-15T08:19:14+01:00
; #@! TF.GenerationSoftware,Kicad,Pcbnew,(5.1.4)-1
FMAT,2
METRIC,TZ
T1C3.000
T2C3.200
T3C6.000
T4C6.500
%
G90
G05
T1
X240030Y-84990
X219710Y-54610
X223720Y-84990
X207010Y-84990
T2
X242000Y-26670
X242000Y-149860
X187000Y-149860
X187000Y-26670
T3
X224120Y-135890
X224170Y-124460
X207160Y-113030
X207160Y-124460
X190150Y-135890
X207160Y-53340
X190150Y-124460
X224170Y-113030
X190150Y-113030
X207160Y-135890
X240130Y-124460
X240130Y-113030
X221730Y-65740
X190150Y-82550
X190150Y-55880
X240130Y-135890
X207160Y-40640
T4
X190150Y-67310
X190150Y-97790
X224140Y-97790
X224490Y-40640
X190150Y-40640
X207110Y-97790
X240130Y-97790
T0
M30
