M48
; DRILL file {KiCad (5.1.6)-1} date 06/27/21 15:57:26
; FORMAT={-:-/ absolute / inch / decimal}
; #@! TF.CreationDate,2021-06-27T15:57:26+02:00
; #@! TF.GenerationSoftware,Kicad,Pcbnew,(5.1.6)-1
; #@! TF.FileFunction,NonPlated,1,2,NPTH
FMAT,2
INCH
T1C0.1181
T2C0.2362
T3C0.3307
%
G90
G05
T1
X8.15Y-3.3461
X9.45Y-3.3461
X8.65Y-2.15
X8.8079Y-3.3461
T2
X8.1559Y-2.1
X8.8256Y-4.9
X7.4862Y-3.25
X7.4862Y-4.45
X9.4539Y-5.35
X8.1559Y-1.6
X7.4862Y-5.35
X8.1559Y-4.45
X8.1559Y-5.35
X8.1559Y-4.9
X8.7295Y-2.5882
X9.4539Y-4.45
X9.4539Y-4.9
X8.8236Y-5.35
X8.8256Y-4.45
X7.4862Y-4.9
X7.4862Y-2.2
T3
X7.4862Y-3.85
X7.4862Y-1.6
X8.1539Y-3.85
X7.4862Y-2.65
X8.8382Y-1.6
X8.8244Y-3.85
X9.4539Y-3.85
T0
M30
