G04 #@! TF.GenerationSoftware,KiCad,Pcbnew,(5.1.6)-1*
G04 #@! TF.CreationDate,2021-08-06T14:07:03+02:00*
G04 #@! TF.ProjectId,Panel,50616e65-6c2e-46b6-9963-61645f706362,rev?*
G04 #@! TF.SameCoordinates,Original*
G04 #@! TF.FileFunction,Legend,Top*
G04 #@! TF.FilePolarity,Positive*
%FSLAX46Y46*%
G04 Gerber Fmt 4.6, Leading zero omitted, Abs format (unit mm)*
G04 Created by KiCad (PCBNEW (5.1.6)-1) date 2021-08-06 14:07:03*
%MOMM*%
%LPD*%
G01*
G04 APERTURE LIST*
G04 #@! TA.AperFunction,Profile*
%ADD10C,0.200000*%
G04 #@! TD*
%ADD11C,0.120000*%
%ADD12C,0.500000*%
%ADD13C,0.750000*%
%ADD14C,3.000000*%
%ADD15C,2.000000*%
%ADD16C,0.250000*%
G04 #@! TA.AperFunction,Profile*
%ADD17C,0.050000*%
G04 #@! TD*
%ADD18C,0.150000*%
G04 APERTURE END LIST*
D10*
X243664396Y-150386200D02*
G75*
G02*
X242518396Y-151229200I-1145666J357000D01*
G01*
X238986400Y-151229200D02*
X242518399Y-151229200D01*
X238986405Y-151229201D02*
G75*
G02*
X237840403Y-150386201I-335J1200001D01*
G01*
X190715196Y-28037000D02*
G75*
G02*
X189569196Y-28880000I-1145666J357000D01*
G01*
X242518399Y-147729200D02*
X238986400Y-147729200D01*
X242518396Y-147729200D02*
G75*
G02*
X243664396Y-148572200I334J-1200000D01*
G01*
X184891205Y-26223001D02*
G75*
G02*
X186037203Y-25380001I1145665J-356999D01*
G01*
X189569196Y-25380000D02*
G75*
G02*
X190715196Y-26223000I334J-1200000D01*
G01*
X186037200Y-28880000D02*
X189569199Y-28880000D01*
X190715196Y-150437000D02*
G75*
G02*
X189569196Y-151280000I-1145666J357000D01*
G01*
X186037200Y-151280000D02*
X189569199Y-151280000D01*
X186037205Y-151280001D02*
G75*
G02*
X184891203Y-150437001I-335J1200001D01*
G01*
X237840402Y-150386199D02*
G75*
G02*
X237840402Y-148572201I2911998J906999D01*
G01*
X184891202Y-28036999D02*
G75*
G02*
X184891202Y-26223001I2911998J906999D01*
G01*
X190715198Y-148623002D02*
G75*
G02*
X190715197Y-150437000I-2911998J-906998D01*
G01*
X184891205Y-148623001D02*
G75*
G02*
X186037203Y-147780001I1145665J-356999D01*
G01*
X189569199Y-147780000D02*
X186037200Y-147780000D01*
X186037205Y-28880001D02*
G75*
G02*
X184891203Y-28037001I-335J1200001D01*
G01*
X189569196Y-147780000D02*
G75*
G02*
X190715196Y-148623000I334J-1200000D01*
G01*
X189569199Y-25380000D02*
X186037200Y-25380000D01*
X243664398Y-148572202D02*
G75*
G02*
X243664397Y-150386200I-2911998J-906998D01*
G01*
X190715198Y-26223002D02*
G75*
G02*
X190715197Y-28037000I-2911998J-906998D01*
G01*
X237840405Y-148572201D02*
G75*
G02*
X238986403Y-147729201I1145665J-356999D01*
G01*
X184891202Y-150436999D02*
G75*
G02*
X184891202Y-148623001I2911998J906999D01*
G01*
X243715196Y-28037000D02*
G75*
G02*
X242569196Y-28880000I-1145666J357000D01*
G01*
X239037205Y-28880001D02*
G75*
G02*
X237891203Y-28037001I-335J1200001D01*
G01*
X242569199Y-25380000D02*
X239037200Y-25380000D01*
X242569196Y-25380000D02*
G75*
G02*
X243715196Y-26223000I334J-1200000D01*
G01*
X237891202Y-28036999D02*
G75*
G02*
X237891202Y-26223001I2911998J906999D01*
G01*
X239037200Y-28880000D02*
X242569199Y-28880000D01*
X243715198Y-26223002D02*
G75*
G02*
X243715197Y-28037000I-2911998J-906998D01*
G01*
X237891205Y-26223001D02*
G75*
G02*
X239037203Y-25380001I1145665J-356999D01*
G01*
D11*
X257106631Y-85090000D02*
G75*
G03*
X257106631Y-85090000I-50096631J0D01*
G01*
X284988494Y-54610000D02*
G75*
G03*
X284988494Y-54610000I-65278494J0D01*
G01*
X265606050Y-54610000D02*
G75*
G03*
X265606050Y-54610000I-45896050J0D01*
G01*
X259810640Y-54610000D02*
G75*
G03*
X259810640Y-54610000I-40100640J0D01*
G01*
X276577077Y-54610000D02*
G75*
G03*
X276577077Y-54610000I-56867077J0D01*
G01*
X292111139Y-54610000D02*
G75*
G03*
X292111139Y-54610000I-72401139J0D01*
G01*
X254836464Y-54610000D02*
G75*
G03*
X254836464Y-54610000I-35126464J0D01*
G01*
X270715957Y-54610000D02*
G75*
G03*
X270715957Y-54610000I-51005957J0D01*
G01*
X306107345Y-54610000D02*
G75*
G03*
X306107345Y-54610000I-86397345J0D01*
G01*
X254398410Y-85090000D02*
G75*
G03*
X254398410Y-85090000I-14368410J0D01*
G01*
X324329020Y-53340000D02*
G75*
G03*
X324329020Y-53340000I-104619020J0D01*
G01*
X248669097Y-85090000D02*
G75*
G03*
X248669097Y-85090000I-41659097J0D01*
G01*
X232785450Y-54610000D02*
G75*
G03*
X232785450Y-54610000I-13075450J0D01*
G01*
X235055468Y-54610000D02*
G75*
G03*
X235055468Y-54610000I-15345468J0D01*
G01*
X225389613Y-54610000D02*
G75*
G03*
X225389613Y-54610000I-5679613J0D01*
G01*
X228868100Y-54610000D02*
G75*
G03*
X228868100Y-54610000I-9158100J0D01*
G01*
X231069225Y-54610000D02*
G75*
G03*
X231069225Y-54610000I-11359225J0D01*
G01*
X227115309Y-54610000D02*
G75*
G03*
X227115309Y-54610000I-7405309J0D01*
G01*
X224289050Y-54610000D02*
G75*
G03*
X224289050Y-54610000I-4579050J0D01*
G01*
X236748838Y-54610000D02*
G75*
G03*
X236748838Y-54610000I-17038838J0D01*
G01*
X239054064Y-54610000D02*
G75*
G03*
X239054064Y-54610000I-19344064J0D01*
G01*
X240847013Y-54610000D02*
G75*
G03*
X240847013Y-54610000I-21137013J0D01*
G01*
X242605251Y-54610000D02*
G75*
G03*
X242605251Y-54610000I-22895251J0D01*
G01*
X238453723Y-85090000D02*
G75*
G03*
X238453723Y-85090000I-31443723J0D01*
G01*
X251128065Y-54610000D02*
G75*
G03*
X251128065Y-54610000I-31418065J0D01*
G01*
X248249700Y-54610000D02*
G75*
G03*
X248249700Y-54610000I-28539700J0D01*
G01*
X245425540Y-54610000D02*
G75*
G03*
X245425540Y-54610000I-25715540J0D01*
G01*
X239783936Y-85090000D02*
G75*
G03*
X239783936Y-85090000I-16263936J0D01*
G01*
X251738821Y-85090000D02*
G75*
G03*
X251738821Y-85090000I-11708821J0D01*
G01*
X242570000Y-85090000D02*
G75*
G03*
X242570000Y-85090000I-19050000J0D01*
G01*
X233950768Y-85090000D02*
G75*
G03*
X233950768Y-85090000I-26940768J0D01*
G01*
X224283868Y-85090000D02*
G75*
G03*
X224283868Y-85090000I-17273868J0D01*
G01*
X227488135Y-85090000D02*
G75*
G03*
X227488135Y-85090000I-20478135J0D01*
G01*
X219058278Y-85090000D02*
G75*
G03*
X219058278Y-85090000I-12048278J0D01*
G01*
X229905251Y-85090000D02*
G75*
G03*
X229905251Y-85090000I-22895251J0D01*
G01*
X233439017Y-85090000D02*
G75*
G03*
X233439017Y-85090000I-9919017J0D01*
G01*
X236092359Y-85090000D02*
G75*
G03*
X236092359Y-85090000I-12572359J0D01*
G01*
X216210467Y-85090000D02*
G75*
G03*
X216210467Y-85090000I-8954402J0D01*
G01*
X211632506Y-85090000D02*
G75*
G03*
X211632506Y-85090000I-4376441J0D01*
G01*
X214451489Y-85090000D02*
G75*
G03*
X214451489Y-85090000I-7195424J0D01*
G01*
X227112102Y-85090000D02*
G75*
G03*
X227112102Y-85090000I-3592102J0D01*
G01*
X228908154Y-85090000D02*
G75*
G03*
X228908154Y-85090000I-5388154J0D01*
G01*
X244609050Y-85090000D02*
G75*
G03*
X244609050Y-85090000I-4579050J0D01*
G01*
X248161968Y-85090000D02*
G75*
G03*
X248161968Y-85090000I-8131968J0D01*
G01*
X242869806Y-85090000D02*
G75*
G03*
X242869806Y-85090000I-2839806J0D01*
G01*
X222549806Y-54610000D02*
G75*
G03*
X222549806Y-54610000I-2839806J0D01*
G01*
D12*
X217950446Y-33829523D02*
X218224255Y-33924761D01*
X218700446Y-33924761D01*
X218902827Y-33829523D01*
X219009970Y-33734285D01*
X219129017Y-33543809D01*
X219152827Y-33353333D01*
X219081398Y-33162857D01*
X218998065Y-33067619D01*
X218819494Y-32972380D01*
X218450446Y-32877142D01*
X218271875Y-32781904D01*
X218188541Y-32686666D01*
X218117113Y-32496190D01*
X218140922Y-32305714D01*
X218259970Y-32115238D01*
X218367113Y-32020000D01*
X218569494Y-31924761D01*
X219045684Y-31924761D01*
X219319494Y-32020000D01*
X220105208Y-32591428D02*
X219855208Y-34591428D01*
X220093303Y-32686666D02*
X220295684Y-32591428D01*
X220676636Y-32591428D01*
X220855208Y-32686666D01*
X220938541Y-32781904D01*
X221009970Y-32972380D01*
X220938541Y-33543809D01*
X220819494Y-33734285D01*
X220712351Y-33829523D01*
X220509970Y-33924761D01*
X220129017Y-33924761D01*
X219950446Y-33829523D01*
X222521875Y-33829523D02*
X222319494Y-33924761D01*
X221938541Y-33924761D01*
X221759970Y-33829523D01*
X221688541Y-33639047D01*
X221783779Y-32877142D01*
X221902827Y-32686666D01*
X222105208Y-32591428D01*
X222486160Y-32591428D01*
X222664732Y-32686666D01*
X222736160Y-32877142D01*
X222712351Y-33067619D01*
X221736160Y-33258095D01*
X224236160Y-33829523D02*
X224033779Y-33924761D01*
X223652827Y-33924761D01*
X223474255Y-33829523D01*
X223402827Y-33639047D01*
X223498065Y-32877142D01*
X223617113Y-32686666D01*
X223819494Y-32591428D01*
X224200446Y-32591428D01*
X224379017Y-32686666D01*
X224450446Y-32877142D01*
X224426636Y-33067619D01*
X223450446Y-33258095D01*
X226033779Y-33924761D02*
X226283779Y-31924761D01*
X226045684Y-33829523D02*
X225843303Y-33924761D01*
X225462351Y-33924761D01*
X225283779Y-33829523D01*
X225200446Y-33734285D01*
X225129017Y-33543809D01*
X225200446Y-32972380D01*
X225319494Y-32781904D01*
X225426636Y-32686666D01*
X225629017Y-32591428D01*
X226009970Y-32591428D01*
X226188541Y-32686666D01*
D13*
X239038095Y-36593809D02*
X244038095Y-36593809D01*
X239038095Y-39450952D01*
X244038095Y-39450952D01*
X239038095Y-43974761D02*
X241657142Y-43974761D01*
X242133333Y-43736666D01*
X242371428Y-43260476D01*
X242371428Y-42308095D01*
X242133333Y-41831904D01*
X239276190Y-43974761D02*
X239038095Y-43498571D01*
X239038095Y-42308095D01*
X239276190Y-41831904D01*
X239752380Y-41593809D01*
X240228571Y-41593809D01*
X240704761Y-41831904D01*
X240942857Y-42308095D01*
X240942857Y-43498571D01*
X241180952Y-43974761D01*
X242371428Y-46355714D02*
X239038095Y-46355714D01*
X241895238Y-46355714D02*
X242133333Y-46593809D01*
X242371428Y-47070000D01*
X242371428Y-47784285D01*
X242133333Y-48260476D01*
X241657142Y-48498571D01*
X239038095Y-48498571D01*
X239038095Y-51593809D02*
X239276190Y-51117619D01*
X239514285Y-50879523D01*
X239990476Y-50641428D01*
X241419047Y-50641428D01*
X241895238Y-50879523D01*
X242133333Y-51117619D01*
X242371428Y-51593809D01*
X242371428Y-52308095D01*
X242133333Y-52784285D01*
X241895238Y-53022380D01*
X241419047Y-53260476D01*
X239990476Y-53260476D01*
X239514285Y-53022380D01*
X239276190Y-52784285D01*
X239038095Y-52308095D01*
X239038095Y-51593809D01*
X243800000Y-58022380D02*
X244038095Y-57546190D01*
X244038095Y-56831904D01*
X243800000Y-56117619D01*
X243323809Y-55641428D01*
X242847619Y-55403333D01*
X241895238Y-55165238D01*
X241180952Y-55165238D01*
X240228571Y-55403333D01*
X239752380Y-55641428D01*
X239276190Y-56117619D01*
X239038095Y-56831904D01*
X239038095Y-57308095D01*
X239276190Y-58022380D01*
X239514285Y-58260476D01*
X241180952Y-58260476D01*
X241180952Y-57308095D01*
X239038095Y-60403333D02*
X242371428Y-60403333D01*
X241419047Y-60403333D02*
X241895238Y-60641428D01*
X242133333Y-60879523D01*
X242371428Y-61355714D01*
X242371428Y-61831904D01*
X239038095Y-63498571D02*
X242371428Y-63498571D01*
X244038095Y-63498571D02*
X243800000Y-63260476D01*
X243561904Y-63498571D01*
X243800000Y-63736666D01*
X244038095Y-63498571D01*
X243561904Y-63498571D01*
X239276190Y-65641428D02*
X239038095Y-66117619D01*
X239038095Y-67070000D01*
X239276190Y-67546190D01*
X239752380Y-67784285D01*
X239990476Y-67784285D01*
X240466666Y-67546190D01*
X240704761Y-67070000D01*
X240704761Y-66355714D01*
X240942857Y-65879523D01*
X241419047Y-65641428D01*
X241657142Y-65641428D01*
X242133333Y-65879523D01*
X242371428Y-66355714D01*
X242371428Y-67070000D01*
X242133333Y-67546190D01*
D14*
X185324285Y-107618571D02*
X181324285Y-101904285D01*
X178467142Y-107618571D02*
X178467142Y-95618571D01*
X183038571Y-95618571D01*
X184181428Y-96190000D01*
X184752857Y-96761428D01*
X185324285Y-97904285D01*
X185324285Y-99618571D01*
X184752857Y-100761428D01*
X184181428Y-101332857D01*
X183038571Y-101904285D01*
X178467142Y-101904285D01*
X178181428Y-128618571D02*
X178181428Y-116618571D01*
X185038571Y-128618571D01*
X185038571Y-116618571D01*
X178467142Y-149618571D02*
X178467142Y-137618571D01*
X181324285Y-137618571D01*
X183038571Y-138190000D01*
X184181428Y-139332857D01*
X184752857Y-140475714D01*
X185324285Y-142761428D01*
X185324285Y-144475714D01*
X184752857Y-146761428D01*
X184181428Y-147904285D01*
X183038571Y-149047142D01*
X181324285Y-149618571D01*
X178467142Y-149618571D01*
D12*
X226252827Y-59864761D02*
X227395684Y-59864761D01*
X226574255Y-61864761D02*
X226824255Y-59864761D01*
X228669494Y-61864761D02*
X228800446Y-60817142D01*
X228729017Y-60626666D01*
X228550446Y-60531428D01*
X228169494Y-60531428D01*
X227967113Y-60626666D01*
X228681398Y-61769523D02*
X228479017Y-61864761D01*
X228002827Y-61864761D01*
X227824255Y-61769523D01*
X227752827Y-61579047D01*
X227776636Y-61388571D01*
X227895684Y-61198095D01*
X228098065Y-61102857D01*
X228574255Y-61102857D01*
X228776636Y-61007619D01*
X229788541Y-60531428D02*
X229538541Y-62531428D01*
X229776636Y-60626666D02*
X229979017Y-60531428D01*
X230359970Y-60531428D01*
X230538541Y-60626666D01*
X230621875Y-60721904D01*
X230693303Y-60912380D01*
X230621875Y-61483809D01*
X230502827Y-61674285D01*
X230395684Y-61769523D01*
X230193303Y-61864761D01*
X229812351Y-61864761D01*
X229633779Y-61769523D01*
X200531398Y-47704285D02*
X200424255Y-47799523D01*
X200126636Y-47894761D01*
X199936160Y-47894761D01*
X199662351Y-47799523D01*
X199495684Y-47609047D01*
X199424255Y-47418571D01*
X199376636Y-47037619D01*
X199412351Y-46751904D01*
X199555208Y-46370952D01*
X199674255Y-46180476D01*
X199888541Y-45990000D01*
X200186160Y-45894761D01*
X200376636Y-45894761D01*
X200650446Y-45990000D01*
X200733779Y-46085238D01*
X201650446Y-47894761D02*
X201471875Y-47799523D01*
X201400446Y-47609047D01*
X201614732Y-45894761D01*
X202698065Y-47894761D02*
X202519494Y-47799523D01*
X202436160Y-47704285D01*
X202364732Y-47513809D01*
X202436160Y-46942380D01*
X202555208Y-46751904D01*
X202662351Y-46656666D01*
X202864732Y-46561428D01*
X203150446Y-46561428D01*
X203329017Y-46656666D01*
X203412351Y-46751904D01*
X203483779Y-46942380D01*
X203412351Y-47513809D01*
X203293303Y-47704285D01*
X203186160Y-47799523D01*
X202983779Y-47894761D01*
X202698065Y-47894761D01*
X205090922Y-47799523D02*
X204888541Y-47894761D01*
X204507589Y-47894761D01*
X204329017Y-47799523D01*
X204245684Y-47704285D01*
X204174255Y-47513809D01*
X204245684Y-46942380D01*
X204364732Y-46751904D01*
X204471875Y-46656666D01*
X204674255Y-46561428D01*
X205055208Y-46561428D01*
X205233779Y-46656666D01*
X205936160Y-47894761D02*
X206186160Y-45894761D01*
X206221875Y-47132857D02*
X206698065Y-47894761D01*
X206864732Y-46561428D02*
X206007589Y-47323333D01*
X200507589Y-33924761D02*
X199959970Y-32972380D01*
X199364732Y-33924761D02*
X199614732Y-31924761D01*
X200376636Y-31924761D01*
X200555208Y-32020000D01*
X200638541Y-32115238D01*
X200709970Y-32305714D01*
X200674255Y-32591428D01*
X200555208Y-32781904D01*
X200448065Y-32877142D01*
X200245684Y-32972380D01*
X199483779Y-32972380D01*
X202138541Y-33829523D02*
X201936160Y-33924761D01*
X201555208Y-33924761D01*
X201376636Y-33829523D01*
X201305208Y-33639047D01*
X201400446Y-32877142D01*
X201519494Y-32686666D01*
X201721875Y-32591428D01*
X202102827Y-32591428D01*
X202281398Y-32686666D01*
X202352827Y-32877142D01*
X202329017Y-33067619D01*
X201352827Y-33258095D01*
X202995684Y-33829523D02*
X203174255Y-33924761D01*
X203555208Y-33924761D01*
X203757589Y-33829523D01*
X203876636Y-33639047D01*
X203888541Y-33543809D01*
X203817113Y-33353333D01*
X203638541Y-33258095D01*
X203352827Y-33258095D01*
X203174255Y-33162857D01*
X203102827Y-32972380D01*
X203114732Y-32877142D01*
X203233779Y-32686666D01*
X203436160Y-32591428D01*
X203721875Y-32591428D01*
X203900446Y-32686666D01*
X205471875Y-33829523D02*
X205269494Y-33924761D01*
X204888541Y-33924761D01*
X204709970Y-33829523D01*
X204638541Y-33639047D01*
X204733779Y-32877142D01*
X204852827Y-32686666D01*
X205055208Y-32591428D01*
X205436160Y-32591428D01*
X205614732Y-32686666D01*
X205686160Y-32877142D01*
X205662351Y-33067619D01*
X204686160Y-33258095D01*
X206293303Y-32591428D02*
X207055208Y-32591428D01*
X206662351Y-31924761D02*
X206448065Y-33639047D01*
X206519494Y-33829523D01*
X206698065Y-33924761D01*
X206888541Y-33924761D01*
D14*
X181610000Y-49244285D02*
X181610000Y-54958571D01*
X177610000Y-42958571D02*
X181610000Y-49244285D01*
X185610000Y-42958571D01*
X177610000Y-69628571D02*
X185610000Y-81628571D01*
X185610000Y-69628571D02*
X177610000Y-81628571D01*
D11*
X246380000Y-119380000D02*
X184150000Y-119380000D01*
X184150000Y-119380000D02*
X184150000Y-146050000D01*
X184150000Y-146050000D02*
X247650000Y-146050000D01*
X247650000Y-119380000D02*
X247650000Y-146050000D01*
D15*
X232410000Y-80010000D02*
X232410000Y-147320000D01*
X215900000Y-80010000D02*
X215900000Y-147320000D01*
X199390000Y-80010000D02*
X199390000Y-147320000D01*
D16*
X237761919Y-105302857D02*
X237261919Y-105302857D01*
X237163705Y-106088571D02*
X237351205Y-104588571D01*
X238065491Y-104588571D01*
X238449419Y-106088571D02*
X238574419Y-105088571D01*
X238636919Y-104588571D02*
X238556562Y-104660000D01*
X238619062Y-104731428D01*
X238699419Y-104660000D01*
X238636919Y-104588571D01*
X238619062Y-104731428D01*
X239377991Y-106088571D02*
X239244062Y-106017142D01*
X239190491Y-105874285D01*
X239351205Y-104588571D01*
X240163705Y-106088571D02*
X240029776Y-106017142D01*
X239976205Y-105874285D01*
X240136919Y-104588571D01*
X241922633Y-104588571D02*
X242851205Y-104588571D01*
X242279776Y-105160000D01*
X242494062Y-105160000D01*
X242627991Y-105231428D01*
X242690491Y-105302857D01*
X242744062Y-105445714D01*
X242699419Y-105802857D01*
X242610133Y-105945714D01*
X242529776Y-106017142D01*
X242377991Y-106088571D01*
X241949419Y-106088571D01*
X241815491Y-106017142D01*
X241752991Y-105945714D01*
X222521919Y-105302857D02*
X222021919Y-105302857D01*
X221923705Y-106088571D02*
X222111205Y-104588571D01*
X222825491Y-104588571D01*
X223209419Y-106088571D02*
X223334419Y-105088571D01*
X223396919Y-104588571D02*
X223316562Y-104660000D01*
X223379062Y-104731428D01*
X223459419Y-104660000D01*
X223396919Y-104588571D01*
X223379062Y-104731428D01*
X224137991Y-106088571D02*
X224004062Y-106017142D01*
X223950491Y-105874285D01*
X224111205Y-104588571D01*
X224923705Y-106088571D02*
X224789776Y-106017142D01*
X224736205Y-105874285D01*
X224896919Y-104588571D01*
X226736205Y-104731428D02*
X226816562Y-104660000D01*
X226968348Y-104588571D01*
X227325491Y-104588571D01*
X227459419Y-104660000D01*
X227521919Y-104731428D01*
X227575491Y-104874285D01*
X227557633Y-105017142D01*
X227459419Y-105231428D01*
X226495133Y-106088571D01*
X227423705Y-106088571D01*
X204741919Y-105302857D02*
X204241919Y-105302857D01*
X204143705Y-106088571D02*
X204331205Y-104588571D01*
X205045491Y-104588571D01*
X205429419Y-106088571D02*
X205554419Y-105088571D01*
X205616919Y-104588571D02*
X205536562Y-104660000D01*
X205599062Y-104731428D01*
X205679419Y-104660000D01*
X205616919Y-104588571D01*
X205599062Y-104731428D01*
X206357991Y-106088571D02*
X206224062Y-106017142D01*
X206170491Y-105874285D01*
X206331205Y-104588571D01*
X207143705Y-106088571D02*
X207009776Y-106017142D01*
X206956205Y-105874285D01*
X207116919Y-104588571D01*
X209643705Y-106088571D02*
X208786562Y-106088571D01*
X209215133Y-106088571D02*
X209402633Y-104588571D01*
X209232991Y-104802857D01*
X209072276Y-104945714D01*
X208920491Y-105017142D01*
X187097991Y-106088571D02*
X186687276Y-105374285D01*
X186240848Y-106088571D02*
X186428348Y-104588571D01*
X186999776Y-104588571D01*
X187133705Y-104660000D01*
X187196205Y-104731428D01*
X187249776Y-104874285D01*
X187222991Y-105088571D01*
X187133705Y-105231428D01*
X187053348Y-105302857D01*
X186901562Y-105374285D01*
X186330133Y-105374285D01*
X188383705Y-106088571D02*
X188481919Y-105302857D01*
X188428348Y-105160000D01*
X188294419Y-105088571D01*
X188008705Y-105088571D01*
X187856919Y-105160000D01*
X188392633Y-106017142D02*
X188240848Y-106088571D01*
X187883705Y-106088571D01*
X187749776Y-106017142D01*
X187696205Y-105874285D01*
X187714062Y-105731428D01*
X187803348Y-105588571D01*
X187955133Y-105517142D01*
X188312276Y-105517142D01*
X188464062Y-105445714D01*
X189222991Y-105088571D02*
X189097991Y-106088571D01*
X189205133Y-105231428D02*
X189285491Y-105160000D01*
X189437276Y-105088571D01*
X189651562Y-105088571D01*
X189785491Y-105160000D01*
X189839062Y-105302857D01*
X189740848Y-106088571D01*
X191097991Y-106088571D02*
X191285491Y-104588571D01*
X191106919Y-106017142D02*
X190955133Y-106088571D01*
X190669419Y-106088571D01*
X190535491Y-106017142D01*
X190472991Y-105945714D01*
X190419419Y-105802857D01*
X190472991Y-105374285D01*
X190562276Y-105231428D01*
X190642633Y-105160000D01*
X190794419Y-105088571D01*
X191080133Y-105088571D01*
X191214062Y-105160000D01*
X192026562Y-106088571D02*
X191892633Y-106017142D01*
X191830133Y-105945714D01*
X191776562Y-105802857D01*
X191830133Y-105374285D01*
X191919419Y-105231428D01*
X191999776Y-105160000D01*
X192151562Y-105088571D01*
X192365848Y-105088571D01*
X192499776Y-105160000D01*
X192562276Y-105231428D01*
X192615848Y-105374285D01*
X192562276Y-105802857D01*
X192472991Y-105945714D01*
X192392633Y-106017142D01*
X192240848Y-106088571D01*
X192026562Y-106088571D01*
X193169419Y-106088571D02*
X193294419Y-105088571D01*
X193276562Y-105231428D02*
X193356919Y-105160000D01*
X193508705Y-105088571D01*
X193722991Y-105088571D01*
X193856919Y-105160000D01*
X193910491Y-105302857D01*
X193812276Y-106088571D01*
X193910491Y-105302857D02*
X193999776Y-105160000D01*
X194151562Y-105088571D01*
X194365848Y-105088571D01*
X194499776Y-105160000D01*
X194553348Y-105302857D01*
X194455133Y-106088571D01*
X189607142Y-144045714D02*
X189535714Y-144117142D01*
X189321428Y-144188571D01*
X189178571Y-144188571D01*
X188964285Y-144117142D01*
X188821428Y-143974285D01*
X188750000Y-143831428D01*
X188678571Y-143545714D01*
X188678571Y-143331428D01*
X188750000Y-143045714D01*
X188821428Y-142902857D01*
X188964285Y-142760000D01*
X189178571Y-142688571D01*
X189321428Y-142688571D01*
X189535714Y-142760000D01*
X189607142Y-142831428D01*
X190964285Y-144188571D02*
X190250000Y-144188571D01*
X190250000Y-142688571D01*
X191464285Y-144188571D02*
X191464285Y-142688571D01*
X192321428Y-144188571D02*
X191678571Y-143331428D01*
X192321428Y-142688571D02*
X191464285Y-143545714D01*
X189428571Y-130218571D02*
X188928571Y-129504285D01*
X188571428Y-130218571D02*
X188571428Y-128718571D01*
X189142857Y-128718571D01*
X189285714Y-128790000D01*
X189357142Y-128861428D01*
X189428571Y-129004285D01*
X189428571Y-129218571D01*
X189357142Y-129361428D01*
X189285714Y-129432857D01*
X189142857Y-129504285D01*
X188571428Y-129504285D01*
X190071428Y-130218571D02*
X190071428Y-128718571D01*
X190928571Y-130218571D01*
X190928571Y-128718571D01*
X191642857Y-130218571D02*
X191642857Y-128718571D01*
X192000000Y-128718571D01*
X192214285Y-128790000D01*
X192357142Y-128932857D01*
X192428571Y-129075714D01*
X192500000Y-129361428D01*
X192500000Y-129575714D01*
X192428571Y-129861428D01*
X192357142Y-130004285D01*
X192214285Y-130147142D01*
X192000000Y-130218571D01*
X191642857Y-130218571D01*
D11*
X207010000Y-128270000D02*
X207010000Y-129540000D01*
X246380000Y-144780000D02*
X246380000Y-120650000D01*
X185420000Y-144780000D02*
X246380000Y-144780000D01*
X185420000Y-120650000D02*
X185420000Y-144780000D01*
X246380000Y-120650000D02*
X185420000Y-120650000D01*
D16*
X236887142Y-143760000D02*
X237601428Y-143760000D01*
X236744285Y-144188571D02*
X237244285Y-142688571D01*
X237744285Y-144188571D01*
X239101428Y-144045714D02*
X239030000Y-144117142D01*
X238815714Y-144188571D01*
X238672857Y-144188571D01*
X238458571Y-144117142D01*
X238315714Y-143974285D01*
X238244285Y-143831428D01*
X238172857Y-143545714D01*
X238172857Y-143331428D01*
X238244285Y-143045714D01*
X238315714Y-142902857D01*
X238458571Y-142760000D01*
X238672857Y-142688571D01*
X238815714Y-142688571D01*
X239030000Y-142760000D01*
X239101428Y-142831428D01*
X240601428Y-144045714D02*
X240530000Y-144117142D01*
X240315714Y-144188571D01*
X240172857Y-144188571D01*
X239958571Y-144117142D01*
X239815714Y-143974285D01*
X239744285Y-143831428D01*
X239672857Y-143545714D01*
X239672857Y-143331428D01*
X239744285Y-143045714D01*
X239815714Y-142902857D01*
X239958571Y-142760000D01*
X240172857Y-142688571D01*
X240315714Y-142688571D01*
X240530000Y-142760000D01*
X240601428Y-142831428D01*
X242244285Y-142688571D02*
X243172857Y-142688571D01*
X242672857Y-143260000D01*
X242887142Y-143260000D01*
X243030000Y-143331428D01*
X243101428Y-143402857D01*
X243172857Y-143545714D01*
X243172857Y-143902857D01*
X243101428Y-144045714D01*
X243030000Y-144117142D01*
X242887142Y-144188571D01*
X242458571Y-144188571D01*
X242315714Y-144117142D01*
X242244285Y-144045714D01*
X221647142Y-143760000D02*
X222361428Y-143760000D01*
X221504285Y-144188571D02*
X222004285Y-142688571D01*
X222504285Y-144188571D01*
X223861428Y-144045714D02*
X223790000Y-144117142D01*
X223575714Y-144188571D01*
X223432857Y-144188571D01*
X223218571Y-144117142D01*
X223075714Y-143974285D01*
X223004285Y-143831428D01*
X222932857Y-143545714D01*
X222932857Y-143331428D01*
X223004285Y-143045714D01*
X223075714Y-142902857D01*
X223218571Y-142760000D01*
X223432857Y-142688571D01*
X223575714Y-142688571D01*
X223790000Y-142760000D01*
X223861428Y-142831428D01*
X225361428Y-144045714D02*
X225290000Y-144117142D01*
X225075714Y-144188571D01*
X224932857Y-144188571D01*
X224718571Y-144117142D01*
X224575714Y-143974285D01*
X224504285Y-143831428D01*
X224432857Y-143545714D01*
X224432857Y-143331428D01*
X224504285Y-143045714D01*
X224575714Y-142902857D01*
X224718571Y-142760000D01*
X224932857Y-142688571D01*
X225075714Y-142688571D01*
X225290000Y-142760000D01*
X225361428Y-142831428D01*
X227075714Y-142831428D02*
X227147142Y-142760000D01*
X227290000Y-142688571D01*
X227647142Y-142688571D01*
X227790000Y-142760000D01*
X227861428Y-142831428D01*
X227932857Y-142974285D01*
X227932857Y-143117142D01*
X227861428Y-143331428D01*
X227004285Y-144188571D01*
X227932857Y-144188571D01*
X203867142Y-143760000D02*
X204581428Y-143760000D01*
X203724285Y-144188571D02*
X204224285Y-142688571D01*
X204724285Y-144188571D01*
X206081428Y-144045714D02*
X206010000Y-144117142D01*
X205795714Y-144188571D01*
X205652857Y-144188571D01*
X205438571Y-144117142D01*
X205295714Y-143974285D01*
X205224285Y-143831428D01*
X205152857Y-143545714D01*
X205152857Y-143331428D01*
X205224285Y-143045714D01*
X205295714Y-142902857D01*
X205438571Y-142760000D01*
X205652857Y-142688571D01*
X205795714Y-142688571D01*
X206010000Y-142760000D01*
X206081428Y-142831428D01*
X207581428Y-144045714D02*
X207510000Y-144117142D01*
X207295714Y-144188571D01*
X207152857Y-144188571D01*
X206938571Y-144117142D01*
X206795714Y-143974285D01*
X206724285Y-143831428D01*
X206652857Y-143545714D01*
X206652857Y-143331428D01*
X206724285Y-143045714D01*
X206795714Y-142902857D01*
X206938571Y-142760000D01*
X207152857Y-142688571D01*
X207295714Y-142688571D01*
X207510000Y-142760000D01*
X207581428Y-142831428D01*
X210152857Y-144188571D02*
X209295714Y-144188571D01*
X209724285Y-144188571D02*
X209724285Y-142688571D01*
X209581428Y-142902857D01*
X209438571Y-143045714D01*
X209295714Y-143117142D01*
D11*
X247650000Y-119380000D02*
X246380000Y-119380000D01*
D16*
X238351428Y-130075714D02*
X238280000Y-130147142D01*
X238065714Y-130218571D01*
X237922857Y-130218571D01*
X237708571Y-130147142D01*
X237565714Y-130004285D01*
X237494285Y-129861428D01*
X237422857Y-129575714D01*
X237422857Y-129361428D01*
X237494285Y-129075714D01*
X237565714Y-128932857D01*
X237708571Y-128790000D01*
X237922857Y-128718571D01*
X238065714Y-128718571D01*
X238280000Y-128790000D01*
X238351428Y-128861428D01*
X238994285Y-130218571D02*
X238994285Y-128718571D01*
X238994285Y-129432857D02*
X239851428Y-129432857D01*
X239851428Y-130218571D02*
X239851428Y-128718571D01*
X241565714Y-128718571D02*
X242494285Y-128718571D01*
X241994285Y-129290000D01*
X242208571Y-129290000D01*
X242351428Y-129361428D01*
X242422857Y-129432857D01*
X242494285Y-129575714D01*
X242494285Y-129932857D01*
X242422857Y-130075714D01*
X242351428Y-130147142D01*
X242208571Y-130218571D01*
X241780000Y-130218571D01*
X241637142Y-130147142D01*
X241565714Y-130075714D01*
X222682857Y-130075714D02*
X222611428Y-130147142D01*
X222397142Y-130218571D01*
X222254285Y-130218571D01*
X222040000Y-130147142D01*
X221897142Y-130004285D01*
X221825714Y-129861428D01*
X221754285Y-129575714D01*
X221754285Y-129361428D01*
X221825714Y-129075714D01*
X221897142Y-128932857D01*
X222040000Y-128790000D01*
X222254285Y-128718571D01*
X222397142Y-128718571D01*
X222611428Y-128790000D01*
X222682857Y-128861428D01*
X223325714Y-130218571D02*
X223325714Y-128718571D01*
X223325714Y-129432857D02*
X224182857Y-129432857D01*
X224182857Y-130218571D02*
X224182857Y-128718571D01*
X225968571Y-128861428D02*
X226040000Y-128790000D01*
X226182857Y-128718571D01*
X226540000Y-128718571D01*
X226682857Y-128790000D01*
X226754285Y-128861428D01*
X226825714Y-129004285D01*
X226825714Y-129147142D01*
X226754285Y-129361428D01*
X225897142Y-130218571D01*
X226825714Y-130218571D01*
X205402857Y-130075714D02*
X205331428Y-130147142D01*
X205117142Y-130218571D01*
X204974285Y-130218571D01*
X204760000Y-130147142D01*
X204617142Y-130004285D01*
X204545714Y-129861428D01*
X204474285Y-129575714D01*
X204474285Y-129361428D01*
X204545714Y-129075714D01*
X204617142Y-128932857D01*
X204760000Y-128790000D01*
X204974285Y-128718571D01*
X205117142Y-128718571D01*
X205331428Y-128790000D01*
X205402857Y-128861428D01*
X206045714Y-130218571D02*
X206045714Y-128718571D01*
X206045714Y-129432857D02*
X206902857Y-129432857D01*
X206902857Y-130218571D02*
X206902857Y-128718571D01*
X209545714Y-130218571D02*
X208688571Y-130218571D01*
X209117142Y-130218571D02*
X209117142Y-128718571D01*
X208974285Y-128932857D01*
X208831428Y-129075714D01*
X208688571Y-129147142D01*
D17*
X178570000Y-23910000D02*
X249420000Y-23910000D01*
X178570000Y-152400000D02*
X178570000Y-23910000D01*
X178570000Y-152400000D02*
X249420000Y-152400000D01*
X249420000Y-152400000D02*
X249420000Y-23910000D01*
D18*
X223251904Y-31692380D02*
X223251904Y-30692380D01*
X223251904Y-31168571D02*
X223823333Y-31168571D01*
X223823333Y-31692380D02*
X223823333Y-30692380D01*
X224251904Y-30787619D02*
X224299523Y-30740000D01*
X224394761Y-30692380D01*
X224632857Y-30692380D01*
X224728095Y-30740000D01*
X224775714Y-30787619D01*
X224823333Y-30882857D01*
X224823333Y-30978095D01*
X224775714Y-31120952D01*
X224204285Y-31692380D01*
X224823333Y-31692380D01*
X225394761Y-31120952D02*
X225299523Y-31073333D01*
X225251904Y-31025714D01*
X225204285Y-30930476D01*
X225204285Y-30882857D01*
X225251904Y-30787619D01*
X225299523Y-30740000D01*
X225394761Y-30692380D01*
X225585238Y-30692380D01*
X225680476Y-30740000D01*
X225728095Y-30787619D01*
X225775714Y-30882857D01*
X225775714Y-30930476D01*
X225728095Y-31025714D01*
X225680476Y-31073333D01*
X225585238Y-31120952D01*
X225394761Y-31120952D01*
X225299523Y-31168571D01*
X225251904Y-31216190D01*
X225204285Y-31311428D01*
X225204285Y-31501904D01*
X225251904Y-31597142D01*
X225299523Y-31644761D01*
X225394761Y-31692380D01*
X225585238Y-31692380D01*
X225680476Y-31644761D01*
X225728095Y-31597142D01*
X225775714Y-31501904D01*
X225775714Y-31311428D01*
X225728095Y-31216190D01*
X225680476Y-31168571D01*
X225585238Y-31120952D01*
X238891904Y-88842380D02*
X238891904Y-87842380D01*
X238891904Y-88318571D02*
X239463333Y-88318571D01*
X239463333Y-88842380D02*
X239463333Y-87842380D01*
X239891904Y-87937619D02*
X239939523Y-87890000D01*
X240034761Y-87842380D01*
X240272857Y-87842380D01*
X240368095Y-87890000D01*
X240415714Y-87937619D01*
X240463333Y-88032857D01*
X240463333Y-88128095D01*
X240415714Y-88270952D01*
X239844285Y-88842380D01*
X240463333Y-88842380D01*
X240796666Y-87842380D02*
X241463333Y-87842380D01*
X241034761Y-88842380D01*
X222901904Y-88842380D02*
X222901904Y-87842380D01*
X222901904Y-88318571D02*
X223473333Y-88318571D01*
X223473333Y-88842380D02*
X223473333Y-87842380D01*
X223901904Y-87937619D02*
X223949523Y-87890000D01*
X224044761Y-87842380D01*
X224282857Y-87842380D01*
X224378095Y-87890000D01*
X224425714Y-87937619D01*
X224473333Y-88032857D01*
X224473333Y-88128095D01*
X224425714Y-88270952D01*
X223854285Y-88842380D01*
X224473333Y-88842380D01*
X225330476Y-87842380D02*
X225140000Y-87842380D01*
X225044761Y-87890000D01*
X224997142Y-87937619D01*
X224901904Y-88080476D01*
X224854285Y-88270952D01*
X224854285Y-88651904D01*
X224901904Y-88747142D01*
X224949523Y-88794761D01*
X225044761Y-88842380D01*
X225235238Y-88842380D01*
X225330476Y-88794761D01*
X225378095Y-88747142D01*
X225425714Y-88651904D01*
X225425714Y-88413809D01*
X225378095Y-88318571D01*
X225330476Y-88270952D01*
X225235238Y-88223333D01*
X225044761Y-88223333D01*
X224949523Y-88270952D01*
X224901904Y-88318571D01*
X224854285Y-88413809D01*
X188911904Y-58362380D02*
X188911904Y-57362380D01*
X188911904Y-57838571D02*
X189483333Y-57838571D01*
X189483333Y-58362380D02*
X189483333Y-57362380D01*
X189911904Y-57457619D02*
X189959523Y-57410000D01*
X190054761Y-57362380D01*
X190292857Y-57362380D01*
X190388095Y-57410000D01*
X190435714Y-57457619D01*
X190483333Y-57552857D01*
X190483333Y-57648095D01*
X190435714Y-57790952D01*
X189864285Y-58362380D01*
X190483333Y-58362380D01*
X191388095Y-57362380D02*
X190911904Y-57362380D01*
X190864285Y-57838571D01*
X190911904Y-57790952D01*
X191007142Y-57743333D01*
X191245238Y-57743333D01*
X191340476Y-57790952D01*
X191388095Y-57838571D01*
X191435714Y-57933809D01*
X191435714Y-58171904D01*
X191388095Y-58267142D01*
X191340476Y-58314761D01*
X191245238Y-58362380D01*
X191007142Y-58362380D01*
X190911904Y-58314761D01*
X190864285Y-58267142D01*
X188911904Y-88842380D02*
X188911904Y-87842380D01*
X188911904Y-88318571D02*
X189483333Y-88318571D01*
X189483333Y-88842380D02*
X189483333Y-87842380D01*
X189911904Y-87937619D02*
X189959523Y-87890000D01*
X190054761Y-87842380D01*
X190292857Y-87842380D01*
X190388095Y-87890000D01*
X190435714Y-87937619D01*
X190483333Y-88032857D01*
X190483333Y-88128095D01*
X190435714Y-88270952D01*
X189864285Y-88842380D01*
X190483333Y-88842380D01*
X191340476Y-88175714D02*
X191340476Y-88842380D01*
X191102380Y-87794761D02*
X190864285Y-88509047D01*
X191483333Y-88509047D01*
X205871904Y-88842380D02*
X205871904Y-87842380D01*
X205871904Y-88318571D02*
X206443333Y-88318571D01*
X206443333Y-88842380D02*
X206443333Y-87842380D01*
X206871904Y-87937619D02*
X206919523Y-87890000D01*
X207014761Y-87842380D01*
X207252857Y-87842380D01*
X207348095Y-87890000D01*
X207395714Y-87937619D01*
X207443333Y-88032857D01*
X207443333Y-88128095D01*
X207395714Y-88270952D01*
X206824285Y-88842380D01*
X207443333Y-88842380D01*
X207776666Y-87842380D02*
X208395714Y-87842380D01*
X208062380Y-88223333D01*
X208205238Y-88223333D01*
X208300476Y-88270952D01*
X208348095Y-88318571D01*
X208395714Y-88413809D01*
X208395714Y-88651904D01*
X208348095Y-88747142D01*
X208300476Y-88794761D01*
X208205238Y-88842380D01*
X207919523Y-88842380D01*
X207824285Y-88794761D01*
X207776666Y-88747142D01*
X188911904Y-31692380D02*
X188911904Y-30692380D01*
X188911904Y-31168571D02*
X189483333Y-31168571D01*
X189483333Y-31692380D02*
X189483333Y-30692380D01*
X189911904Y-30787619D02*
X189959523Y-30740000D01*
X190054761Y-30692380D01*
X190292857Y-30692380D01*
X190388095Y-30740000D01*
X190435714Y-30787619D01*
X190483333Y-30882857D01*
X190483333Y-30978095D01*
X190435714Y-31120952D01*
X189864285Y-31692380D01*
X190483333Y-31692380D01*
X190864285Y-30787619D02*
X190911904Y-30740000D01*
X191007142Y-30692380D01*
X191245238Y-30692380D01*
X191340476Y-30740000D01*
X191388095Y-30787619D01*
X191435714Y-30882857D01*
X191435714Y-30978095D01*
X191388095Y-31120952D01*
X190816666Y-31692380D01*
X191435714Y-31692380D01*
M02*
