G04 #@! TF.GenerationSoftware,KiCad,Pcbnew,(5.1.4)-1*
G04 #@! TF.CreationDate,2019-11-15T08:19:10+01:00*
G04 #@! TF.ProjectId,Panel,50616e65-6c2e-46b6-9963-61645f706362,rev?*
G04 #@! TF.SameCoordinates,Original*
G04 #@! TF.FileFunction,Soldermask,Bot*
G04 #@! TF.FilePolarity,Negative*
%FSLAX46Y46*%
G04 Gerber Fmt 4.6, Leading zero omitted, Abs format (unit mm)*
G04 Created by KiCad (PCBNEW (5.1.4)-1) date 2019-11-15 08:19:10*
%MOMM*%
%LPD*%
G04 APERTURE LIST*
%ADD10C,0.050000*%
%ADD11C,0.100000*%
G04 APERTURE END LIST*
D10*
X178570000Y-23910000D02*
X249420000Y-23910000D01*
X178570000Y-152400000D02*
X178570000Y-23910000D01*
X178570000Y-152400000D02*
X249420000Y-152400000D01*
X249420000Y-152400000D02*
X249420000Y-23910000D01*
D11*
G36*
X242375256Y-148251298D02*
G01*
X242481579Y-148272447D01*
X242782042Y-148396903D01*
X243052451Y-148577585D01*
X243282415Y-148807549D01*
X243463097Y-149077958D01*
X243587553Y-149378421D01*
X243651000Y-149697391D01*
X243651000Y-150022609D01*
X243587553Y-150341579D01*
X243463097Y-150642042D01*
X243282415Y-150912451D01*
X243052451Y-151142415D01*
X242782042Y-151323097D01*
X242481579Y-151447553D01*
X242375256Y-151468702D01*
X242162611Y-151511000D01*
X241837389Y-151511000D01*
X241624744Y-151468702D01*
X241518421Y-151447553D01*
X241217958Y-151323097D01*
X240947549Y-151142415D01*
X240717585Y-150912451D01*
X240536903Y-150642042D01*
X240412447Y-150341579D01*
X240349000Y-150022609D01*
X240349000Y-149697391D01*
X240412447Y-149378421D01*
X240536903Y-149077958D01*
X240717585Y-148807549D01*
X240947549Y-148577585D01*
X241217958Y-148396903D01*
X241518421Y-148272447D01*
X241624744Y-148251298D01*
X241837389Y-148209000D01*
X242162611Y-148209000D01*
X242375256Y-148251298D01*
X242375256Y-148251298D01*
G37*
G36*
X187375256Y-148251298D02*
G01*
X187481579Y-148272447D01*
X187782042Y-148396903D01*
X188052451Y-148577585D01*
X188282415Y-148807549D01*
X188463097Y-149077958D01*
X188587553Y-149378421D01*
X188651000Y-149697391D01*
X188651000Y-150022609D01*
X188587553Y-150341579D01*
X188463097Y-150642042D01*
X188282415Y-150912451D01*
X188052451Y-151142415D01*
X187782042Y-151323097D01*
X187481579Y-151447553D01*
X187375256Y-151468702D01*
X187162611Y-151511000D01*
X186837389Y-151511000D01*
X186624744Y-151468702D01*
X186518421Y-151447553D01*
X186217958Y-151323097D01*
X185947549Y-151142415D01*
X185717585Y-150912451D01*
X185536903Y-150642042D01*
X185412447Y-150341579D01*
X185349000Y-150022609D01*
X185349000Y-149697391D01*
X185412447Y-149378421D01*
X185536903Y-149077958D01*
X185717585Y-148807549D01*
X185947549Y-148577585D01*
X186217958Y-148396903D01*
X186518421Y-148272447D01*
X186624744Y-148251298D01*
X186837389Y-148209000D01*
X187162611Y-148209000D01*
X187375256Y-148251298D01*
X187375256Y-148251298D01*
G37*
G36*
X208049943Y-132956248D02*
G01*
X208605189Y-133186238D01*
X208605190Y-133186239D01*
X209104899Y-133520134D01*
X209529866Y-133945101D01*
X209529867Y-133945103D01*
X209863762Y-134444811D01*
X210093752Y-135000057D01*
X210211000Y-135589501D01*
X210211000Y-136190499D01*
X210093752Y-136779943D01*
X209863762Y-137335189D01*
X209863761Y-137335190D01*
X209529866Y-137834899D01*
X209104899Y-138259866D01*
X208853347Y-138427948D01*
X208605189Y-138593762D01*
X208049943Y-138823752D01*
X207460499Y-138941000D01*
X206859501Y-138941000D01*
X206270057Y-138823752D01*
X205714811Y-138593762D01*
X205466653Y-138427948D01*
X205215101Y-138259866D01*
X204790134Y-137834899D01*
X204456239Y-137335190D01*
X204456238Y-137335189D01*
X204226248Y-136779943D01*
X204109000Y-136190499D01*
X204109000Y-135589501D01*
X204226248Y-135000057D01*
X204456238Y-134444811D01*
X204790133Y-133945103D01*
X204790134Y-133945101D01*
X205215101Y-133520134D01*
X205714810Y-133186239D01*
X205714811Y-133186238D01*
X206270057Y-132956248D01*
X206859501Y-132839000D01*
X207460499Y-132839000D01*
X208049943Y-132956248D01*
X208049943Y-132956248D01*
G37*
G36*
X225009943Y-132956248D02*
G01*
X225565189Y-133186238D01*
X225565190Y-133186239D01*
X226064899Y-133520134D01*
X226489866Y-133945101D01*
X226489867Y-133945103D01*
X226823762Y-134444811D01*
X227053752Y-135000057D01*
X227171000Y-135589501D01*
X227171000Y-136190499D01*
X227053752Y-136779943D01*
X226823762Y-137335189D01*
X226823761Y-137335190D01*
X226489866Y-137834899D01*
X226064899Y-138259866D01*
X225813347Y-138427948D01*
X225565189Y-138593762D01*
X225009943Y-138823752D01*
X224420499Y-138941000D01*
X223819501Y-138941000D01*
X223230057Y-138823752D01*
X222674811Y-138593762D01*
X222426653Y-138427948D01*
X222175101Y-138259866D01*
X221750134Y-137834899D01*
X221416239Y-137335190D01*
X221416238Y-137335189D01*
X221186248Y-136779943D01*
X221069000Y-136190499D01*
X221069000Y-135589501D01*
X221186248Y-135000057D01*
X221416238Y-134444811D01*
X221750133Y-133945103D01*
X221750134Y-133945101D01*
X222175101Y-133520134D01*
X222674810Y-133186239D01*
X222674811Y-133186238D01*
X223230057Y-132956248D01*
X223819501Y-132839000D01*
X224420499Y-132839000D01*
X225009943Y-132956248D01*
X225009943Y-132956248D01*
G37*
G36*
X241019943Y-132956248D02*
G01*
X241575189Y-133186238D01*
X241575190Y-133186239D01*
X242074899Y-133520134D01*
X242499866Y-133945101D01*
X242499867Y-133945103D01*
X242833762Y-134444811D01*
X243063752Y-135000057D01*
X243181000Y-135589501D01*
X243181000Y-136190499D01*
X243063752Y-136779943D01*
X242833762Y-137335189D01*
X242833761Y-137335190D01*
X242499866Y-137834899D01*
X242074899Y-138259866D01*
X241823347Y-138427948D01*
X241575189Y-138593762D01*
X241019943Y-138823752D01*
X240430499Y-138941000D01*
X239829501Y-138941000D01*
X239240057Y-138823752D01*
X238684811Y-138593762D01*
X238436653Y-138427948D01*
X238185101Y-138259866D01*
X237760134Y-137834899D01*
X237426239Y-137335190D01*
X237426238Y-137335189D01*
X237196248Y-136779943D01*
X237079000Y-136190499D01*
X237079000Y-135589501D01*
X237196248Y-135000057D01*
X237426238Y-134444811D01*
X237760133Y-133945103D01*
X237760134Y-133945101D01*
X238185101Y-133520134D01*
X238684810Y-133186239D01*
X238684811Y-133186238D01*
X239240057Y-132956248D01*
X239829501Y-132839000D01*
X240430499Y-132839000D01*
X241019943Y-132956248D01*
X241019943Y-132956248D01*
G37*
G36*
X191039943Y-132956248D02*
G01*
X191595189Y-133186238D01*
X191595190Y-133186239D01*
X192094899Y-133520134D01*
X192519866Y-133945101D01*
X192519867Y-133945103D01*
X192853762Y-134444811D01*
X193083752Y-135000057D01*
X193201000Y-135589501D01*
X193201000Y-136190499D01*
X193083752Y-136779943D01*
X192853762Y-137335189D01*
X192853761Y-137335190D01*
X192519866Y-137834899D01*
X192094899Y-138259866D01*
X191843347Y-138427948D01*
X191595189Y-138593762D01*
X191039943Y-138823752D01*
X190450499Y-138941000D01*
X189849501Y-138941000D01*
X189260057Y-138823752D01*
X188704811Y-138593762D01*
X188456653Y-138427948D01*
X188205101Y-138259866D01*
X187780134Y-137834899D01*
X187446239Y-137335190D01*
X187446238Y-137335189D01*
X187216248Y-136779943D01*
X187099000Y-136190499D01*
X187099000Y-135589501D01*
X187216248Y-135000057D01*
X187446238Y-134444811D01*
X187780133Y-133945103D01*
X187780134Y-133945101D01*
X188205101Y-133520134D01*
X188704810Y-133186239D01*
X188704811Y-133186238D01*
X189260057Y-132956248D01*
X189849501Y-132839000D01*
X190450499Y-132839000D01*
X191039943Y-132956248D01*
X191039943Y-132956248D01*
G37*
G36*
X208049943Y-121526248D02*
G01*
X208605189Y-121756238D01*
X208605190Y-121756239D01*
X209104899Y-122090134D01*
X209529866Y-122515101D01*
X209529867Y-122515103D01*
X209863762Y-123014811D01*
X210093752Y-123570057D01*
X210211000Y-124159501D01*
X210211000Y-124760499D01*
X210093752Y-125349943D01*
X209863762Y-125905189D01*
X209863761Y-125905190D01*
X209529866Y-126404899D01*
X209104899Y-126829866D01*
X208853347Y-126997948D01*
X208605189Y-127163762D01*
X208049943Y-127393752D01*
X207460499Y-127511000D01*
X206859501Y-127511000D01*
X206270057Y-127393752D01*
X205714811Y-127163762D01*
X205466653Y-126997948D01*
X205215101Y-126829866D01*
X204790134Y-126404899D01*
X204456239Y-125905190D01*
X204456238Y-125905189D01*
X204226248Y-125349943D01*
X204109000Y-124760499D01*
X204109000Y-124159501D01*
X204226248Y-123570057D01*
X204456238Y-123014811D01*
X204790133Y-122515103D01*
X204790134Y-122515101D01*
X205215101Y-122090134D01*
X205714810Y-121756239D01*
X205714811Y-121756238D01*
X206270057Y-121526248D01*
X206859501Y-121409000D01*
X207460499Y-121409000D01*
X208049943Y-121526248D01*
X208049943Y-121526248D01*
G37*
G36*
X241019943Y-121526248D02*
G01*
X241575189Y-121756238D01*
X241575190Y-121756239D01*
X242074899Y-122090134D01*
X242499866Y-122515101D01*
X242499867Y-122515103D01*
X242833762Y-123014811D01*
X243063752Y-123570057D01*
X243181000Y-124159501D01*
X243181000Y-124760499D01*
X243063752Y-125349943D01*
X242833762Y-125905189D01*
X242833761Y-125905190D01*
X242499866Y-126404899D01*
X242074899Y-126829866D01*
X241823347Y-126997948D01*
X241575189Y-127163762D01*
X241019943Y-127393752D01*
X240430499Y-127511000D01*
X239829501Y-127511000D01*
X239240057Y-127393752D01*
X238684811Y-127163762D01*
X238436653Y-126997948D01*
X238185101Y-126829866D01*
X237760134Y-126404899D01*
X237426239Y-125905190D01*
X237426238Y-125905189D01*
X237196248Y-125349943D01*
X237079000Y-124760499D01*
X237079000Y-124159501D01*
X237196248Y-123570057D01*
X237426238Y-123014811D01*
X237760133Y-122515103D01*
X237760134Y-122515101D01*
X238185101Y-122090134D01*
X238684810Y-121756239D01*
X238684811Y-121756238D01*
X239240057Y-121526248D01*
X239829501Y-121409000D01*
X240430499Y-121409000D01*
X241019943Y-121526248D01*
X241019943Y-121526248D01*
G37*
G36*
X225059943Y-121526248D02*
G01*
X225615189Y-121756238D01*
X225615190Y-121756239D01*
X226114899Y-122090134D01*
X226539866Y-122515101D01*
X226539867Y-122515103D01*
X226873762Y-123014811D01*
X227103752Y-123570057D01*
X227221000Y-124159501D01*
X227221000Y-124760499D01*
X227103752Y-125349943D01*
X226873762Y-125905189D01*
X226873761Y-125905190D01*
X226539866Y-126404899D01*
X226114899Y-126829866D01*
X225863347Y-126997948D01*
X225615189Y-127163762D01*
X225059943Y-127393752D01*
X224470499Y-127511000D01*
X223869501Y-127511000D01*
X223280057Y-127393752D01*
X222724811Y-127163762D01*
X222476653Y-126997948D01*
X222225101Y-126829866D01*
X221800134Y-126404899D01*
X221466239Y-125905190D01*
X221466238Y-125905189D01*
X221236248Y-125349943D01*
X221119000Y-124760499D01*
X221119000Y-124159501D01*
X221236248Y-123570057D01*
X221466238Y-123014811D01*
X221800133Y-122515103D01*
X221800134Y-122515101D01*
X222225101Y-122090134D01*
X222724810Y-121756239D01*
X222724811Y-121756238D01*
X223280057Y-121526248D01*
X223869501Y-121409000D01*
X224470499Y-121409000D01*
X225059943Y-121526248D01*
X225059943Y-121526248D01*
G37*
G36*
X191039943Y-121526248D02*
G01*
X191595189Y-121756238D01*
X191595190Y-121756239D01*
X192094899Y-122090134D01*
X192519866Y-122515101D01*
X192519867Y-122515103D01*
X192853762Y-123014811D01*
X193083752Y-123570057D01*
X193201000Y-124159501D01*
X193201000Y-124760499D01*
X193083752Y-125349943D01*
X192853762Y-125905189D01*
X192853761Y-125905190D01*
X192519866Y-126404899D01*
X192094899Y-126829866D01*
X191843347Y-126997948D01*
X191595189Y-127163762D01*
X191039943Y-127393752D01*
X190450499Y-127511000D01*
X189849501Y-127511000D01*
X189260057Y-127393752D01*
X188704811Y-127163762D01*
X188456653Y-126997948D01*
X188205101Y-126829866D01*
X187780134Y-126404899D01*
X187446239Y-125905190D01*
X187446238Y-125905189D01*
X187216248Y-125349943D01*
X187099000Y-124760499D01*
X187099000Y-124159501D01*
X187216248Y-123570057D01*
X187446238Y-123014811D01*
X187780133Y-122515103D01*
X187780134Y-122515101D01*
X188205101Y-122090134D01*
X188704810Y-121756239D01*
X188704811Y-121756238D01*
X189260057Y-121526248D01*
X189849501Y-121409000D01*
X190450499Y-121409000D01*
X191039943Y-121526248D01*
X191039943Y-121526248D01*
G37*
G36*
X225059943Y-110096248D02*
G01*
X225615189Y-110326238D01*
X225615190Y-110326239D01*
X226114899Y-110660134D01*
X226539866Y-111085101D01*
X226539867Y-111085103D01*
X226873762Y-111584811D01*
X227103752Y-112140057D01*
X227221000Y-112729501D01*
X227221000Y-113330499D01*
X227103752Y-113919943D01*
X226873762Y-114475189D01*
X226873761Y-114475190D01*
X226539866Y-114974899D01*
X226114899Y-115399866D01*
X225863347Y-115567948D01*
X225615189Y-115733762D01*
X225059943Y-115963752D01*
X224470499Y-116081000D01*
X223869501Y-116081000D01*
X223280057Y-115963752D01*
X222724811Y-115733762D01*
X222476653Y-115567948D01*
X222225101Y-115399866D01*
X221800134Y-114974899D01*
X221466239Y-114475190D01*
X221466238Y-114475189D01*
X221236248Y-113919943D01*
X221119000Y-113330499D01*
X221119000Y-112729501D01*
X221236248Y-112140057D01*
X221466238Y-111584811D01*
X221800133Y-111085103D01*
X221800134Y-111085101D01*
X222225101Y-110660134D01*
X222724810Y-110326239D01*
X222724811Y-110326238D01*
X223280057Y-110096248D01*
X223869501Y-109979000D01*
X224470499Y-109979000D01*
X225059943Y-110096248D01*
X225059943Y-110096248D01*
G37*
G36*
X208049943Y-110096248D02*
G01*
X208605189Y-110326238D01*
X208605190Y-110326239D01*
X209104899Y-110660134D01*
X209529866Y-111085101D01*
X209529867Y-111085103D01*
X209863762Y-111584811D01*
X210093752Y-112140057D01*
X210211000Y-112729501D01*
X210211000Y-113330499D01*
X210093752Y-113919943D01*
X209863762Y-114475189D01*
X209863761Y-114475190D01*
X209529866Y-114974899D01*
X209104899Y-115399866D01*
X208853347Y-115567948D01*
X208605189Y-115733762D01*
X208049943Y-115963752D01*
X207460499Y-116081000D01*
X206859501Y-116081000D01*
X206270057Y-115963752D01*
X205714811Y-115733762D01*
X205466653Y-115567948D01*
X205215101Y-115399866D01*
X204790134Y-114974899D01*
X204456239Y-114475190D01*
X204456238Y-114475189D01*
X204226248Y-113919943D01*
X204109000Y-113330499D01*
X204109000Y-112729501D01*
X204226248Y-112140057D01*
X204456238Y-111584811D01*
X204790133Y-111085103D01*
X204790134Y-111085101D01*
X205215101Y-110660134D01*
X205714810Y-110326239D01*
X205714811Y-110326238D01*
X206270057Y-110096248D01*
X206859501Y-109979000D01*
X207460499Y-109979000D01*
X208049943Y-110096248D01*
X208049943Y-110096248D01*
G37*
G36*
X191039943Y-110096248D02*
G01*
X191595189Y-110326238D01*
X191595190Y-110326239D01*
X192094899Y-110660134D01*
X192519866Y-111085101D01*
X192519867Y-111085103D01*
X192853762Y-111584811D01*
X193083752Y-112140057D01*
X193201000Y-112729501D01*
X193201000Y-113330499D01*
X193083752Y-113919943D01*
X192853762Y-114475189D01*
X192853761Y-114475190D01*
X192519866Y-114974899D01*
X192094899Y-115399866D01*
X191843347Y-115567948D01*
X191595189Y-115733762D01*
X191039943Y-115963752D01*
X190450499Y-116081000D01*
X189849501Y-116081000D01*
X189260057Y-115963752D01*
X188704811Y-115733762D01*
X188456653Y-115567948D01*
X188205101Y-115399866D01*
X187780134Y-114974899D01*
X187446239Y-114475190D01*
X187446238Y-114475189D01*
X187216248Y-113919943D01*
X187099000Y-113330499D01*
X187099000Y-112729501D01*
X187216248Y-112140057D01*
X187446238Y-111584811D01*
X187780133Y-111085103D01*
X187780134Y-111085101D01*
X188205101Y-110660134D01*
X188704810Y-110326239D01*
X188704811Y-110326238D01*
X189260057Y-110096248D01*
X189849501Y-109979000D01*
X190450499Y-109979000D01*
X191039943Y-110096248D01*
X191039943Y-110096248D01*
G37*
G36*
X241019943Y-110096248D02*
G01*
X241575189Y-110326238D01*
X241575190Y-110326239D01*
X242074899Y-110660134D01*
X242499866Y-111085101D01*
X242499867Y-111085103D01*
X242833762Y-111584811D01*
X243063752Y-112140057D01*
X243181000Y-112729501D01*
X243181000Y-113330499D01*
X243063752Y-113919943D01*
X242833762Y-114475189D01*
X242833761Y-114475190D01*
X242499866Y-114974899D01*
X242074899Y-115399866D01*
X241823347Y-115567948D01*
X241575189Y-115733762D01*
X241019943Y-115963752D01*
X240430499Y-116081000D01*
X239829501Y-116081000D01*
X239240057Y-115963752D01*
X238684811Y-115733762D01*
X238436653Y-115567948D01*
X238185101Y-115399866D01*
X237760134Y-114974899D01*
X237426239Y-114475190D01*
X237426238Y-114475189D01*
X237196248Y-113919943D01*
X237079000Y-113330499D01*
X237079000Y-112729501D01*
X237196248Y-112140057D01*
X237426238Y-111584811D01*
X237760133Y-111085103D01*
X237760134Y-111085101D01*
X238185101Y-110660134D01*
X238684810Y-110326239D01*
X238684811Y-110326238D01*
X239240057Y-110096248D01*
X239829501Y-109979000D01*
X240430499Y-109979000D01*
X241019943Y-110096248D01*
X241019943Y-110096248D01*
G37*
G36*
X191112865Y-94615855D02*
G01*
X191713608Y-94864691D01*
X191713610Y-94864692D01*
X192254265Y-95225946D01*
X192714054Y-95685735D01*
X193075308Y-96226390D01*
X193075309Y-96226392D01*
X193324145Y-96827135D01*
X193451000Y-97464879D01*
X193451000Y-98115121D01*
X193324145Y-98752865D01*
X193075309Y-99353608D01*
X193075308Y-99353610D01*
X192714054Y-99894265D01*
X192254265Y-100354054D01*
X191713610Y-100715308D01*
X191713609Y-100715309D01*
X191713608Y-100715309D01*
X191112865Y-100964145D01*
X190475121Y-101091000D01*
X189824879Y-101091000D01*
X189187135Y-100964145D01*
X188586392Y-100715309D01*
X188586391Y-100715309D01*
X188586390Y-100715308D01*
X188045735Y-100354054D01*
X187585946Y-99894265D01*
X187224692Y-99353610D01*
X187224691Y-99353608D01*
X186975855Y-98752865D01*
X186849000Y-98115121D01*
X186849000Y-97464879D01*
X186975855Y-96827135D01*
X187224691Y-96226392D01*
X187224692Y-96226390D01*
X187585946Y-95685735D01*
X188045735Y-95225946D01*
X188586390Y-94864692D01*
X188586392Y-94864691D01*
X189187135Y-94615855D01*
X189824879Y-94489000D01*
X190475121Y-94489000D01*
X191112865Y-94615855D01*
X191112865Y-94615855D01*
G37*
G36*
X241092865Y-94615855D02*
G01*
X241693608Y-94864691D01*
X241693610Y-94864692D01*
X242234265Y-95225946D01*
X242694054Y-95685735D01*
X243055308Y-96226390D01*
X243055309Y-96226392D01*
X243304145Y-96827135D01*
X243431000Y-97464879D01*
X243431000Y-98115121D01*
X243304145Y-98752865D01*
X243055309Y-99353608D01*
X243055308Y-99353610D01*
X242694054Y-99894265D01*
X242234265Y-100354054D01*
X241693610Y-100715308D01*
X241693609Y-100715309D01*
X241693608Y-100715309D01*
X241092865Y-100964145D01*
X240455121Y-101091000D01*
X239804879Y-101091000D01*
X239167135Y-100964145D01*
X238566392Y-100715309D01*
X238566391Y-100715309D01*
X238566390Y-100715308D01*
X238025735Y-100354054D01*
X237565946Y-99894265D01*
X237204692Y-99353610D01*
X237204691Y-99353608D01*
X236955855Y-98752865D01*
X236829000Y-98115121D01*
X236829000Y-97464879D01*
X236955855Y-96827135D01*
X237204691Y-96226392D01*
X237204692Y-96226390D01*
X237565946Y-95685735D01*
X238025735Y-95225946D01*
X238566390Y-94864692D01*
X238566392Y-94864691D01*
X239167135Y-94615855D01*
X239804879Y-94489000D01*
X240455121Y-94489000D01*
X241092865Y-94615855D01*
X241092865Y-94615855D01*
G37*
G36*
X208072865Y-94615855D02*
G01*
X208673608Y-94864691D01*
X208673610Y-94864692D01*
X209214265Y-95225946D01*
X209674054Y-95685735D01*
X210035308Y-96226390D01*
X210035309Y-96226392D01*
X210284145Y-96827135D01*
X210411000Y-97464879D01*
X210411000Y-98115121D01*
X210284145Y-98752865D01*
X210035309Y-99353608D01*
X210035308Y-99353610D01*
X209674054Y-99894265D01*
X209214265Y-100354054D01*
X208673610Y-100715308D01*
X208673609Y-100715309D01*
X208673608Y-100715309D01*
X208072865Y-100964145D01*
X207435121Y-101091000D01*
X206784879Y-101091000D01*
X206147135Y-100964145D01*
X205546392Y-100715309D01*
X205546391Y-100715309D01*
X205546390Y-100715308D01*
X205005735Y-100354054D01*
X204545946Y-99894265D01*
X204184692Y-99353610D01*
X204184691Y-99353608D01*
X203935855Y-98752865D01*
X203809000Y-98115121D01*
X203809000Y-97464879D01*
X203935855Y-96827135D01*
X204184691Y-96226392D01*
X204184692Y-96226390D01*
X204545946Y-95685735D01*
X205005735Y-95225946D01*
X205546390Y-94864692D01*
X205546392Y-94864691D01*
X206147135Y-94615855D01*
X206784879Y-94489000D01*
X207435121Y-94489000D01*
X208072865Y-94615855D01*
X208072865Y-94615855D01*
G37*
G36*
X225102865Y-94615855D02*
G01*
X225703608Y-94864691D01*
X225703610Y-94864692D01*
X226244265Y-95225946D01*
X226704054Y-95685735D01*
X227065308Y-96226390D01*
X227065309Y-96226392D01*
X227314145Y-96827135D01*
X227441000Y-97464879D01*
X227441000Y-98115121D01*
X227314145Y-98752865D01*
X227065309Y-99353608D01*
X227065308Y-99353610D01*
X226704054Y-99894265D01*
X226244265Y-100354054D01*
X225703610Y-100715308D01*
X225703609Y-100715309D01*
X225703608Y-100715309D01*
X225102865Y-100964145D01*
X224465121Y-101091000D01*
X223814879Y-101091000D01*
X223177135Y-100964145D01*
X222576392Y-100715309D01*
X222576391Y-100715309D01*
X222576390Y-100715308D01*
X222035735Y-100354054D01*
X221575946Y-99894265D01*
X221214692Y-99353610D01*
X221214691Y-99353608D01*
X220965855Y-98752865D01*
X220839000Y-98115121D01*
X220839000Y-97464879D01*
X220965855Y-96827135D01*
X221214691Y-96226392D01*
X221214692Y-96226390D01*
X221575946Y-95685735D01*
X222035735Y-95225946D01*
X222576390Y-94864692D01*
X222576392Y-94864691D01*
X223177135Y-94615855D01*
X223814879Y-94489000D01*
X224465121Y-94489000D01*
X225102865Y-94615855D01*
X225102865Y-94615855D01*
G37*
G36*
X224022585Y-83468802D02*
G01*
X224172410Y-83498604D01*
X224454674Y-83615521D01*
X224708705Y-83785259D01*
X224924741Y-84001295D01*
X225094479Y-84255326D01*
X225211396Y-84537590D01*
X225271000Y-84837240D01*
X225271000Y-85142760D01*
X225211396Y-85442410D01*
X225094479Y-85724674D01*
X224924741Y-85978705D01*
X224708705Y-86194741D01*
X224454674Y-86364479D01*
X224172410Y-86481396D01*
X224022585Y-86511198D01*
X223872761Y-86541000D01*
X223567239Y-86541000D01*
X223417415Y-86511198D01*
X223267590Y-86481396D01*
X222985326Y-86364479D01*
X222731295Y-86194741D01*
X222515259Y-85978705D01*
X222345521Y-85724674D01*
X222228604Y-85442410D01*
X222169000Y-85142760D01*
X222169000Y-84837240D01*
X222228604Y-84537590D01*
X222345521Y-84255326D01*
X222515259Y-84001295D01*
X222731295Y-83785259D01*
X222985326Y-83615521D01*
X223267590Y-83498604D01*
X223417415Y-83468802D01*
X223567239Y-83439000D01*
X223872761Y-83439000D01*
X224022585Y-83468802D01*
X224022585Y-83468802D01*
G37*
G36*
X240332585Y-83468802D02*
G01*
X240482410Y-83498604D01*
X240764674Y-83615521D01*
X241018705Y-83785259D01*
X241234741Y-84001295D01*
X241404479Y-84255326D01*
X241521396Y-84537590D01*
X241581000Y-84837240D01*
X241581000Y-85142760D01*
X241521396Y-85442410D01*
X241404479Y-85724674D01*
X241234741Y-85978705D01*
X241018705Y-86194741D01*
X240764674Y-86364479D01*
X240482410Y-86481396D01*
X240332585Y-86511198D01*
X240182761Y-86541000D01*
X239877239Y-86541000D01*
X239727415Y-86511198D01*
X239577590Y-86481396D01*
X239295326Y-86364479D01*
X239041295Y-86194741D01*
X238825259Y-85978705D01*
X238655521Y-85724674D01*
X238538604Y-85442410D01*
X238479000Y-85142760D01*
X238479000Y-84837240D01*
X238538604Y-84537590D01*
X238655521Y-84255326D01*
X238825259Y-84001295D01*
X239041295Y-83785259D01*
X239295326Y-83615521D01*
X239577590Y-83498604D01*
X239727415Y-83468802D01*
X239877239Y-83439000D01*
X240182761Y-83439000D01*
X240332585Y-83468802D01*
X240332585Y-83468802D01*
G37*
G36*
X207312585Y-83468802D02*
G01*
X207462410Y-83498604D01*
X207744674Y-83615521D01*
X207998705Y-83785259D01*
X208214741Y-84001295D01*
X208384479Y-84255326D01*
X208501396Y-84537590D01*
X208561000Y-84837240D01*
X208561000Y-85142760D01*
X208501396Y-85442410D01*
X208384479Y-85724674D01*
X208214741Y-85978705D01*
X207998705Y-86194741D01*
X207744674Y-86364479D01*
X207462410Y-86481396D01*
X207312585Y-86511198D01*
X207162761Y-86541000D01*
X206857239Y-86541000D01*
X206707415Y-86511198D01*
X206557590Y-86481396D01*
X206275326Y-86364479D01*
X206021295Y-86194741D01*
X205805259Y-85978705D01*
X205635521Y-85724674D01*
X205518604Y-85442410D01*
X205459000Y-85142760D01*
X205459000Y-84837240D01*
X205518604Y-84537590D01*
X205635521Y-84255326D01*
X205805259Y-84001295D01*
X206021295Y-83785259D01*
X206275326Y-83615521D01*
X206557590Y-83498604D01*
X206707415Y-83468802D01*
X206857239Y-83439000D01*
X207162761Y-83439000D01*
X207312585Y-83468802D01*
X207312585Y-83468802D01*
G37*
G36*
X191039943Y-79616248D02*
G01*
X191595189Y-79846238D01*
X191595190Y-79846239D01*
X192094899Y-80180134D01*
X192519866Y-80605101D01*
X192519867Y-80605103D01*
X192853762Y-81104811D01*
X193083752Y-81660057D01*
X193201000Y-82249501D01*
X193201000Y-82850499D01*
X193083752Y-83439943D01*
X192853762Y-83995189D01*
X192853761Y-83995190D01*
X192519866Y-84494899D01*
X192094899Y-84919866D01*
X191843347Y-85087948D01*
X191595189Y-85253762D01*
X191039943Y-85483752D01*
X190450499Y-85601000D01*
X189849501Y-85601000D01*
X189260057Y-85483752D01*
X188704811Y-85253762D01*
X188456653Y-85087948D01*
X188205101Y-84919866D01*
X187780134Y-84494899D01*
X187446239Y-83995190D01*
X187446238Y-83995189D01*
X187216248Y-83439943D01*
X187099000Y-82850499D01*
X187099000Y-82249501D01*
X187216248Y-81660057D01*
X187446238Y-81104811D01*
X187780133Y-80605103D01*
X187780134Y-80605101D01*
X188205101Y-80180134D01*
X188704810Y-79846239D01*
X188704811Y-79846238D01*
X189260057Y-79616248D01*
X189849501Y-79499000D01*
X190450499Y-79499000D01*
X191039943Y-79616248D01*
X191039943Y-79616248D01*
G37*
G36*
X191112865Y-64135855D02*
G01*
X191713608Y-64384691D01*
X191713610Y-64384692D01*
X192254265Y-64745946D01*
X192714054Y-65205735D01*
X193075308Y-65746390D01*
X193075309Y-65746392D01*
X193324145Y-66347135D01*
X193451000Y-66984879D01*
X193451000Y-67635121D01*
X193324145Y-68272865D01*
X193158092Y-68673752D01*
X193075308Y-68873610D01*
X192714054Y-69414265D01*
X192254265Y-69874054D01*
X191713610Y-70235308D01*
X191713609Y-70235309D01*
X191713608Y-70235309D01*
X191112865Y-70484145D01*
X190475121Y-70611000D01*
X189824879Y-70611000D01*
X189187135Y-70484145D01*
X188586392Y-70235309D01*
X188586391Y-70235309D01*
X188586390Y-70235308D01*
X188045735Y-69874054D01*
X187585946Y-69414265D01*
X187224692Y-68873610D01*
X187141908Y-68673752D01*
X186975855Y-68272865D01*
X186849000Y-67635121D01*
X186849000Y-66984879D01*
X186975855Y-66347135D01*
X187224691Y-65746392D01*
X187224692Y-65746390D01*
X187585946Y-65205735D01*
X188045735Y-64745946D01*
X188586390Y-64384692D01*
X188586392Y-64384691D01*
X189187135Y-64135855D01*
X189824879Y-64009000D01*
X190475121Y-64009000D01*
X191112865Y-64135855D01*
X191112865Y-64135855D01*
G37*
G36*
X222619943Y-62806248D02*
G01*
X223175189Y-63036238D01*
X223175190Y-63036239D01*
X223674899Y-63370134D01*
X224099866Y-63795101D01*
X224099867Y-63795103D01*
X224433762Y-64294811D01*
X224663752Y-64850057D01*
X224781000Y-65439501D01*
X224781000Y-66040499D01*
X224663752Y-66629943D01*
X224433762Y-67185189D01*
X224433761Y-67185190D01*
X224099866Y-67684899D01*
X223674899Y-68109866D01*
X223430954Y-68272865D01*
X223175189Y-68443762D01*
X222619943Y-68673752D01*
X222030499Y-68791000D01*
X221429501Y-68791000D01*
X220840057Y-68673752D01*
X220284811Y-68443762D01*
X220029046Y-68272865D01*
X219785101Y-68109866D01*
X219360134Y-67684899D01*
X219026239Y-67185190D01*
X219026238Y-67185189D01*
X218796248Y-66629943D01*
X218679000Y-66040499D01*
X218679000Y-65439501D01*
X218796248Y-64850057D01*
X219026238Y-64294811D01*
X219360133Y-63795103D01*
X219360134Y-63795101D01*
X219785101Y-63370134D01*
X220284810Y-63036239D01*
X220284811Y-63036238D01*
X220840057Y-62806248D01*
X221429501Y-62689000D01*
X222030499Y-62689000D01*
X222619943Y-62806248D01*
X222619943Y-62806248D01*
G37*
G36*
X191039943Y-52946248D02*
G01*
X191595189Y-53176238D01*
X191595190Y-53176239D01*
X192094899Y-53510134D01*
X192519866Y-53935101D01*
X192519867Y-53935103D01*
X192853762Y-54434811D01*
X193083752Y-54990057D01*
X193201000Y-55579501D01*
X193201000Y-56180499D01*
X193083752Y-56769943D01*
X192853762Y-57325189D01*
X192853761Y-57325190D01*
X192519866Y-57824899D01*
X192094899Y-58249866D01*
X191843347Y-58417948D01*
X191595189Y-58583762D01*
X191039943Y-58813752D01*
X190450499Y-58931000D01*
X189849501Y-58931000D01*
X189260057Y-58813752D01*
X188704811Y-58583762D01*
X188456653Y-58417948D01*
X188205101Y-58249866D01*
X187780134Y-57824899D01*
X187446239Y-57325190D01*
X187446238Y-57325189D01*
X187216248Y-56769943D01*
X187099000Y-56180499D01*
X187099000Y-55579501D01*
X187216248Y-54990057D01*
X187446238Y-54434811D01*
X187780133Y-53935103D01*
X187780134Y-53935101D01*
X188205101Y-53510134D01*
X188704810Y-53176239D01*
X188704811Y-53176238D01*
X189260057Y-52946248D01*
X189849501Y-52829000D01*
X190450499Y-52829000D01*
X191039943Y-52946248D01*
X191039943Y-52946248D01*
G37*
G36*
X208049943Y-50406248D02*
G01*
X208605189Y-50636238D01*
X208605190Y-50636239D01*
X209104899Y-50970134D01*
X209529866Y-51395101D01*
X209529867Y-51395103D01*
X209863762Y-51894811D01*
X210093752Y-52450057D01*
X210211000Y-53039501D01*
X210211000Y-53640499D01*
X210093752Y-54229943D01*
X209863762Y-54785189D01*
X209863761Y-54785190D01*
X209529866Y-55284899D01*
X209104899Y-55709866D01*
X208853347Y-55877948D01*
X208605189Y-56043762D01*
X208049943Y-56273752D01*
X207460499Y-56391000D01*
X206859501Y-56391000D01*
X206270057Y-56273752D01*
X205714811Y-56043762D01*
X205466653Y-55877948D01*
X205215101Y-55709866D01*
X204790134Y-55284899D01*
X204456239Y-54785190D01*
X204456238Y-54785189D01*
X204226248Y-54229943D01*
X204109000Y-53640499D01*
X204109000Y-53039501D01*
X204226248Y-52450057D01*
X204456238Y-51894811D01*
X204790133Y-51395103D01*
X204790134Y-51395101D01*
X205215101Y-50970134D01*
X205714810Y-50636239D01*
X205714811Y-50636238D01*
X206270057Y-50406248D01*
X206859501Y-50289000D01*
X207460499Y-50289000D01*
X208049943Y-50406248D01*
X208049943Y-50406248D01*
G37*
G36*
X220012585Y-53088802D02*
G01*
X220162410Y-53118604D01*
X220444674Y-53235521D01*
X220698705Y-53405259D01*
X220914741Y-53621295D01*
X221084479Y-53875326D01*
X221109238Y-53935101D01*
X221201396Y-54157591D01*
X221261000Y-54457239D01*
X221261000Y-54762761D01*
X221231198Y-54912585D01*
X221201396Y-55062410D01*
X221084479Y-55344674D01*
X220914741Y-55598705D01*
X220698705Y-55814741D01*
X220444674Y-55984479D01*
X220162410Y-56101396D01*
X220012585Y-56131198D01*
X219862761Y-56161000D01*
X219557239Y-56161000D01*
X219407415Y-56131198D01*
X219257590Y-56101396D01*
X218975326Y-55984479D01*
X218721295Y-55814741D01*
X218505259Y-55598705D01*
X218335521Y-55344674D01*
X218218604Y-55062410D01*
X218188802Y-54912585D01*
X218159000Y-54762761D01*
X218159000Y-54457239D01*
X218218604Y-54157591D01*
X218310762Y-53935101D01*
X218335521Y-53875326D01*
X218505259Y-53621295D01*
X218721295Y-53405259D01*
X218975326Y-53235521D01*
X219257590Y-53118604D01*
X219407415Y-53088802D01*
X219557239Y-53059000D01*
X219862761Y-53059000D01*
X220012585Y-53088802D01*
X220012585Y-53088802D01*
G37*
G36*
X191112865Y-37465855D02*
G01*
X191693227Y-37706249D01*
X191713610Y-37714692D01*
X192254265Y-38075946D01*
X192714054Y-38535735D01*
X192820540Y-38695103D01*
X193075309Y-39076392D01*
X193324145Y-39677135D01*
X193451000Y-40314879D01*
X193451000Y-40965121D01*
X193324145Y-41602865D01*
X193124360Y-42085189D01*
X193075308Y-42203610D01*
X192714054Y-42744265D01*
X192254265Y-43204054D01*
X191713610Y-43565308D01*
X191713609Y-43565309D01*
X191713608Y-43565309D01*
X191112865Y-43814145D01*
X190475121Y-43941000D01*
X189824879Y-43941000D01*
X189187135Y-43814145D01*
X188586392Y-43565309D01*
X188586391Y-43565309D01*
X188586390Y-43565308D01*
X188045735Y-43204054D01*
X187585946Y-42744265D01*
X187224692Y-42203610D01*
X187175640Y-42085189D01*
X186975855Y-41602865D01*
X186849000Y-40965121D01*
X186849000Y-40314879D01*
X186975855Y-39677135D01*
X187224691Y-39076392D01*
X187479460Y-38695103D01*
X187585946Y-38535735D01*
X188045735Y-38075946D01*
X188586390Y-37714692D01*
X188606773Y-37706249D01*
X189187135Y-37465855D01*
X189824879Y-37339000D01*
X190475121Y-37339000D01*
X191112865Y-37465855D01*
X191112865Y-37465855D01*
G37*
G36*
X225452865Y-37465855D02*
G01*
X226033227Y-37706249D01*
X226053610Y-37714692D01*
X226594265Y-38075946D01*
X227054054Y-38535735D01*
X227160540Y-38695103D01*
X227415309Y-39076392D01*
X227664145Y-39677135D01*
X227791000Y-40314879D01*
X227791000Y-40965121D01*
X227664145Y-41602865D01*
X227464360Y-42085189D01*
X227415308Y-42203610D01*
X227054054Y-42744265D01*
X226594265Y-43204054D01*
X226053610Y-43565308D01*
X226053609Y-43565309D01*
X226053608Y-43565309D01*
X225452865Y-43814145D01*
X224815121Y-43941000D01*
X224164879Y-43941000D01*
X223527135Y-43814145D01*
X222926392Y-43565309D01*
X222926391Y-43565309D01*
X222926390Y-43565308D01*
X222385735Y-43204054D01*
X221925946Y-42744265D01*
X221564692Y-42203610D01*
X221515640Y-42085189D01*
X221315855Y-41602865D01*
X221189000Y-40965121D01*
X221189000Y-40314879D01*
X221315855Y-39677135D01*
X221564691Y-39076392D01*
X221819460Y-38695103D01*
X221925946Y-38535735D01*
X222385735Y-38075946D01*
X222926390Y-37714692D01*
X222946773Y-37706249D01*
X223527135Y-37465855D01*
X224164879Y-37339000D01*
X224815121Y-37339000D01*
X225452865Y-37465855D01*
X225452865Y-37465855D01*
G37*
G36*
X208049943Y-37706248D02*
G01*
X208605189Y-37936238D01*
X208605190Y-37936239D01*
X209104899Y-38270134D01*
X209529866Y-38695101D01*
X209529867Y-38695103D01*
X209863762Y-39194811D01*
X210093752Y-39750057D01*
X210211000Y-40339501D01*
X210211000Y-40940499D01*
X210093752Y-41529943D01*
X209863762Y-42085189D01*
X209863761Y-42085190D01*
X209529866Y-42584899D01*
X209104899Y-43009866D01*
X208853347Y-43177948D01*
X208605189Y-43343762D01*
X208049943Y-43573752D01*
X207460499Y-43691000D01*
X206859501Y-43691000D01*
X206270057Y-43573752D01*
X205714811Y-43343762D01*
X205466653Y-43177948D01*
X205215101Y-43009866D01*
X204790134Y-42584899D01*
X204456239Y-42085190D01*
X204456238Y-42085189D01*
X204226248Y-41529943D01*
X204109000Y-40940499D01*
X204109000Y-40339501D01*
X204226248Y-39750057D01*
X204456238Y-39194811D01*
X204790133Y-38695103D01*
X204790134Y-38695101D01*
X205215101Y-38270134D01*
X205714810Y-37936239D01*
X205714811Y-37936238D01*
X206270057Y-37706248D01*
X206859501Y-37589000D01*
X207460499Y-37589000D01*
X208049943Y-37706248D01*
X208049943Y-37706248D01*
G37*
G36*
X187375256Y-25061298D02*
G01*
X187481579Y-25082447D01*
X187782042Y-25206903D01*
X188052451Y-25387585D01*
X188282415Y-25617549D01*
X188463097Y-25887958D01*
X188587553Y-26188421D01*
X188651000Y-26507391D01*
X188651000Y-26832609D01*
X188587553Y-27151579D01*
X188463097Y-27452042D01*
X188282415Y-27722451D01*
X188052451Y-27952415D01*
X187782042Y-28133097D01*
X187481579Y-28257553D01*
X187375256Y-28278702D01*
X187162611Y-28321000D01*
X186837389Y-28321000D01*
X186624744Y-28278702D01*
X186518421Y-28257553D01*
X186217958Y-28133097D01*
X185947549Y-27952415D01*
X185717585Y-27722451D01*
X185536903Y-27452042D01*
X185412447Y-27151579D01*
X185349000Y-26832609D01*
X185349000Y-26507391D01*
X185412447Y-26188421D01*
X185536903Y-25887958D01*
X185717585Y-25617549D01*
X185947549Y-25387585D01*
X186217958Y-25206903D01*
X186518421Y-25082447D01*
X186624744Y-25061298D01*
X186837389Y-25019000D01*
X187162611Y-25019000D01*
X187375256Y-25061298D01*
X187375256Y-25061298D01*
G37*
G36*
X242375256Y-25061298D02*
G01*
X242481579Y-25082447D01*
X242782042Y-25206903D01*
X243052451Y-25387585D01*
X243282415Y-25617549D01*
X243463097Y-25887958D01*
X243587553Y-26188421D01*
X243651000Y-26507391D01*
X243651000Y-26832609D01*
X243587553Y-27151579D01*
X243463097Y-27452042D01*
X243282415Y-27722451D01*
X243052451Y-27952415D01*
X242782042Y-28133097D01*
X242481579Y-28257553D01*
X242375256Y-28278702D01*
X242162611Y-28321000D01*
X241837389Y-28321000D01*
X241624744Y-28278702D01*
X241518421Y-28257553D01*
X241217958Y-28133097D01*
X240947549Y-27952415D01*
X240717585Y-27722451D01*
X240536903Y-27452042D01*
X240412447Y-27151579D01*
X240349000Y-26832609D01*
X240349000Y-26507391D01*
X240412447Y-26188421D01*
X240536903Y-25887958D01*
X240717585Y-25617549D01*
X240947549Y-25387585D01*
X241217958Y-25206903D01*
X241518421Y-25082447D01*
X241624744Y-25061298D01*
X241837389Y-25019000D01*
X242162611Y-25019000D01*
X242375256Y-25061298D01*
X242375256Y-25061298D01*
G37*
M02*
