G04 #@! TF.GenerationSoftware,KiCad,Pcbnew,(5.1.5)-3*
G04 #@! TF.CreationDate,2020-03-28T09:43:35+01:00*
G04 #@! TF.ProjectId,GridsNanoV3,47726964-734e-4616-9e6f-56332e6b6963,rev?*
G04 #@! TF.SameCoordinates,Original*
G04 #@! TF.FileFunction,Copper,L1,Top*
G04 #@! TF.FilePolarity,Positive*
%FSLAX46Y46*%
G04 Gerber Fmt 4.6, Leading zero omitted, Abs format (unit mm)*
G04 Created by KiCad (PCBNEW (5.1.5)-3) date 2020-03-28 09:43:35*
%MOMM*%
%LPD*%
G04 APERTURE LIST*
%ADD10C,1.600000*%
%ADD11O,1.400000X1.400000*%
%ADD12C,1.400000*%
%ADD13O,2.000000X1.905000*%
%ADD14R,2.000000X1.905000*%
%ADD15O,1.600000X1.600000*%
%ADD16R,1.600000X1.600000*%
%ADD17R,1.500000X1.500000*%
%ADD18C,1.500000*%
%ADD19O,1.700000X1.700000*%
%ADD20R,1.700000X1.700000*%
%ADD21O,1.500000X1.500000*%
%ADD22C,0.250000*%
G04 APERTURE END LIST*
D10*
X109260000Y-77470000D03*
X111760000Y-77470000D03*
D11*
X106680000Y-69850000D03*
D12*
X106680000Y-62230000D03*
D11*
X109220000Y-88900000D03*
D12*
X109220000Y-81280000D03*
D10*
X127000000Y-58420000D03*
X127000000Y-55920000D03*
D11*
X111760000Y-88900000D03*
D12*
X111760000Y-81280000D03*
D11*
X149860000Y-69850000D03*
D12*
X142240000Y-69850000D03*
D11*
X121920000Y-90170000D03*
D12*
X114300000Y-90170000D03*
D11*
X144780000Y-67310000D03*
D12*
X152400000Y-67310000D03*
D10*
X133310000Y-78740000D03*
X130810000Y-78740000D03*
D11*
X120650000Y-113030000D03*
D12*
X120650000Y-120650000D03*
D11*
X127000000Y-69850000D03*
D12*
X127000000Y-62230000D03*
D10*
X133310000Y-58420000D03*
X130810000Y-58420000D03*
X109220000Y-93980000D03*
X109220000Y-96480000D03*
D11*
X154940000Y-33020000D03*
D12*
X154940000Y-40640000D03*
D13*
X163830000Y-82550000D03*
X163830000Y-80010000D03*
D14*
X163830000Y-77470000D03*
D11*
X123190000Y-113030000D03*
D12*
X123190000Y-120650000D03*
D15*
X128270000Y-20320000D03*
D10*
X128270000Y-27940000D03*
D11*
X125730000Y-113030000D03*
D12*
X125730000Y-120650000D03*
D11*
X127000000Y-90170000D03*
D12*
X127000000Y-82550000D03*
D11*
X148590000Y-21590000D03*
D12*
X148590000Y-29210000D03*
D11*
X161290000Y-20320000D03*
D12*
X161290000Y-27940000D03*
D11*
X118110000Y-113030000D03*
D12*
X118110000Y-120650000D03*
D11*
X129540000Y-90170000D03*
D12*
X129540000Y-82550000D03*
D11*
X106680000Y-88900000D03*
D12*
X106680000Y-81280000D03*
D11*
X132080000Y-90170000D03*
D12*
X132080000Y-82550000D03*
D15*
X123190000Y-55880000D03*
X115570000Y-63500000D03*
X123190000Y-58420000D03*
X115570000Y-60960000D03*
X123190000Y-60960000D03*
X115570000Y-58420000D03*
X123190000Y-63500000D03*
D16*
X115570000Y-55880000D03*
D11*
X144780000Y-22860000D03*
D12*
X137160000Y-22860000D03*
D10*
X118110000Y-52070000D03*
X115610000Y-52070000D03*
D15*
X130810000Y-20320000D03*
D10*
X130810000Y-27940000D03*
D11*
X121920000Y-69850000D03*
D12*
X114300000Y-69850000D03*
D11*
X110490000Y-113030000D03*
D12*
X110490000Y-120650000D03*
D15*
X123190000Y-76200000D03*
X115570000Y-83820000D03*
X123190000Y-78740000D03*
X115570000Y-81280000D03*
X123190000Y-81280000D03*
X115570000Y-78740000D03*
X123190000Y-83820000D03*
D16*
X115570000Y-76200000D03*
D17*
X149860000Y-83820000D03*
D18*
X149860000Y-78740000D03*
X147320000Y-81280000D03*
D11*
X134620000Y-69850000D03*
D12*
X134620000Y-62230000D03*
D11*
X111760000Y-69850000D03*
D12*
X111760000Y-62230000D03*
D10*
X143510000Y-95290000D03*
D16*
X143510000Y-97790000D03*
D10*
X158790000Y-87630000D03*
X161290000Y-87630000D03*
D19*
X160020000Y-34290000D03*
X160020000Y-36830000D03*
D20*
X160020000Y-39370000D03*
D11*
X137160000Y-69850000D03*
D12*
X137160000Y-62230000D03*
D19*
X104140000Y-44400000D03*
X104140000Y-41860000D03*
X104140000Y-39320000D03*
X104140000Y-36780000D03*
X104140000Y-34240000D03*
X104140000Y-31700000D03*
X104140000Y-29160000D03*
X104140000Y-26620000D03*
X104140000Y-24080000D03*
D20*
X104140000Y-21540000D03*
D19*
X158750000Y-74930000D03*
X156210000Y-74930000D03*
X153670000Y-74930000D03*
X151130000Y-74930000D03*
X148590000Y-74930000D03*
X146050000Y-74930000D03*
X143510000Y-74930000D03*
X140970000Y-74930000D03*
X138430000Y-74930000D03*
X135890000Y-74930000D03*
X133350000Y-74930000D03*
D20*
X130810000Y-74930000D03*
D10*
X156210000Y-81320000D03*
D16*
X156210000Y-83820000D03*
D17*
X143510000Y-26670000D03*
D18*
X138430000Y-26670000D03*
X140970000Y-29210000D03*
D11*
X154940000Y-69850000D03*
D12*
X154940000Y-62230000D03*
D11*
X109220000Y-69850000D03*
D12*
X109220000Y-62230000D03*
D11*
X137160000Y-85090000D03*
D12*
X137160000Y-92710000D03*
D15*
X133350000Y-20320000D03*
D10*
X133350000Y-27940000D03*
D11*
X153670000Y-87630000D03*
D12*
X146050000Y-87630000D03*
D19*
X151130000Y-95250000D03*
X153670000Y-95250000D03*
X151130000Y-97790000D03*
X153670000Y-97790000D03*
X151130000Y-100330000D03*
X153670000Y-100330000D03*
X151130000Y-102870000D03*
X153670000Y-102870000D03*
X151130000Y-105410000D03*
D20*
X153670000Y-105410000D03*
D11*
X113030000Y-113030000D03*
D12*
X113030000Y-120650000D03*
D15*
X125730000Y-20320000D03*
D10*
X125730000Y-27940000D03*
D19*
X166370000Y-123190000D03*
X166370000Y-120650000D03*
X166370000Y-118110000D03*
X166370000Y-115570000D03*
X166370000Y-113030000D03*
X166370000Y-110490000D03*
X166370000Y-107950000D03*
X166370000Y-105410000D03*
X166370000Y-102870000D03*
D20*
X166370000Y-100330000D03*
D11*
X132080000Y-69850000D03*
D12*
X132080000Y-62230000D03*
D11*
X139700000Y-69850000D03*
D12*
X139700000Y-62230000D03*
D11*
X116840000Y-67310000D03*
D12*
X124460000Y-67310000D03*
D17*
X153670000Y-24130000D03*
D18*
X153670000Y-29210000D03*
X156210000Y-26670000D03*
D15*
X113030000Y-48260000D03*
X113030000Y-33020000D03*
X148590000Y-48260000D03*
X115570000Y-33020000D03*
X146050000Y-48260000D03*
X118110000Y-33020000D03*
X143510000Y-48260000D03*
X120650000Y-33020000D03*
X140970000Y-48260000D03*
X123190000Y-33020000D03*
X138430000Y-48260000D03*
X125730000Y-33020000D03*
X135890000Y-48260000D03*
X128270000Y-33020000D03*
X133350000Y-48260000D03*
X130810000Y-33020000D03*
X130810000Y-48260000D03*
X133350000Y-33020000D03*
X128270000Y-48260000D03*
X135890000Y-33020000D03*
X125730000Y-48260000D03*
X138430000Y-33020000D03*
X123190000Y-48260000D03*
X140970000Y-33020000D03*
X120650000Y-48260000D03*
X143510000Y-33020000D03*
X118110000Y-48260000D03*
X146050000Y-33020000D03*
X115570000Y-48260000D03*
D16*
X148590000Y-33020000D03*
D10*
X140970000Y-83780000D03*
D16*
X140970000Y-81280000D03*
D15*
X151130000Y-55880000D03*
X143510000Y-63500000D03*
X151130000Y-58420000D03*
X143510000Y-60960000D03*
X151130000Y-60960000D03*
X143510000Y-58420000D03*
X151130000Y-63500000D03*
D16*
X143510000Y-55880000D03*
D10*
X109260000Y-58420000D03*
X111760000Y-58420000D03*
X143510000Y-102910000D03*
D16*
X143510000Y-105410000D03*
D15*
X113030000Y-96520000D03*
X130810000Y-104140000D03*
X115570000Y-96520000D03*
X128270000Y-104140000D03*
X118110000Y-96520000D03*
X125730000Y-104140000D03*
X120650000Y-96520000D03*
X123190000Y-104140000D03*
X123190000Y-96520000D03*
X120650000Y-104140000D03*
X125730000Y-96520000D03*
X118110000Y-104140000D03*
X128270000Y-96520000D03*
X115570000Y-104140000D03*
X130810000Y-96520000D03*
D16*
X113030000Y-104140000D03*
D21*
X146050000Y-90170000D03*
D17*
X153670000Y-90170000D03*
D11*
X158750000Y-20320000D03*
D12*
X158750000Y-27940000D03*
D10*
X127000000Y-78700000D03*
X127000000Y-76200000D03*
D11*
X116840000Y-87630000D03*
D12*
X124460000Y-87630000D03*
D11*
X146050000Y-113030000D03*
D12*
X153670000Y-113030000D03*
D10*
X161290000Y-58420000D03*
X158790000Y-58420000D03*
D11*
X128270000Y-113030000D03*
D12*
X128270000Y-120650000D03*
D11*
X129540000Y-69850000D03*
D12*
X129540000Y-62230000D03*
D10*
X137200000Y-58420000D03*
X139700000Y-58420000D03*
D21*
X153670000Y-110490000D03*
D17*
X146050000Y-110490000D03*
D11*
X137160000Y-20320000D03*
D12*
X144780000Y-20320000D03*
D11*
X115570000Y-113030000D03*
D12*
X115570000Y-120650000D03*
D11*
X157480000Y-69850000D03*
D12*
X157480000Y-62230000D03*
D11*
X160020000Y-69850000D03*
D12*
X160020000Y-62230000D03*
D10*
X154940000Y-58420000D03*
X154940000Y-55920000D03*
D22*
X111810000Y-52070000D02*
X105460000Y-45720000D01*
X114300000Y-53380000D02*
X114300000Y-59690000D01*
X157480000Y-36830000D02*
X159170001Y-35139999D01*
X115610000Y-52070000D02*
X111810000Y-52070000D01*
X149860000Y-123190000D02*
X166370000Y-123190000D01*
X154940000Y-58420000D02*
X157480000Y-55880000D01*
X119524999Y-95394999D02*
X110634999Y-95394999D01*
X127000000Y-59690000D02*
X127000000Y-58420000D01*
X123190000Y-83820000D02*
X140930000Y-83820000D01*
X120650000Y-96520000D02*
X119524999Y-95394999D01*
X123190000Y-99060000D02*
X120650000Y-96520000D01*
X114300000Y-59690000D02*
X115570000Y-60960000D01*
X123989999Y-64299999D02*
X123190000Y-63500000D01*
X159170001Y-35139999D02*
X160020000Y-34290000D01*
X125485001Y-77185001D02*
X125485001Y-65795001D01*
X158790000Y-87630000D02*
X158790000Y-83900000D01*
X110019999Y-94779999D02*
X109220000Y-93980000D01*
X140930000Y-83820000D02*
X140970000Y-83780000D01*
X123190000Y-63500000D02*
X127000000Y-59690000D01*
X130810000Y-104140000D02*
X125730000Y-99060000D01*
X115610000Y-52070000D02*
X114300000Y-53380000D01*
X158750000Y-82550000D02*
X157520000Y-81320000D01*
X156210000Y-81320000D02*
X157520000Y-80010000D01*
X125485001Y-65795001D02*
X123989999Y-64299999D01*
X127000000Y-78700000D02*
X125485001Y-77185001D01*
X130810000Y-104140000D02*
X149860000Y-123190000D01*
X157480000Y-55880000D02*
X157480000Y-36830000D01*
X147360000Y-81320000D02*
X147320000Y-81280000D01*
X153670000Y-97790000D02*
X156210000Y-97790000D01*
X158790000Y-83900000D02*
X158750000Y-83860000D01*
X125730000Y-99060000D02*
X123190000Y-99060000D01*
X105460000Y-45720000D02*
X104140000Y-44400000D01*
X157520000Y-80010000D02*
X163830000Y-80010000D01*
X158790000Y-95210000D02*
X158790000Y-87630000D01*
X156210000Y-97790000D02*
X158790000Y-95210000D01*
X158750000Y-83860000D02*
X158750000Y-82550000D01*
X110634999Y-95394999D02*
X110019999Y-94779999D01*
X157520000Y-81320000D02*
X156210000Y-81320000D01*
X102964999Y-42424001D02*
X102964999Y-35415001D01*
X133800009Y-46170009D02*
X107649011Y-46170009D01*
X102964999Y-35415001D02*
X103290001Y-35089999D01*
X135890000Y-48260000D02*
X133800009Y-46170009D01*
X107649011Y-46170009D02*
X104514003Y-43035001D01*
X104514003Y-43035001D02*
X103575999Y-43035001D01*
X103290001Y-35089999D02*
X104140000Y-34240000D01*
X103575999Y-43035001D02*
X102964999Y-42424001D01*
X157990001Y-59219999D02*
X158790000Y-58420000D01*
X157520000Y-59690000D02*
X157990001Y-59219999D01*
X152400000Y-59690000D02*
X157520000Y-59690000D01*
X151130000Y-58420000D02*
X152400000Y-59690000D01*
X143510000Y-55880000D02*
X142240000Y-55880000D01*
X140970000Y-59690000D02*
X140499999Y-59219999D01*
X140970000Y-68580000D02*
X140970000Y-59690000D01*
X142240000Y-69850000D02*
X140970000Y-68580000D01*
X140499999Y-59219999D02*
X139700000Y-58420000D01*
X142240000Y-55880000D02*
X139700000Y-58420000D01*
X124460000Y-80010000D02*
X129540000Y-80010000D01*
X122390001Y-77940001D02*
X123190000Y-78740000D01*
X130010001Y-79539999D02*
X130810000Y-78740000D01*
X128270000Y-48260000D02*
X119830010Y-56699990D01*
X129540000Y-80010000D02*
X130010001Y-79539999D01*
X119830010Y-75380010D02*
X122390001Y-77940001D01*
X119830010Y-56699990D02*
X119830010Y-75380010D01*
X123190000Y-78740000D02*
X124460000Y-80010000D01*
X135090001Y-33819999D02*
X135890000Y-33020000D01*
X107900000Y-35560000D02*
X133350000Y-35560000D01*
X133350000Y-35560000D02*
X135090001Y-33819999D01*
X104140000Y-39320000D02*
X107900000Y-35560000D01*
X113030000Y-76200000D02*
X111760000Y-77470000D01*
X111760000Y-77470000D02*
X114300000Y-80010000D01*
X114300000Y-80010000D02*
X114300000Y-90170000D01*
X119380000Y-71340000D02*
X115570000Y-75150000D01*
X119380000Y-56275002D02*
X119380000Y-71340000D01*
X115570000Y-76200000D02*
X113030000Y-76200000D01*
X125730000Y-49925002D02*
X119380000Y-56275002D01*
X115570000Y-75150000D02*
X115570000Y-76200000D01*
X125730000Y-48260000D02*
X125730000Y-49925002D01*
X123190000Y-58420000D02*
X121920000Y-59690000D01*
X121920000Y-59690000D02*
X121920000Y-64770000D01*
X121920000Y-64770000D02*
X123760001Y-66610001D01*
X123760001Y-66610001D02*
X124460000Y-67310000D01*
X114300000Y-68860051D02*
X114300000Y-69850000D01*
X111760000Y-59551370D02*
X114300000Y-62091370D01*
X114300000Y-62091370D02*
X114300000Y-68860051D01*
X111760000Y-58420000D02*
X111760000Y-59551370D01*
X123190000Y-81280000D02*
X116840000Y-87630000D01*
X125730000Y-81280000D02*
X127000000Y-82550000D01*
X124460000Y-81280000D02*
X125730000Y-81280000D01*
X124460000Y-81280000D02*
X123190000Y-81280000D01*
X151130000Y-60960000D02*
X153670000Y-60960000D01*
X153670000Y-60960000D02*
X154940000Y-62230000D01*
X151130000Y-60960000D02*
X144780000Y-67310000D01*
X142240000Y-67310000D02*
X142240000Y-66040000D01*
X142240000Y-66287002D02*
X142240000Y-66040000D01*
X144780000Y-69850000D02*
X142240000Y-67310000D01*
X142240000Y-66040000D02*
X142240000Y-59690000D01*
X142240000Y-59690000D02*
X143510000Y-58420000D01*
X149860000Y-69850000D02*
X144780000Y-69850000D01*
X149650001Y-93735001D02*
X111515001Y-93735001D01*
X158750000Y-74930000D02*
X158750000Y-77015002D01*
X152400000Y-90985002D02*
X149650001Y-93735001D01*
X111515001Y-93735001D02*
X106680000Y-88900000D01*
X158750000Y-77015002D02*
X152400000Y-83365002D01*
X152400000Y-83365002D02*
X152400000Y-90985002D01*
X151949990Y-86810010D02*
X151949990Y-79190010D01*
X155360001Y-75779999D02*
X156210000Y-74930000D01*
X109220000Y-88900000D02*
X111565001Y-91245001D01*
X147514999Y-91245001D02*
X151949990Y-86810010D01*
X111565001Y-91245001D02*
X147514999Y-91245001D01*
X151949990Y-79190010D02*
X155360001Y-75779999D01*
X148590000Y-29210000D02*
X140970000Y-29210000D01*
X140970000Y-26670000D02*
X137160000Y-22860000D01*
X140970000Y-29210000D02*
X140970000Y-26670000D01*
X110490000Y-101600000D02*
X110490000Y-113030000D01*
X115570000Y-96520000D02*
X110490000Y-101600000D01*
X161290000Y-87630000D02*
X161290000Y-100075002D01*
X161290000Y-115570000D02*
X161290000Y-113030000D01*
X163830000Y-36660000D02*
X161120000Y-39370000D01*
X120650000Y-73660000D02*
X122390001Y-75400001D01*
X108000000Y-45720000D02*
X146050000Y-45720000D01*
X146050000Y-19050000D02*
X161537002Y-19050000D01*
X140930000Y-55920000D02*
X147790001Y-49059999D01*
X161120000Y-39370000D02*
X160020000Y-39370000D01*
X144780000Y-20320000D02*
X146050000Y-19050000D01*
X161290000Y-100075002D02*
X153415002Y-107950000D01*
X163830000Y-72390000D02*
X166370000Y-74930000D01*
X163830000Y-21342998D02*
X163830000Y-36660000D01*
X166370000Y-80010000D02*
X163830000Y-82550000D01*
X153415002Y-107950000D02*
X139700000Y-107950000D01*
X146050000Y-45720000D02*
X148590000Y-48260000D01*
X122390001Y-75400001D02*
X123190000Y-76200000D01*
X161537002Y-19050000D02*
X163830000Y-21342998D01*
X161290000Y-113030000D02*
X161290000Y-87630000D01*
X120650000Y-58420000D02*
X120650000Y-73660000D01*
X166370000Y-120650000D02*
X161290000Y-115570000D01*
X147790001Y-49059999D02*
X148590000Y-48260000D01*
X123190000Y-55880000D02*
X120650000Y-58420000D01*
X154940000Y-40640000D02*
X154940000Y-41910000D01*
X139700000Y-107950000D02*
X128270000Y-96520000D01*
X104140000Y-41860000D02*
X108000000Y-45720000D01*
X166370000Y-74930000D02*
X166370000Y-80010000D01*
X154940000Y-41910000D02*
X148590000Y-48260000D01*
X127000000Y-76200000D02*
X130810000Y-72390000D01*
X127000000Y-55920000D02*
X140930000Y-55920000D01*
X130810000Y-72390000D02*
X163830000Y-72390000D01*
M02*
