G04 #@! TF.GenerationSoftware,KiCad,Pcbnew,(5.1.6)-1*
G04 #@! TF.CreationDate,2021-07-28T13:55:04+02:00*
G04 #@! TF.ProjectId,GridsNanoV3,47726964-734e-4616-9e6f-56332e6b6963,rev?*
G04 #@! TF.SameCoordinates,Original*
G04 #@! TF.FileFunction,Legend,Bot*
G04 #@! TF.FilePolarity,Positive*
%FSLAX46Y46*%
G04 Gerber Fmt 4.6, Leading zero omitted, Abs format (unit mm)*
G04 Created by KiCad (PCBNEW (5.1.6)-1) date 2021-07-28 13:55:04*
%MOMM*%
%LPD*%
G01*
G04 APERTURE LIST*
%ADD10C,0.120000*%
%ADD11C,0.150000*%
G04 APERTURE END LIST*
D10*
X132080000Y-73600000D02*
X132080000Y-76260000D01*
X132080000Y-73600000D02*
X160080000Y-73600000D01*
X160080000Y-73600000D02*
X160080000Y-76260000D01*
X132080000Y-76260000D02*
X160080000Y-76260000D01*
X129480000Y-76260000D02*
X130810000Y-76260000D01*
X129480000Y-74930000D02*
X129480000Y-76260000D01*
X167700000Y-101600000D02*
X165040000Y-101600000D01*
X167700000Y-101600000D02*
X167700000Y-124520000D01*
X167700000Y-124520000D02*
X165040000Y-124520000D01*
X165040000Y-101600000D02*
X165040000Y-124520000D01*
X165040000Y-99000000D02*
X165040000Y-100330000D01*
X166370000Y-99000000D02*
X165040000Y-99000000D01*
X105470000Y-22810000D02*
X102810000Y-22810000D01*
X105470000Y-22810000D02*
X105470000Y-45730000D01*
X105470000Y-45730000D02*
X102810000Y-45730000D01*
X102810000Y-22810000D02*
X102810000Y-45730000D01*
X102810000Y-20210000D02*
X102810000Y-21540000D01*
X104140000Y-20210000D02*
X102810000Y-20210000D01*
D11*
X127492380Y-74120476D02*
X128206666Y-74120476D01*
X128349523Y-74072857D01*
X128444761Y-73977619D01*
X128492380Y-73834761D01*
X128492380Y-73739523D01*
X128492380Y-75120476D02*
X128492380Y-74549047D01*
X128492380Y-74834761D02*
X127492380Y-74834761D01*
X127635238Y-74739523D01*
X127730476Y-74644285D01*
X127778095Y-74549047D01*
X127492380Y-75739523D02*
X127492380Y-75834761D01*
X127540000Y-75930000D01*
X127587619Y-75977619D01*
X127682857Y-76025238D01*
X127873333Y-76072857D01*
X128111428Y-76072857D01*
X128301904Y-76025238D01*
X128397142Y-75977619D01*
X128444761Y-75930000D01*
X128492380Y-75834761D01*
X128492380Y-75739523D01*
X128444761Y-75644285D01*
X128397142Y-75596666D01*
X128301904Y-75549047D01*
X128111428Y-75501428D01*
X127873333Y-75501428D01*
X127682857Y-75549047D01*
X127587619Y-75596666D01*
X127540000Y-75644285D01*
X127492380Y-75739523D01*
X166703333Y-97012380D02*
X166703333Y-97726666D01*
X166750952Y-97869523D01*
X166846190Y-97964761D01*
X166989047Y-98012380D01*
X167084285Y-98012380D01*
X166322380Y-97012380D02*
X165655714Y-97012380D01*
X166084285Y-98012380D01*
X104949523Y-18222380D02*
X104949523Y-18936666D01*
X104997142Y-19079523D01*
X105092380Y-19174761D01*
X105235238Y-19222380D01*
X105330476Y-19222380D01*
X103949523Y-19222380D02*
X104520952Y-19222380D01*
X104235238Y-19222380D02*
X104235238Y-18222380D01*
X104330476Y-18365238D01*
X104425714Y-18460476D01*
X104520952Y-18508095D01*
X103616190Y-18222380D02*
X102997142Y-18222380D01*
X103330476Y-18603333D01*
X103187619Y-18603333D01*
X103092380Y-18650952D01*
X103044761Y-18698571D01*
X102997142Y-18793809D01*
X102997142Y-19031904D01*
X103044761Y-19127142D01*
X103092380Y-19174761D01*
X103187619Y-19222380D01*
X103473333Y-19222380D01*
X103568571Y-19174761D01*
X103616190Y-19127142D01*
M02*
