M48
; DRILL file {KiCad (5.1.5)-3} date 28-3-2020 09:43:43
; FORMAT={-:-/ absolute / inch / decimal}
; #@! TF.CreationDate,2020-03-28T09:43:43+01:00
; #@! TF.GenerationSoftware,Kicad,Pcbnew,(5.1.5)-3
; #@! TF.FileFunction,Plated,1,2,PTH
FMAT,2
INCH
T1C0.0276
T2C0.0295
T3C0.0315
T4C0.0394
T5C0.0433
%
G90
G05
T1
X5.7Y-2.65
X6.0Y-2.65
X4.4Y-3.2
X4.4Y-3.5
X5.4Y-2.45
X5.4Y-2.75
X4.2Y-3.2
X4.2Y-3.5
X4.45Y-4.45
X4.45Y-4.75
X4.5Y-3.55
X4.8Y-3.55
X6.25Y-0.8
X6.25Y-1.1
X5.1Y-3.25
X5.1Y-3.55
X4.6Y-2.65
X4.9Y-2.65
X4.85Y-4.45
X4.85Y-4.75
X5.6Y-2.75
X5.9Y-2.75
X4.3Y-3.2
X4.3Y-3.5
X5.1Y-2.45
X5.1Y-2.75
X4.65Y-4.45
X4.65Y-4.75
X5.5Y-2.45
X5.5Y-2.75
X5.75Y-3.45
X6.05Y-3.45
X5.0Y-2.45
X5.0Y-2.75
X4.2Y-2.45
X4.2Y-2.75
X6.3Y-2.45
X6.3Y-2.75
X5.05Y-4.45
X5.05Y-4.75
X6.35Y-0.8
X6.35Y-1.1
X6.1Y-1.3
X6.1Y-1.6
X4.75Y-4.45
X4.75Y-4.75
X4.4Y-2.45
X4.4Y-2.75
X6.2Y-2.45
X6.2Y-2.75
X4.35Y-4.45
X4.35Y-4.75
X5.4Y-0.9
X5.7Y-0.9
X5.85Y-0.85
X5.85Y-1.15
X5.2Y-2.45
X5.2Y-2.75
X5.4Y-3.35
X5.4Y-3.65
X5.3Y-2.45
X5.3Y-2.75
X4.55Y-4.45
X4.55Y-4.75
X4.5Y-2.75
X4.8Y-2.75
X5.75Y-4.45
X6.05Y-4.45
X5.0Y-3.25
X5.0Y-3.55
X4.3Y-2.45
X4.3Y-2.75
X5.4Y-0.8
X5.7Y-0.8
X4.6Y-3.45
X4.9Y-3.45
X5.2Y-3.25
X5.2Y-3.55
X4.95Y-4.45
X4.95Y-4.75
X6.1Y-2.45
X6.1Y-2.75
T2
X5.75Y-4.35
X6.05Y-4.35
X5.75Y-3.55
X6.05Y-3.55
T3
X5.0Y-3.0
X5.0Y-3.0984
X6.05Y-0.95
X6.05Y-1.15
X6.15Y-1.05
X5.05Y-0.8
X5.05Y-1.1
X5.45Y-1.05
X5.55Y-1.15
X5.65Y-1.05
X5.0Y-2.2016
X5.0Y-2.3
X5.4016Y-2.3
X5.5Y-2.3
X6.15Y-3.2016
X6.15Y-3.3
X6.2516Y-3.45
X6.35Y-3.45
X6.1Y-2.2016
X6.1Y-2.3
X5.8Y-3.2
X5.9Y-3.1
X5.9Y-3.3
X5.15Y-0.8
X5.15Y-1.1
X5.65Y-3.7516
X5.65Y-3.85
X4.55Y-3.0
X4.55Y-3.1
X4.55Y-3.2
X4.55Y-3.3
X4.85Y-3.0
X4.85Y-3.1
X4.85Y-3.2
X4.85Y-3.3
X4.5516Y-2.05
X4.65Y-2.05
X4.45Y-3.8
X4.45Y-4.1
X4.55Y-3.8
X4.55Y-4.1
X4.65Y-3.8
X4.65Y-4.1
X4.75Y-3.8
X4.75Y-4.1
X4.85Y-3.8
X4.85Y-4.1
X4.95Y-3.8
X4.95Y-4.1
X5.05Y-3.8
X5.05Y-4.1
X5.15Y-3.8
X5.15Y-4.1
X5.25Y-0.8
X5.25Y-1.1
X6.2516Y-2.3
X6.35Y-2.3
X5.65Y-2.2
X5.65Y-2.3
X5.65Y-2.4
X5.65Y-2.5
X5.95Y-2.2
X5.95Y-2.3
X5.95Y-2.4
X5.95Y-2.5
X5.65Y-4.0516
X5.65Y-4.15
X4.3Y-3.7
X4.3Y-3.7984
X5.15Y-3.1
X5.2484Y-3.1
X4.3016Y-3.05
X4.4Y-3.05
X4.55Y-2.2
X4.55Y-2.3
X4.55Y-2.4
X4.55Y-2.5
X4.85Y-2.2
X4.85Y-2.3
X4.85Y-2.4
X4.85Y-2.5
X5.55Y-3.2
X5.55Y-3.2984
X4.3016Y-2.3
X4.4Y-2.3
X5.15Y-2.3
X5.2484Y-2.3
X4.45Y-1.3
X4.45Y-1.9
X4.55Y-1.3
X4.55Y-1.9
X4.65Y-1.3
X4.65Y-1.9
X4.75Y-1.3
X4.75Y-1.9
X4.85Y-1.3
X4.85Y-1.9
X4.95Y-1.3
X4.95Y-1.9
X5.05Y-1.3
X5.05Y-1.9
X5.15Y-1.3
X5.15Y-1.9
X5.25Y-1.3
X5.25Y-1.9
X5.35Y-1.3
X5.35Y-1.9
X5.45Y-1.3
X5.45Y-1.9
X5.55Y-1.3
X5.55Y-1.9
X5.65Y-1.3
X5.65Y-1.9
X5.75Y-1.3
X5.75Y-1.9
X5.85Y-1.3
X5.85Y-1.9
X4.95Y-0.8
X4.95Y-1.1
T4
X6.55Y-3.95
X6.55Y-4.05
X6.55Y-4.15
X6.55Y-4.25
X6.55Y-4.35
X6.55Y-4.45
X6.55Y-4.55
X6.55Y-4.65
X6.55Y-4.75
X6.55Y-4.85
X4.1Y-0.848
X4.1Y-0.948
X4.1Y-1.048
X4.1Y-1.148
X4.1Y-1.248
X4.1Y-1.348
X4.1Y-1.448
X4.1Y-1.548
X4.1Y-1.648
X4.1Y-1.748
X6.3Y-1.35
X6.3Y-1.45
X6.3Y-1.55
X5.95Y-3.75
X5.95Y-3.85
X5.95Y-3.95
X5.95Y-4.05
X5.95Y-4.15
X6.05Y-3.75
X6.05Y-3.85
X6.05Y-3.95
X6.05Y-4.05
X6.05Y-4.15
X5.15Y-2.95
X5.25Y-2.95
X5.35Y-2.95
X5.45Y-2.95
X5.55Y-2.95
X5.65Y-2.95
X5.75Y-2.95
X5.85Y-2.95
X5.95Y-2.95
X6.05Y-2.95
X6.15Y-2.95
X6.25Y-2.95
T5
X6.45Y-3.05
X6.45Y-3.15
X6.45Y-3.25
T0
M30
