G04 #@! TF.GenerationSoftware,KiCad,Pcbnew,(5.1.5)-3*
G04 #@! TF.CreationDate,2020-03-28T09:43:35+01:00*
G04 #@! TF.ProjectId,GridsNanoV3,47726964-734e-4616-9e6f-56332e6b6963,rev?*
G04 #@! TF.SameCoordinates,Original*
G04 #@! TF.FileFunction,Copper,L2,Bot*
G04 #@! TF.FilePolarity,Positive*
%FSLAX46Y46*%
G04 Gerber Fmt 4.6, Leading zero omitted, Abs format (unit mm)*
G04 Created by KiCad (PCBNEW (5.1.5)-3) date 2020-03-28 09:43:35*
%MOMM*%
%LPD*%
G04 APERTURE LIST*
%ADD10C,1.600000*%
%ADD11O,1.400000X1.400000*%
%ADD12C,1.400000*%
%ADD13O,2.000000X1.905000*%
%ADD14R,2.000000X1.905000*%
%ADD15O,1.600000X1.600000*%
%ADD16R,1.600000X1.600000*%
%ADD17R,1.500000X1.500000*%
%ADD18C,1.500000*%
%ADD19O,1.700000X1.700000*%
%ADD20R,1.700000X1.700000*%
%ADD21O,1.500000X1.500000*%
%ADD22C,0.250000*%
G04 APERTURE END LIST*
D10*
X109260000Y-77470000D03*
X111760000Y-77470000D03*
D11*
X106680000Y-69850000D03*
D12*
X106680000Y-62230000D03*
D11*
X109220000Y-88900000D03*
D12*
X109220000Y-81280000D03*
D10*
X127000000Y-58420000D03*
X127000000Y-55920000D03*
D11*
X111760000Y-88900000D03*
D12*
X111760000Y-81280000D03*
D11*
X149860000Y-69850000D03*
D12*
X142240000Y-69850000D03*
D11*
X121920000Y-90170000D03*
D12*
X114300000Y-90170000D03*
D11*
X144780000Y-67310000D03*
D12*
X152400000Y-67310000D03*
D10*
X133310000Y-78740000D03*
X130810000Y-78740000D03*
D11*
X120650000Y-113030000D03*
D12*
X120650000Y-120650000D03*
D11*
X127000000Y-69850000D03*
D12*
X127000000Y-62230000D03*
D10*
X133310000Y-58420000D03*
X130810000Y-58420000D03*
X109220000Y-93980000D03*
X109220000Y-96480000D03*
D11*
X154940000Y-33020000D03*
D12*
X154940000Y-40640000D03*
D13*
X163830000Y-82550000D03*
X163830000Y-80010000D03*
D14*
X163830000Y-77470000D03*
D11*
X123190000Y-113030000D03*
D12*
X123190000Y-120650000D03*
D15*
X128270000Y-20320000D03*
D10*
X128270000Y-27940000D03*
D11*
X125730000Y-113030000D03*
D12*
X125730000Y-120650000D03*
D11*
X127000000Y-90170000D03*
D12*
X127000000Y-82550000D03*
D11*
X148590000Y-21590000D03*
D12*
X148590000Y-29210000D03*
D11*
X161290000Y-20320000D03*
D12*
X161290000Y-27940000D03*
D11*
X118110000Y-113030000D03*
D12*
X118110000Y-120650000D03*
D11*
X129540000Y-90170000D03*
D12*
X129540000Y-82550000D03*
D11*
X106680000Y-88900000D03*
D12*
X106680000Y-81280000D03*
D11*
X132080000Y-90170000D03*
D12*
X132080000Y-82550000D03*
D15*
X123190000Y-55880000D03*
X115570000Y-63500000D03*
X123190000Y-58420000D03*
X115570000Y-60960000D03*
X123190000Y-60960000D03*
X115570000Y-58420000D03*
X123190000Y-63500000D03*
D16*
X115570000Y-55880000D03*
D11*
X144780000Y-22860000D03*
D12*
X137160000Y-22860000D03*
D10*
X118110000Y-52070000D03*
X115610000Y-52070000D03*
D15*
X130810000Y-20320000D03*
D10*
X130810000Y-27940000D03*
D11*
X121920000Y-69850000D03*
D12*
X114300000Y-69850000D03*
D11*
X110490000Y-113030000D03*
D12*
X110490000Y-120650000D03*
D15*
X123190000Y-76200000D03*
X115570000Y-83820000D03*
X123190000Y-78740000D03*
X115570000Y-81280000D03*
X123190000Y-81280000D03*
X115570000Y-78740000D03*
X123190000Y-83820000D03*
D16*
X115570000Y-76200000D03*
D17*
X149860000Y-83820000D03*
D18*
X149860000Y-78740000D03*
X147320000Y-81280000D03*
D11*
X134620000Y-69850000D03*
D12*
X134620000Y-62230000D03*
D11*
X111760000Y-69850000D03*
D12*
X111760000Y-62230000D03*
D10*
X143510000Y-95290000D03*
D16*
X143510000Y-97790000D03*
D10*
X158790000Y-87630000D03*
X161290000Y-87630000D03*
D19*
X160020000Y-34290000D03*
X160020000Y-36830000D03*
D20*
X160020000Y-39370000D03*
D11*
X137160000Y-69850000D03*
D12*
X137160000Y-62230000D03*
D19*
X104140000Y-44400000D03*
X104140000Y-41860000D03*
X104140000Y-39320000D03*
X104140000Y-36780000D03*
X104140000Y-34240000D03*
X104140000Y-31700000D03*
X104140000Y-29160000D03*
X104140000Y-26620000D03*
X104140000Y-24080000D03*
D20*
X104140000Y-21540000D03*
D19*
X158750000Y-74930000D03*
X156210000Y-74930000D03*
X153670000Y-74930000D03*
X151130000Y-74930000D03*
X148590000Y-74930000D03*
X146050000Y-74930000D03*
X143510000Y-74930000D03*
X140970000Y-74930000D03*
X138430000Y-74930000D03*
X135890000Y-74930000D03*
X133350000Y-74930000D03*
D20*
X130810000Y-74930000D03*
D10*
X156210000Y-81320000D03*
D16*
X156210000Y-83820000D03*
D17*
X143510000Y-26670000D03*
D18*
X138430000Y-26670000D03*
X140970000Y-29210000D03*
D11*
X154940000Y-69850000D03*
D12*
X154940000Y-62230000D03*
D11*
X109220000Y-69850000D03*
D12*
X109220000Y-62230000D03*
D11*
X137160000Y-85090000D03*
D12*
X137160000Y-92710000D03*
D15*
X133350000Y-20320000D03*
D10*
X133350000Y-27940000D03*
D11*
X153670000Y-87630000D03*
D12*
X146050000Y-87630000D03*
D19*
X151130000Y-95250000D03*
X153670000Y-95250000D03*
X151130000Y-97790000D03*
X153670000Y-97790000D03*
X151130000Y-100330000D03*
X153670000Y-100330000D03*
X151130000Y-102870000D03*
X153670000Y-102870000D03*
X151130000Y-105410000D03*
D20*
X153670000Y-105410000D03*
D11*
X113030000Y-113030000D03*
D12*
X113030000Y-120650000D03*
D15*
X125730000Y-20320000D03*
D10*
X125730000Y-27940000D03*
D19*
X166370000Y-123190000D03*
X166370000Y-120650000D03*
X166370000Y-118110000D03*
X166370000Y-115570000D03*
X166370000Y-113030000D03*
X166370000Y-110490000D03*
X166370000Y-107950000D03*
X166370000Y-105410000D03*
X166370000Y-102870000D03*
D20*
X166370000Y-100330000D03*
D11*
X132080000Y-69850000D03*
D12*
X132080000Y-62230000D03*
D11*
X139700000Y-69850000D03*
D12*
X139700000Y-62230000D03*
D11*
X116840000Y-67310000D03*
D12*
X124460000Y-67310000D03*
D17*
X153670000Y-24130000D03*
D18*
X153670000Y-29210000D03*
X156210000Y-26670000D03*
D15*
X113030000Y-48260000D03*
X113030000Y-33020000D03*
X148590000Y-48260000D03*
X115570000Y-33020000D03*
X146050000Y-48260000D03*
X118110000Y-33020000D03*
X143510000Y-48260000D03*
X120650000Y-33020000D03*
X140970000Y-48260000D03*
X123190000Y-33020000D03*
X138430000Y-48260000D03*
X125730000Y-33020000D03*
X135890000Y-48260000D03*
X128270000Y-33020000D03*
X133350000Y-48260000D03*
X130810000Y-33020000D03*
X130810000Y-48260000D03*
X133350000Y-33020000D03*
X128270000Y-48260000D03*
X135890000Y-33020000D03*
X125730000Y-48260000D03*
X138430000Y-33020000D03*
X123190000Y-48260000D03*
X140970000Y-33020000D03*
X120650000Y-48260000D03*
X143510000Y-33020000D03*
X118110000Y-48260000D03*
X146050000Y-33020000D03*
X115570000Y-48260000D03*
D16*
X148590000Y-33020000D03*
D10*
X140970000Y-83780000D03*
D16*
X140970000Y-81280000D03*
D15*
X151130000Y-55880000D03*
X143510000Y-63500000D03*
X151130000Y-58420000D03*
X143510000Y-60960000D03*
X151130000Y-60960000D03*
X143510000Y-58420000D03*
X151130000Y-63500000D03*
D16*
X143510000Y-55880000D03*
D10*
X109260000Y-58420000D03*
X111760000Y-58420000D03*
X143510000Y-102910000D03*
D16*
X143510000Y-105410000D03*
D15*
X113030000Y-96520000D03*
X130810000Y-104140000D03*
X115570000Y-96520000D03*
X128270000Y-104140000D03*
X118110000Y-96520000D03*
X125730000Y-104140000D03*
X120650000Y-96520000D03*
X123190000Y-104140000D03*
X123190000Y-96520000D03*
X120650000Y-104140000D03*
X125730000Y-96520000D03*
X118110000Y-104140000D03*
X128270000Y-96520000D03*
X115570000Y-104140000D03*
X130810000Y-96520000D03*
D16*
X113030000Y-104140000D03*
D21*
X146050000Y-90170000D03*
D17*
X153670000Y-90170000D03*
D11*
X158750000Y-20320000D03*
D12*
X158750000Y-27940000D03*
D10*
X127000000Y-78700000D03*
X127000000Y-76200000D03*
D11*
X116840000Y-87630000D03*
D12*
X124460000Y-87630000D03*
D11*
X146050000Y-113030000D03*
D12*
X153670000Y-113030000D03*
D10*
X161290000Y-58420000D03*
X158790000Y-58420000D03*
D11*
X128270000Y-113030000D03*
D12*
X128270000Y-120650000D03*
D11*
X129540000Y-69850000D03*
D12*
X129540000Y-62230000D03*
D10*
X137200000Y-58420000D03*
X139700000Y-58420000D03*
D21*
X153670000Y-110490000D03*
D17*
X146050000Y-110490000D03*
D11*
X137160000Y-20320000D03*
D12*
X144780000Y-20320000D03*
D11*
X115570000Y-113030000D03*
D12*
X115570000Y-120650000D03*
D11*
X157480000Y-69850000D03*
D12*
X157480000Y-62230000D03*
D11*
X160020000Y-69850000D03*
D12*
X160020000Y-62230000D03*
D10*
X154940000Y-58420000D03*
X154940000Y-55920000D03*
D22*
X143510000Y-83820000D02*
X130810000Y-96520000D01*
X149860000Y-83820000D02*
X143510000Y-83820000D01*
X104140000Y-57150000D02*
X113030000Y-48260000D01*
X120855011Y-91645011D02*
X107908009Y-91645011D01*
X125730000Y-96520000D02*
X120855011Y-91645011D01*
X107908009Y-91645011D02*
X104140000Y-87877002D01*
X104140000Y-87877002D02*
X104140000Y-57150000D01*
X117310001Y-95720001D02*
X118110000Y-96520000D01*
X102870000Y-47409002D02*
X102870000Y-88900000D01*
X115570000Y-34709002D02*
X102870000Y-47409002D01*
X106824999Y-92854999D02*
X114444999Y-92854999D01*
X114444999Y-92854999D02*
X117310001Y-95720001D01*
X102870000Y-88900000D02*
X106824999Y-92854999D01*
X115570000Y-33020000D02*
X115570000Y-34709002D01*
X144780000Y-26400000D02*
X144510000Y-26670000D01*
X116369999Y-60160001D02*
X115570000Y-60960000D01*
X143510000Y-30480000D02*
X140970000Y-33020000D01*
X153670000Y-23130000D02*
X153670000Y-24130000D01*
X160020000Y-34290000D02*
X163830000Y-30480000D01*
X116695001Y-59834999D02*
X116369999Y-60160001D01*
X123190000Y-63500000D02*
X143510000Y-63500000D01*
X140970000Y-43180000D02*
X146050000Y-48260000D01*
X157480000Y-24130000D02*
X161290000Y-20320000D01*
X142280000Y-83780000D02*
X144780000Y-81280000D01*
X151130000Y-100330000D02*
X151130000Y-102870000D01*
X156210000Y-81320000D02*
X147360000Y-81320000D01*
X143510000Y-97790000D02*
X151130000Y-97790000D01*
X144780000Y-22860000D02*
X153400000Y-22860000D01*
X153670000Y-97790000D02*
X153670000Y-100330000D01*
X132080000Y-102870000D02*
X132120000Y-102910000D01*
X125585001Y-59834999D02*
X116695001Y-59834999D01*
X127000000Y-80010000D02*
X123190000Y-83820000D01*
X115570000Y-83820000D02*
X123190000Y-83820000D01*
X143510000Y-26670000D02*
X143510000Y-30480000D01*
X143510000Y-63500000D02*
X151130000Y-63500000D01*
X153400000Y-22860000D02*
X153670000Y-23130000D01*
X144780000Y-81280000D02*
X147320000Y-81280000D01*
X163830000Y-30480000D02*
X163830000Y-22860000D01*
X143510000Y-60960000D02*
X143510000Y-63500000D01*
X154940000Y-59690000D02*
X154940000Y-58420000D01*
X144780000Y-22860000D02*
X144780000Y-26400000D01*
X140970000Y-33020000D02*
X140970000Y-43180000D01*
X151130000Y-102870000D02*
X153670000Y-102870000D01*
X151090000Y-102910000D02*
X151130000Y-102870000D01*
X144510000Y-26670000D02*
X143510000Y-26670000D01*
X163830000Y-22860000D02*
X161989999Y-21019999D01*
X153670000Y-100330000D02*
X151130000Y-100330000D01*
X127000000Y-78700000D02*
X127000000Y-80010000D01*
X153670000Y-24130000D02*
X157480000Y-24130000D01*
X115570000Y-81280000D02*
X115570000Y-83820000D01*
X130810000Y-104140000D02*
X132080000Y-102870000D01*
X127000000Y-58420000D02*
X125585001Y-59834999D01*
X151130000Y-97790000D02*
X153670000Y-97790000D01*
X140970000Y-83780000D02*
X142280000Y-83780000D01*
X161989999Y-21019999D02*
X161290000Y-20320000D01*
X151130000Y-97790000D02*
X151130000Y-100330000D01*
X153670000Y-102870000D02*
X153670000Y-100330000D01*
X115570000Y-60960000D02*
X115570000Y-63500000D01*
X143510000Y-102910000D02*
X151090000Y-102910000D01*
X132120000Y-102910000D02*
X143510000Y-102910000D01*
X151130000Y-63500000D02*
X154940000Y-59690000D01*
X119074989Y-92404989D02*
X122390001Y-95720001D01*
X122390001Y-95720001D02*
X123190000Y-96520000D01*
X103320010Y-47809990D02*
X103320010Y-87693422D01*
X103320010Y-87693422D02*
X108031577Y-92404989D01*
X108031577Y-92404989D02*
X119074989Y-92404989D01*
X118110000Y-33020000D02*
X103320010Y-47809990D01*
X104140000Y-26620000D02*
X110440000Y-20320000D01*
X110440000Y-20320000D02*
X125730000Y-20320000D01*
X109620010Y-23679990D02*
X104989999Y-28310001D01*
X128270000Y-20320000D02*
X124910010Y-23679990D01*
X104989999Y-28310001D02*
X104140000Y-29160000D01*
X124910010Y-23679990D02*
X109620010Y-23679990D01*
X152400000Y-63252998D02*
X157232998Y-58420000D01*
X150330001Y-57620001D02*
X151130000Y-58420000D01*
X152400000Y-67310000D02*
X152400000Y-63252998D01*
X150004999Y-57294999D02*
X150330001Y-57620001D01*
X157658630Y-58420000D02*
X158790000Y-58420000D01*
X142384999Y-57294999D02*
X150004999Y-57294999D01*
X157232998Y-58420000D02*
X157658630Y-58420000D01*
X133350000Y-48260000D02*
X142384999Y-57294999D01*
X111710000Y-24130000D02*
X127000000Y-24130000D01*
X104140000Y-31700000D02*
X111710000Y-24130000D01*
X127000000Y-24130000D02*
X130810000Y-20320000D01*
X130810000Y-49530000D02*
X139700000Y-58420000D01*
X130810000Y-48260000D02*
X130810000Y-49530000D01*
X133350000Y-22860000D02*
X130810000Y-25400000D01*
X130810000Y-25400000D02*
X115520000Y-25400000D01*
X115520000Y-25400000D02*
X104140000Y-36780000D01*
X133350000Y-20320000D02*
X133350000Y-22860000D01*
X124460000Y-83186410D02*
X124460000Y-86640051D01*
X124460000Y-86640051D02*
X124460000Y-87630000D01*
X130810000Y-78740000D02*
X128906410Y-78740000D01*
X128906410Y-78740000D02*
X124460000Y-83186410D01*
X138430000Y-21590000D02*
X137160000Y-20320000D01*
X138430000Y-26670000D02*
X138430000Y-21590000D01*
X138430000Y-26670000D02*
X138430000Y-33020000D01*
X124315001Y-57294999D02*
X123989999Y-57620001D01*
X120650000Y-50800000D02*
X120650000Y-55880000D01*
X120650000Y-55880000D02*
X123190000Y-58420000D01*
X123190000Y-48260000D02*
X120650000Y-50800000D01*
X130810000Y-58420000D02*
X129684999Y-57294999D01*
X123989999Y-57620001D02*
X123190000Y-58420000D01*
X129684999Y-57294999D02*
X124315001Y-57294999D01*
X114300000Y-55880000D02*
X111760000Y-58420000D01*
X115570000Y-55880000D02*
X114300000Y-55880000D01*
X119235001Y-53264999D02*
X116620000Y-55880000D01*
X119235001Y-49674999D02*
X119235001Y-53264999D01*
X120650000Y-48260000D02*
X119235001Y-49674999D01*
X116620000Y-55880000D02*
X115570000Y-55880000D01*
X118110000Y-48260000D02*
X118110000Y-52070000D01*
X149860000Y-36830000D02*
X146050000Y-33020000D01*
X160020000Y-36830000D02*
X149860000Y-36830000D01*
X153670000Y-29210000D02*
X153670000Y-31750000D01*
X152400000Y-33020000D02*
X148590000Y-33020000D01*
X153670000Y-31750000D02*
X152400000Y-33020000D01*
X153670000Y-31750000D02*
X154940000Y-33020000D01*
X133310000Y-61000000D02*
X132080000Y-62230000D01*
X127000000Y-62230000D02*
X124460000Y-62230000D01*
X132080000Y-62230000D02*
X129540000Y-62230000D01*
X124460000Y-62230000D02*
X123190000Y-60960000D01*
X133310000Y-58420000D02*
X133310000Y-61000000D01*
X129540000Y-62230000D02*
X127000000Y-62230000D01*
X116840000Y-67310000D02*
X123190000Y-60960000D01*
X111760000Y-62230000D02*
X109220000Y-62230000D01*
X111760000Y-62230000D02*
X111760000Y-63747002D01*
X120930051Y-69850000D02*
X121920000Y-69850000D01*
X109220000Y-62230000D02*
X109220000Y-58460000D01*
X106680000Y-62230000D02*
X109220000Y-62230000D01*
X111760000Y-63747002D02*
X117862998Y-69850000D01*
X109220000Y-58460000D02*
X109260000Y-58420000D01*
X117862998Y-69850000D02*
X120930051Y-69850000D01*
X115570000Y-58420000D02*
X111760000Y-62230000D01*
X111760000Y-88900000D02*
X111760000Y-89889949D01*
X127000000Y-91440000D02*
X127000000Y-90170000D01*
X128270000Y-92710000D02*
X127000000Y-91440000D01*
X127699999Y-69150001D02*
X127000000Y-69850000D01*
X111760000Y-69850000D02*
X114300000Y-72390000D01*
X124460000Y-72390000D02*
X126300001Y-70549999D01*
X137160000Y-88900000D02*
X133350000Y-92710000D01*
X111760000Y-89889949D02*
X113065052Y-91195001D01*
X161290000Y-67310000D02*
X162560000Y-68580000D01*
X154940000Y-69850000D02*
X157480000Y-67310000D01*
X162560000Y-72859002D02*
X156679002Y-78740000D01*
X137160000Y-85090000D02*
X137160000Y-82550000D01*
X126300001Y-90869999D02*
X127000000Y-90170000D01*
X126300001Y-70549999D02*
X127000000Y-69850000D01*
X114300000Y-72390000D02*
X124460000Y-72390000D01*
X148799340Y-78740000D02*
X149860000Y-78740000D01*
X133350000Y-92710000D02*
X128270000Y-92710000D01*
X138430000Y-81280000D02*
X140970000Y-81280000D01*
X128270000Y-68580000D02*
X127699999Y-69150001D01*
X137160000Y-85090000D02*
X137160000Y-88900000D01*
X140970000Y-81280000D02*
X142020000Y-81280000D01*
X154940000Y-69850000D02*
X152400000Y-72390000D01*
X125974999Y-91195001D02*
X126300001Y-90869999D01*
X157480000Y-67310000D02*
X161290000Y-67310000D01*
X142240000Y-72390000D02*
X139700000Y-69850000D01*
X156679002Y-78740000D02*
X149860000Y-78740000D01*
X142020000Y-81280000D02*
X144560000Y-78740000D01*
X113065052Y-91195001D02*
X125974999Y-91195001D01*
X162560000Y-68580000D02*
X162560000Y-72859002D01*
X137160000Y-82550000D02*
X138430000Y-81280000D01*
X139700000Y-69850000D02*
X138430000Y-68580000D01*
X144560000Y-78740000D02*
X148799340Y-78740000D01*
X138430000Y-68580000D02*
X128270000Y-68580000D01*
X152400000Y-72390000D02*
X142240000Y-72390000D01*
X133310000Y-81320000D02*
X132080000Y-82550000D01*
X133310000Y-78740000D02*
X133310000Y-81320000D01*
X129540000Y-82550000D02*
X127000000Y-82550000D01*
X132080000Y-82550000D02*
X129540000Y-82550000D01*
X109220000Y-81280000D02*
X106680000Y-81280000D01*
X111760000Y-81280000D02*
X111760000Y-84067002D01*
X111760000Y-84067002D02*
X117862998Y-90170000D01*
X109260000Y-81240000D02*
X109220000Y-81280000D01*
X113030000Y-81280000D02*
X115570000Y-78740000D01*
X109260000Y-77470000D02*
X109260000Y-81240000D01*
X120930051Y-90170000D02*
X121920000Y-90170000D01*
X111760000Y-81280000D02*
X113030000Y-81280000D01*
X109220000Y-81280000D02*
X111760000Y-81280000D01*
X117862998Y-90170000D02*
X120930051Y-90170000D01*
X154940000Y-62230000D02*
X157480000Y-62230000D01*
X160020000Y-59690000D02*
X161290000Y-58420000D01*
X157480000Y-62230000D02*
X160020000Y-62230000D01*
X160020000Y-62230000D02*
X160020000Y-59690000D01*
X143510000Y-58420000D02*
X139700000Y-62230000D01*
X139700000Y-62230000D02*
X137160000Y-62230000D01*
X137160000Y-62230000D02*
X137160000Y-58460000D01*
X135890000Y-62230000D02*
X139700000Y-62230000D01*
X134620000Y-62230000D02*
X137160000Y-62230000D01*
X137160000Y-58460000D02*
X137200000Y-58420000D01*
X141603590Y-77470000D02*
X151130000Y-77470000D01*
X132080000Y-90170000D02*
X132080000Y-86993590D01*
X151130000Y-77470000D02*
X153670000Y-74930000D01*
X132080000Y-86993590D02*
X141603590Y-77470000D01*
X140970000Y-74930000D02*
X138430000Y-72390000D01*
X137160000Y-72390000D02*
X135319999Y-70549999D01*
X138430000Y-72390000D02*
X137160000Y-72390000D01*
X135319999Y-70549999D02*
X134620000Y-69850000D01*
X149040010Y-77019990D02*
X141417189Y-77019991D01*
X129540000Y-89180051D02*
X129540000Y-90170000D01*
X141417189Y-77019991D02*
X129540000Y-88897180D01*
X129540000Y-88897180D02*
X129540000Y-89180051D01*
X151130000Y-74930000D02*
X149040010Y-77019990D01*
X141156400Y-72576400D02*
X143510000Y-74930000D01*
X139886400Y-72576400D02*
X141156400Y-72576400D01*
X137160000Y-69850000D02*
X139886400Y-72576400D01*
X106680000Y-88900000D02*
X107950000Y-88900000D01*
X130810000Y-74930000D02*
X129540000Y-73660000D01*
X106680000Y-71120000D02*
X106680000Y-69850000D01*
X129540000Y-73660000D02*
X109220000Y-73660000D01*
X109220000Y-73660000D02*
X106680000Y-71120000D01*
X135890000Y-72390000D02*
X134620000Y-72390000D01*
X138430000Y-74930000D02*
X135890000Y-72390000D01*
X134620000Y-72390000D02*
X132080000Y-69850000D01*
X104140000Y-21540000D02*
X106043590Y-21540000D01*
X157274989Y-18844989D02*
X158050001Y-19620001D01*
X158050001Y-19620001D02*
X158750000Y-20320000D01*
X106043590Y-21540000D02*
X108738601Y-18844989D01*
X108738601Y-18844989D02*
X157274989Y-18844989D01*
X104140000Y-24080000D02*
X108925001Y-19294999D01*
X146294999Y-19294999D02*
X147890001Y-20890001D01*
X147890001Y-20890001D02*
X148590000Y-21590000D01*
X108925001Y-19294999D02*
X146294999Y-19294999D01*
X129540000Y-71120000D02*
X129540000Y-69850000D01*
X135890000Y-74930000D02*
X133350000Y-72390000D01*
X133350000Y-72390000D02*
X130810000Y-72390000D01*
X130810000Y-72390000D02*
X129540000Y-71120000D01*
X112210010Y-72840010D02*
X131260010Y-72840010D01*
X109220000Y-69850000D02*
X112210010Y-72840010D01*
X132500001Y-74080001D02*
X133350000Y-74930000D01*
X131260010Y-72840010D02*
X132500001Y-74080001D01*
X154120010Y-73209990D02*
X147770010Y-73209990D01*
X157480000Y-69850000D02*
X154120010Y-73209990D01*
X146899999Y-74080001D02*
X146050000Y-74930000D01*
X147770010Y-73209990D02*
X146899999Y-74080001D01*
X148590000Y-74930000D02*
X149860000Y-73660000D01*
X149860000Y-73660000D02*
X156210000Y-73660000D01*
X156210000Y-73660000D02*
X160020000Y-69850000D01*
X156210000Y-111760000D02*
X154940000Y-113030000D01*
X162580000Y-78720000D02*
X162580000Y-78672500D01*
X156210000Y-83820000D02*
X156210000Y-111760000D01*
X156210000Y-83820000D02*
X157480000Y-83820000D01*
X153670000Y-113030000D02*
X152400000Y-113030000D01*
X157480000Y-83820000D02*
X162580000Y-78720000D01*
X154940000Y-113030000D02*
X153670000Y-113030000D01*
X163782500Y-77470000D02*
X163830000Y-77470000D01*
X162580000Y-78672500D02*
X163782500Y-77470000D01*
X144780000Y-105410000D02*
X143510000Y-105410000D01*
X152400000Y-113030000D02*
X144780000Y-105410000D01*
X151170000Y-87630000D02*
X143510000Y-95290000D01*
X143510000Y-95290000D02*
X139740000Y-95290000D01*
X139740000Y-95290000D02*
X137160000Y-92710000D01*
X153670000Y-87630000D02*
X151170000Y-87630000D01*
X153670000Y-105410000D02*
X153670000Y-110490000D01*
X151130000Y-105410000D02*
X153670000Y-105410000D01*
X146050000Y-110490000D02*
X146050000Y-113030000D01*
X146050000Y-90170000D02*
X146050000Y-87630000D01*
X153670000Y-95250000D02*
X153670000Y-90170000D01*
X151130000Y-95250000D02*
X153670000Y-95250000D01*
X157480000Y-27940000D02*
X156210000Y-26670000D01*
X158750000Y-27940000D02*
X161290000Y-27940000D01*
X158750000Y-27940000D02*
X157480000Y-27940000D01*
X110490000Y-116840000D02*
X113030000Y-114300000D01*
X157480000Y-101600000D02*
X158750000Y-100330000D01*
X158750000Y-100330000D02*
X166370000Y-100330000D01*
X113030000Y-114300000D02*
X156210000Y-114300000D01*
X110490000Y-120650000D02*
X110490000Y-116840000D01*
X157480000Y-113030000D02*
X157480000Y-101600000D01*
X156210000Y-114300000D02*
X157480000Y-113030000D01*
X113030000Y-113030000D02*
X113030000Y-104140000D01*
X157930010Y-104959990D02*
X157930010Y-113216400D01*
X166370000Y-102870000D02*
X160020000Y-102870000D01*
X115119990Y-114750010D02*
X113030000Y-116840000D01*
X160020000Y-102870000D02*
X157930010Y-104959990D01*
X157930010Y-113216400D02*
X156396400Y-114750010D01*
X113030000Y-116840000D02*
X113030000Y-120650000D01*
X156396400Y-114750010D02*
X115119990Y-114750010D01*
X115570000Y-104140000D02*
X115570000Y-113030000D01*
X115570000Y-116840000D02*
X115570000Y-119660051D01*
X158380020Y-107049980D02*
X158380019Y-113402801D01*
X160020000Y-105410000D02*
X158380020Y-107049980D01*
X116840000Y-115570000D02*
X115570000Y-116840000D01*
X156212820Y-115570000D02*
X116840000Y-115570000D01*
X166370000Y-105410000D02*
X160020000Y-105410000D01*
X115570000Y-119660051D02*
X115570000Y-120650000D01*
X158380019Y-113402801D02*
X156212820Y-115570000D01*
X118110000Y-113030000D02*
X118110000Y-104140000D01*
X158830029Y-109139971D02*
X158830028Y-113589202D01*
X118929990Y-116020010D02*
X118110000Y-116840000D01*
X156399220Y-116020010D02*
X118929990Y-116020010D01*
X118110000Y-116840000D02*
X118110000Y-120650000D01*
X166370000Y-107950000D02*
X160020000Y-107950000D01*
X160020000Y-107950000D02*
X158830029Y-109139971D01*
X158830028Y-113589202D02*
X156399220Y-116020010D01*
X120650000Y-104140000D02*
X120650000Y-113030000D01*
X161290000Y-110490000D02*
X159280038Y-112499962D01*
X121920000Y-116840000D02*
X120650000Y-118110000D01*
X159280038Y-112499962D02*
X159280037Y-113775603D01*
X159280037Y-113775603D02*
X156215640Y-116840000D01*
X166370000Y-110490000D02*
X161290000Y-110490000D01*
X156215640Y-116840000D02*
X121920000Y-116840000D01*
X120650000Y-118110000D02*
X120650000Y-120650000D01*
X123190000Y-113030000D02*
X123190000Y-104140000D01*
X124009990Y-117290010D02*
X123190000Y-118110000D01*
X123190000Y-118110000D02*
X123190000Y-120650000D01*
X166370000Y-113030000D02*
X162109990Y-117290010D01*
X162109990Y-117290010D02*
X124009990Y-117290010D01*
X125730000Y-104140000D02*
X125730000Y-113030000D01*
X166370000Y-118110000D02*
X161290000Y-123190000D01*
X161290000Y-123190000D02*
X128270000Y-123190000D01*
X128270000Y-123190000D02*
X125730000Y-120650000D01*
X128270000Y-113030000D02*
X128270000Y-104140000D01*
X160020000Y-120650000D02*
X128270000Y-120650000D01*
X165100000Y-115570000D02*
X160020000Y-120650000D01*
X166370000Y-115570000D02*
X165100000Y-115570000D01*
X125730000Y-27940000D02*
X125730000Y-33020000D01*
X128270000Y-27940000D02*
X128270000Y-33020000D01*
X130810000Y-27940000D02*
X130810000Y-33020000D01*
X133350000Y-27940000D02*
X133350000Y-33020000D01*
X154900000Y-55880000D02*
X154940000Y-55920000D01*
X166370000Y-59770000D02*
X166370000Y-80057500D01*
X148590000Y-53340000D02*
X151130000Y-55880000D01*
X123190000Y-55880000D02*
X126960000Y-55880000D01*
X159850000Y-40640000D02*
X160020000Y-40470000D01*
X163877500Y-82550000D02*
X163830000Y-82550000D01*
X163830000Y-85090000D02*
X161290000Y-87630000D01*
X166370000Y-80057500D02*
X163877500Y-82550000D01*
X112990000Y-96480000D02*
X113030000Y-96520000D01*
X148590000Y-48260000D02*
X148590000Y-53340000D01*
X162520000Y-55920000D02*
X166370000Y-59770000D01*
X154940000Y-40640000D02*
X159850000Y-40640000D01*
X151130000Y-55880000D02*
X154900000Y-55880000D01*
X126960000Y-55880000D02*
X127000000Y-55920000D01*
X154940000Y-55920000D02*
X162520000Y-55920000D01*
X127000000Y-76200000D02*
X123190000Y-76200000D01*
X127000000Y-97790000D02*
X114300000Y-97790000D01*
X128270000Y-96520000D02*
X127000000Y-97790000D01*
X114300000Y-97790000D02*
X113829999Y-97319999D01*
X160020000Y-40470000D02*
X160020000Y-39370000D01*
X109220000Y-96480000D02*
X112990000Y-96480000D01*
X113829999Y-97319999D02*
X113030000Y-96520000D01*
X163830000Y-82550000D02*
X163830000Y-85090000D01*
M02*
