G04 #@! TF.GenerationSoftware,KiCad,Pcbnew,(5.1.6)-1*
G04 #@! TF.CreationDate,2021-07-28T13:55:25+02:00*
G04 #@! TF.ProjectId,GridsNanoV3,47726964-734e-4616-9e6f-56332e6b6963,rev?*
G04 #@! TF.SameCoordinates,Original*
G04 #@! TF.FileFunction,Legend,Bot*
G04 #@! TF.FilePolarity,Positive*
%FSLAX46Y46*%
G04 Gerber Fmt 4.6, Leading zero omitted, Abs format (unit mm)*
G04 Created by KiCad (PCBNEW (5.1.6)-1) date 2021-07-28 13:55:26*
%MOMM*%
%LPD*%
G01*
G04 APERTURE LIST*
%ADD10C,0.120000*%
%ADD11C,0.150000*%
G04 APERTURE END LIST*
D10*
X262950000Y-45730000D02*
X260290000Y-45730000D01*
X262950000Y-22810000D02*
X262950000Y-45730000D01*
X260290000Y-22810000D02*
X260290000Y-45730000D01*
X262950000Y-22810000D02*
X260290000Y-22810000D01*
X262950000Y-21540000D02*
X262950000Y-20210000D01*
X262950000Y-20210000D02*
X261620000Y-20210000D01*
X200720000Y-124520000D02*
X198060000Y-124520000D01*
X200720000Y-101600000D02*
X200720000Y-124520000D01*
X198060000Y-101600000D02*
X198060000Y-124520000D01*
X200720000Y-101600000D02*
X198060000Y-101600000D01*
X200720000Y-100330000D02*
X200720000Y-99000000D01*
X200720000Y-99000000D02*
X199390000Y-99000000D01*
X205680000Y-76260000D02*
X205680000Y-73600000D01*
X233680000Y-76260000D02*
X205680000Y-76260000D01*
X233680000Y-73600000D02*
X205680000Y-73600000D01*
X233680000Y-76260000D02*
X233680000Y-73600000D01*
X234950000Y-76260000D02*
X236280000Y-76260000D01*
X236280000Y-76260000D02*
X236280000Y-74930000D01*
D11*
X262429523Y-18662380D02*
X262429523Y-19376666D01*
X262477142Y-19519523D01*
X262572380Y-19614761D01*
X262715238Y-19662380D01*
X262810476Y-19662380D01*
X261429523Y-19662380D02*
X262000952Y-19662380D01*
X261715238Y-19662380D02*
X261715238Y-18662380D01*
X261810476Y-18805238D01*
X261905714Y-18900476D01*
X262000952Y-18948095D01*
X260572380Y-18995714D02*
X260572380Y-19662380D01*
X260810476Y-18614761D02*
X261048571Y-19329047D01*
X260429523Y-19329047D01*
X200199523Y-97452380D02*
X200199523Y-98166666D01*
X200247142Y-98309523D01*
X200342380Y-98404761D01*
X200485238Y-98452380D01*
X200580476Y-98452380D01*
X199199523Y-98452380D02*
X199770952Y-98452380D01*
X199485238Y-98452380D02*
X199485238Y-97452380D01*
X199580476Y-97595238D01*
X199675714Y-97690476D01*
X199770952Y-97738095D01*
X198294761Y-97452380D02*
X198770952Y-97452380D01*
X198818571Y-97928571D01*
X198770952Y-97880952D01*
X198675714Y-97833333D01*
X198437619Y-97833333D01*
X198342380Y-97880952D01*
X198294761Y-97928571D01*
X198247142Y-98023809D01*
X198247142Y-98261904D01*
X198294761Y-98357142D01*
X198342380Y-98404761D01*
X198437619Y-98452380D01*
X198675714Y-98452380D01*
X198770952Y-98404761D01*
X198818571Y-98357142D01*
X236732380Y-74120476D02*
X237446666Y-74120476D01*
X237589523Y-74072857D01*
X237684761Y-73977619D01*
X237732380Y-73834761D01*
X237732380Y-73739523D01*
X237732380Y-75120476D02*
X237732380Y-74549047D01*
X237732380Y-74834761D02*
X236732380Y-74834761D01*
X236875238Y-74739523D01*
X236970476Y-74644285D01*
X237018095Y-74549047D01*
X237732380Y-76072857D02*
X237732380Y-75501428D01*
X237732380Y-75787142D02*
X236732380Y-75787142D01*
X236875238Y-75691904D01*
X236970476Y-75596666D01*
X237018095Y-75501428D01*
M02*
