G04 #@! TF.GenerationSoftware,KiCad,Pcbnew,(5.1.5)-3*
G04 #@! TF.CreationDate,2020-03-28T09:42:38+01:00*
G04 #@! TF.ProjectId,GridsNanoV3,47726964-734e-4616-9e6f-56332e6b6963,rev?*
G04 #@! TF.SameCoordinates,Original*
G04 #@! TF.FileFunction,Copper,L2,Bot*
G04 #@! TF.FilePolarity,Positive*
%FSLAX46Y46*%
G04 Gerber Fmt 4.6, Leading zero omitted, Abs format (unit mm)*
G04 Created by KiCad (PCBNEW (5.1.5)-3) date 2020-03-28 09:42:38*
%MOMM*%
%LPD*%
G04 APERTURE LIST*
%ADD10O,1.700000X1.700000*%
%ADD11R,1.700000X1.700000*%
%ADD12C,2.130000*%
%ADD13R,1.830000X1.930000*%
%ADD14C,1.800000*%
%ADD15R,1.800000X1.800000*%
%ADD16C,2.000000*%
%ADD17O,2.720000X3.240000*%
%ADD18C,0.250000*%
G04 APERTURE END LIST*
D10*
X207010000Y-74930000D03*
X209550000Y-74930000D03*
X212090000Y-74930000D03*
X214630000Y-74930000D03*
X217170000Y-74930000D03*
X219710000Y-74930000D03*
X222250000Y-74930000D03*
X224790000Y-74930000D03*
X227330000Y-74930000D03*
X229870000Y-74930000D03*
X232410000Y-74930000D03*
D11*
X234950000Y-74930000D03*
D12*
X203010000Y-120650000D03*
D13*
X214410000Y-120650000D03*
D12*
X211310000Y-120650000D03*
X220010000Y-109220000D03*
D13*
X231410000Y-109220000D03*
D12*
X228310000Y-109220000D03*
X220010000Y-38100000D03*
D13*
X231410000Y-38100000D03*
D12*
X228310000Y-38100000D03*
X220010000Y-120650000D03*
D13*
X231410000Y-120650000D03*
D12*
X228310000Y-120650000D03*
X253010000Y-109220000D03*
D13*
X264410000Y-109220000D03*
D12*
X261310000Y-109220000D03*
D14*
X258950000Y-69850000D03*
D15*
X256410000Y-69850000D03*
D12*
X220010000Y-97790000D03*
D13*
X231410000Y-97790000D03*
D12*
X228310000Y-97790000D03*
X253010000Y-120650000D03*
D13*
X264410000Y-120650000D03*
D12*
X261310000Y-120650000D03*
X237010000Y-109220000D03*
D13*
X248410000Y-109220000D03*
D12*
X245310000Y-109220000D03*
X237010000Y-97790000D03*
D13*
X248410000Y-97790000D03*
D12*
X245310000Y-97790000D03*
X203010000Y-40640000D03*
D13*
X214410000Y-40640000D03*
D12*
X211310000Y-40640000D03*
X203010000Y-67310000D03*
D13*
X214410000Y-67310000D03*
D12*
X211310000Y-67310000D03*
X203010000Y-97790000D03*
D13*
X214410000Y-97790000D03*
D12*
X211310000Y-97790000D03*
D14*
X242750000Y-69540000D03*
D15*
X240210000Y-69540000D03*
D12*
X253010000Y-97790000D03*
D13*
X264410000Y-97790000D03*
D12*
X261310000Y-97790000D03*
X220010000Y-25400000D03*
D13*
X231410000Y-25400000D03*
D12*
X228310000Y-25400000D03*
D14*
X226150000Y-69540000D03*
D15*
X223610000Y-69540000D03*
D10*
X261620000Y-44400000D03*
X261620000Y-41860000D03*
X261620000Y-39320000D03*
X261620000Y-36780000D03*
X261620000Y-34240000D03*
X261620000Y-31700000D03*
X261620000Y-29160000D03*
X261620000Y-26620000D03*
X261620000Y-24080000D03*
D11*
X261620000Y-21540000D03*
D12*
X237010000Y-120650000D03*
D13*
X248410000Y-120650000D03*
D12*
X245310000Y-120650000D03*
D10*
X199390000Y-123190000D03*
X199390000Y-120650000D03*
X199390000Y-118110000D03*
X199390000Y-115570000D03*
X199390000Y-113030000D03*
X199390000Y-110490000D03*
X199390000Y-107950000D03*
X199390000Y-105410000D03*
X199390000Y-102870000D03*
D11*
X199390000Y-100330000D03*
D14*
X238760000Y-39370000D03*
D15*
X236220000Y-39370000D03*
D12*
X203010000Y-109220000D03*
D13*
X214410000Y-109220000D03*
D12*
X211310000Y-109220000D03*
D16*
X242720000Y-48260000D03*
X242720000Y-52760000D03*
X236220000Y-48260000D03*
X236220000Y-52760000D03*
D17*
X237490000Y-25400000D03*
X247090000Y-25400000D03*
D14*
X244790000Y-32900000D03*
X242290000Y-32900000D03*
D15*
X239790000Y-32900000D03*
D17*
X203110000Y-82550000D03*
X212710000Y-82550000D03*
D14*
X210410000Y-90050000D03*
X207910000Y-90050000D03*
D15*
X205410000Y-90050000D03*
D17*
X253110000Y-82550000D03*
X262710000Y-82550000D03*
D14*
X260410000Y-90050000D03*
X257910000Y-90050000D03*
D15*
X255410000Y-90050000D03*
D17*
X203110000Y-25520000D03*
X212710000Y-25520000D03*
D14*
X210410000Y-33020000D03*
X207910000Y-33020000D03*
D15*
X205410000Y-33020000D03*
D17*
X203110000Y-52190000D03*
X212710000Y-52190000D03*
D14*
X210410000Y-59690000D03*
X207910000Y-59690000D03*
D15*
X205410000Y-59690000D03*
D17*
X237110000Y-82550000D03*
X246710000Y-82550000D03*
D14*
X244410000Y-90050000D03*
X241910000Y-90050000D03*
D15*
X239410000Y-90050000D03*
D17*
X220110000Y-82550000D03*
X229710000Y-82550000D03*
D14*
X227410000Y-90050000D03*
X224910000Y-90050000D03*
D15*
X222410000Y-90050000D03*
D18*
X236220000Y-52760000D02*
X242720000Y-52760000D01*
X235070000Y-39370000D02*
X236220000Y-39370000D01*
X234894999Y-51434999D02*
X235220001Y-51760001D01*
X236220000Y-40520000D02*
X234894999Y-41845001D01*
X235220001Y-51760001D02*
X236220000Y-52760000D01*
X231410000Y-38100000D02*
X231410000Y-38150000D01*
X231410000Y-25400000D02*
X231410000Y-38100000D01*
X232630000Y-39370000D02*
X235070000Y-39370000D01*
X236220000Y-39370000D02*
X236220000Y-40520000D01*
X234894999Y-41845001D02*
X234894999Y-51434999D01*
X231410000Y-38150000D02*
X232630000Y-39370000D01*
X211815000Y-93980000D02*
X208190000Y-93980000D01*
X234005000Y-101600000D02*
X244650000Y-101600000D01*
X222410000Y-91200000D02*
X215820000Y-97790000D01*
X244650000Y-101600000D02*
X248410000Y-97840000D01*
X214410000Y-109220000D02*
X214410000Y-110435000D01*
X214410000Y-96575000D02*
X211815000Y-93980000D01*
X231410000Y-109270000D02*
X231410000Y-109220000D01*
X208190000Y-93980000D02*
X205410000Y-91200000D01*
X248410000Y-97840000D02*
X248410000Y-97790000D01*
X205410000Y-91200000D02*
X205410000Y-90050000D01*
X231410000Y-99005000D02*
X234005000Y-101600000D01*
X214410000Y-110435000D02*
X217005000Y-113030000D01*
X227650000Y-113030000D02*
X231410000Y-109270000D01*
X214410000Y-97790000D02*
X214410000Y-96575000D01*
X217005000Y-113030000D02*
X227650000Y-113030000D01*
X222410000Y-90050000D02*
X222410000Y-91200000D01*
X206800000Y-57150000D02*
X205410000Y-58540000D01*
X239060000Y-69540000D02*
X240210000Y-69540000D01*
X231410000Y-97790000D02*
X231410000Y-96575000D01*
X231410000Y-96575000D02*
X228815000Y-93980000D01*
X212090000Y-57150000D02*
X206800000Y-57150000D01*
X255410000Y-91200000D02*
X248820000Y-97790000D01*
X245815000Y-93980000D02*
X242190000Y-93980000D01*
X248410000Y-120650000D02*
X248410000Y-119435000D01*
X258190000Y-93980000D02*
X255410000Y-91200000D01*
X231410000Y-99005000D02*
X231410000Y-109220000D01*
X211815000Y-36830000D02*
X208070000Y-36830000D01*
X214410000Y-40690000D02*
X226480000Y-52760000D01*
X254955000Y-67245000D02*
X256410000Y-68700000D01*
X231410000Y-97790000D02*
X231410000Y-99005000D01*
X214410000Y-59470000D02*
X212090000Y-57150000D01*
X264410000Y-119435000D02*
X264410000Y-109220000D01*
X231410000Y-110435000D02*
X231410000Y-120650000D01*
X226480000Y-52760000D02*
X234805787Y-52760000D01*
X248410000Y-99005000D02*
X248410000Y-109220000D01*
X214410000Y-67310000D02*
X222530000Y-67310000D01*
X214410000Y-120650000D02*
X214410000Y-119435000D01*
X248410000Y-97790000D02*
X248410000Y-96575000D01*
X248820000Y-97790000D02*
X248410000Y-97790000D01*
X264410000Y-97790000D02*
X264410000Y-99005000D01*
X248410000Y-97790000D02*
X248410000Y-99005000D01*
X214410000Y-40640000D02*
X214410000Y-39425000D01*
X248410000Y-119435000D02*
X248410000Y-109220000D01*
X214410000Y-119435000D02*
X214410000Y-109220000D01*
X214410000Y-120700000D02*
X214410000Y-120650000D01*
X205410000Y-58540000D02*
X205410000Y-59690000D01*
X223610000Y-68390000D02*
X224690000Y-67310000D01*
X234805787Y-52760000D02*
X236220000Y-52760000D01*
X242505000Y-67245000D02*
X254955000Y-67245000D01*
X223610000Y-68390000D02*
X223610000Y-69540000D01*
X214410000Y-67310000D02*
X214410000Y-59470000D01*
X239410000Y-90050000D02*
X239410000Y-91200000D01*
X224690000Y-67310000D02*
X236830000Y-67310000D01*
X256410000Y-68700000D02*
X256410000Y-69850000D01*
X242505000Y-67245000D02*
X240210000Y-69540000D01*
X242190000Y-93980000D02*
X239410000Y-91200000D01*
X214410000Y-39425000D02*
X211815000Y-36830000D01*
X208070000Y-36830000D02*
X205410000Y-34170000D01*
X264410000Y-97790000D02*
X264410000Y-97740000D01*
X222530000Y-67310000D02*
X223610000Y-68390000D01*
X242720000Y-52760000D02*
X242720000Y-67030000D01*
X264410000Y-120650000D02*
X264410000Y-119435000D01*
X264410000Y-99005000D02*
X264410000Y-109220000D01*
X236830000Y-67310000D02*
X239060000Y-69540000D01*
X242720000Y-67030000D02*
X242505000Y-67245000D01*
X199390000Y-123190000D02*
X211920000Y-123190000D01*
X215820000Y-97790000D02*
X215575000Y-97790000D01*
X215575000Y-97790000D02*
X214410000Y-97790000D01*
X228815000Y-93980000D02*
X225190000Y-93980000D01*
X225190000Y-93980000D02*
X222410000Y-91200000D01*
X248410000Y-96575000D02*
X245815000Y-93980000D01*
X264410000Y-97740000D02*
X260650000Y-93980000D01*
X211920000Y-123190000D02*
X214410000Y-120700000D01*
X205410000Y-34170000D02*
X205410000Y-33020000D01*
X260650000Y-93980000D02*
X258190000Y-93980000D01*
X255410000Y-90050000D02*
X255410000Y-91200000D01*
X231410000Y-109220000D02*
X231410000Y-110435000D01*
X214410000Y-40640000D02*
X214410000Y-40690000D01*
X238640000Y-32900000D02*
X236220000Y-35320000D01*
X239790000Y-32900000D02*
X238640000Y-32900000D01*
X236220000Y-35320000D02*
X236220000Y-39370000D01*
X261620000Y-34240000D02*
X243630000Y-34240000D01*
X243630000Y-34240000D02*
X242290000Y-32900000D01*
X240480010Y-74110010D02*
X235910000Y-69540000D01*
X235910000Y-69540000D02*
X226150000Y-69540000D01*
X263790019Y-28790019D02*
X263790019Y-67459393D01*
X261620000Y-26620000D02*
X263790019Y-28790019D01*
X263790019Y-67459393D02*
X257139402Y-74110010D01*
X257139402Y-74110010D02*
X240480010Y-74110010D01*
X261620000Y-29160000D02*
X263340010Y-30880010D01*
X246870000Y-73660000D02*
X242750000Y-69540000D01*
X256953002Y-73660000D02*
X246870000Y-73660000D01*
X263340010Y-30880010D02*
X263340010Y-67272992D01*
X263340010Y-67272992D02*
X256953002Y-73660000D01*
X262890000Y-65910000D02*
X259849999Y-68950001D01*
X259849999Y-68950001D02*
X258950000Y-69850000D01*
X261620000Y-31700000D02*
X262890000Y-32970000D01*
X262890000Y-32970000D02*
X262890000Y-65910000D01*
X261620000Y-36780000D02*
X241350000Y-36780000D01*
X241350000Y-36780000D02*
X238760000Y-39370000D01*
X255320000Y-39320000D02*
X246380000Y-48260000D01*
X246380000Y-48260000D02*
X242720000Y-48260000D01*
X261620000Y-39320000D02*
X255320000Y-39320000D01*
X237010000Y-96040000D02*
X237010000Y-97790000D01*
X224790000Y-83820000D02*
X237010000Y-96040000D01*
X224790000Y-74930000D02*
X224790000Y-83820000D01*
X234950000Y-74930000D02*
X234950000Y-73830000D01*
X234950000Y-73830000D02*
X231885001Y-70765001D01*
X231885001Y-70765001D02*
X206465001Y-70765001D01*
X206465001Y-70765001D02*
X204074999Y-68374999D01*
X204074999Y-68374999D02*
X203010000Y-67310000D01*
X218945001Y-37035001D02*
X220010000Y-38100000D01*
X261620000Y-21540000D02*
X219760000Y-21540000D01*
X219760000Y-21540000D02*
X218619999Y-22680001D01*
X218619999Y-22680001D02*
X218619999Y-36709999D01*
X218619999Y-36709999D02*
X218945001Y-37035001D01*
X261620000Y-24080000D02*
X260400000Y-22860000D01*
X260400000Y-22860000D02*
X222550000Y-22860000D01*
X222550000Y-22860000D02*
X221074999Y-24335001D01*
X221074999Y-24335001D02*
X220010000Y-25400000D01*
X203200000Y-72390000D02*
X200660000Y-69850000D01*
X232410000Y-74930000D02*
X229870000Y-72390000D01*
X200660000Y-69850000D02*
X200660000Y-64770000D01*
X200660000Y-64770000D02*
X203200000Y-62230000D01*
X229870000Y-72390000D02*
X203200000Y-72390000D01*
X203200000Y-62230000D02*
X205370000Y-62230000D01*
X205370000Y-62230000D02*
X207910000Y-59690000D01*
X211120000Y-100330000D02*
X220010000Y-109220000D01*
X199390000Y-100330000D02*
X211120000Y-100330000D01*
X203010000Y-109220000D02*
X203010000Y-111950000D01*
X203010000Y-111950000D02*
X199390000Y-115570000D01*
X209184999Y-88824999D02*
X204249999Y-88824999D01*
X204249999Y-88824999D02*
X198214999Y-94859999D01*
X198214999Y-119474999D02*
X198540001Y-119800001D01*
X198214999Y-94859999D02*
X198214999Y-119474999D01*
X198540001Y-119800001D02*
X199390000Y-120650000D01*
X210410000Y-90050000D02*
X209184999Y-88824999D01*
X257990000Y-87630000D02*
X246830000Y-87630000D01*
X260410000Y-90050000D02*
X257990000Y-87630000D01*
X224990000Y-87630000D02*
X226510001Y-89150001D01*
X226510001Y-89150001D02*
X227410000Y-90050000D01*
X210410000Y-90050000D02*
X212830000Y-87630000D01*
X246830000Y-87630000D02*
X244410000Y-90050000D01*
X212830000Y-87630000D02*
X224990000Y-87630000D01*
M02*
