G04 #@! TF.GenerationSoftware,KiCad,Pcbnew,(5.1.6)-1*
G04 #@! TF.CreationDate,2021-06-26T23:55:21+02:00*
G04 #@! TF.ProjectId,GridsNanoV3,47726964-734e-4616-9e6f-56332e6b6963,rev?*
G04 #@! TF.SameCoordinates,Original*
G04 #@! TF.FileFunction,Legend,Top*
G04 #@! TF.FilePolarity,Positive*
%FSLAX46Y46*%
G04 Gerber Fmt 4.6, Leading zero omitted, Abs format (unit mm)*
G04 Created by KiCad (PCBNEW (5.1.6)-1) date 2021-06-26 23:55:21*
%MOMM*%
%LPD*%
G01*
G04 APERTURE LIST*
%ADD10C,0.200000*%
%ADD11C,0.300000*%
%ADD12C,0.100000*%
%ADD13C,0.120000*%
%ADD14C,0.010000*%
%ADD15C,0.150000*%
G04 APERTURE END LIST*
D10*
X220030476Y-57381904D02*
X220030476Y-56581904D01*
X220220952Y-56581904D01*
X220335238Y-56620000D01*
X220411428Y-56696190D01*
X220449523Y-56772380D01*
X220487619Y-56924761D01*
X220487619Y-57039047D01*
X220449523Y-57191428D01*
X220411428Y-57267619D01*
X220335238Y-57343809D01*
X220220952Y-57381904D01*
X220030476Y-57381904D01*
X221135238Y-57343809D02*
X221059047Y-57381904D01*
X220906666Y-57381904D01*
X220830476Y-57343809D01*
X220792380Y-57267619D01*
X220792380Y-56962857D01*
X220830476Y-56886666D01*
X220906666Y-56848571D01*
X221059047Y-56848571D01*
X221135238Y-56886666D01*
X221173333Y-56962857D01*
X221173333Y-57039047D01*
X220792380Y-57115238D01*
X221478095Y-57343809D02*
X221554285Y-57381904D01*
X221706666Y-57381904D01*
X221782857Y-57343809D01*
X221820952Y-57267619D01*
X221820952Y-57229523D01*
X221782857Y-57153333D01*
X221706666Y-57115238D01*
X221592380Y-57115238D01*
X221516190Y-57077142D01*
X221478095Y-57000952D01*
X221478095Y-56962857D01*
X221516190Y-56886666D01*
X221592380Y-56848571D01*
X221706666Y-56848571D01*
X221782857Y-56886666D01*
X222163809Y-57381904D02*
X222163809Y-56848571D01*
X222163809Y-56581904D02*
X222125714Y-56620000D01*
X222163809Y-56658095D01*
X222201904Y-56620000D01*
X222163809Y-56581904D01*
X222163809Y-56658095D01*
X222887619Y-56848571D02*
X222887619Y-57496190D01*
X222849523Y-57572380D01*
X222811428Y-57610476D01*
X222735238Y-57648571D01*
X222620952Y-57648571D01*
X222544761Y-57610476D01*
X222887619Y-57343809D02*
X222811428Y-57381904D01*
X222659047Y-57381904D01*
X222582857Y-57343809D01*
X222544761Y-57305714D01*
X222506666Y-57229523D01*
X222506666Y-57000952D01*
X222544761Y-56924761D01*
X222582857Y-56886666D01*
X222659047Y-56848571D01*
X222811428Y-56848571D01*
X222887619Y-56886666D01*
X223268571Y-56848571D02*
X223268571Y-57381904D01*
X223268571Y-56924761D02*
X223306666Y-56886666D01*
X223382857Y-56848571D01*
X223497142Y-56848571D01*
X223573333Y-56886666D01*
X223611428Y-56962857D01*
X223611428Y-57381904D01*
X224563809Y-56543809D02*
X223878095Y-57572380D01*
X224792380Y-57343809D02*
X224868571Y-57381904D01*
X225020952Y-57381904D01*
X225097142Y-57343809D01*
X225135238Y-57267619D01*
X225135238Y-57229523D01*
X225097142Y-57153333D01*
X225020952Y-57115238D01*
X224906666Y-57115238D01*
X224830476Y-57077142D01*
X224792380Y-57000952D01*
X224792380Y-56962857D01*
X224830476Y-56886666D01*
X224906666Y-56848571D01*
X225020952Y-56848571D01*
X225097142Y-56886666D01*
X225820952Y-57343809D02*
X225744761Y-57381904D01*
X225592380Y-57381904D01*
X225516190Y-57343809D01*
X225478095Y-57305714D01*
X225440000Y-57229523D01*
X225440000Y-57000952D01*
X225478095Y-56924761D01*
X225516190Y-56886666D01*
X225592380Y-56848571D01*
X225744761Y-56848571D01*
X225820952Y-56886666D01*
X226163809Y-57381904D02*
X226163809Y-56581904D01*
X226506666Y-57381904D02*
X226506666Y-56962857D01*
X226468571Y-56886666D01*
X226392380Y-56848571D01*
X226278095Y-56848571D01*
X226201904Y-56886666D01*
X226163809Y-56924761D01*
X227192380Y-57343809D02*
X227116190Y-57381904D01*
X226963809Y-57381904D01*
X226887619Y-57343809D01*
X226849523Y-57267619D01*
X226849523Y-56962857D01*
X226887619Y-56886666D01*
X226963809Y-56848571D01*
X227116190Y-56848571D01*
X227192380Y-56886666D01*
X227230476Y-56962857D01*
X227230476Y-57039047D01*
X226849523Y-57115238D01*
X227573333Y-57381904D02*
X227573333Y-56848571D01*
X227573333Y-56924761D02*
X227611428Y-56886666D01*
X227687619Y-56848571D01*
X227801904Y-56848571D01*
X227878095Y-56886666D01*
X227916190Y-56962857D01*
X227916190Y-57381904D01*
X227916190Y-56962857D02*
X227954285Y-56886666D01*
X228030476Y-56848571D01*
X228144761Y-56848571D01*
X228220952Y-56886666D01*
X228259047Y-56962857D01*
X228259047Y-57381904D01*
X228982857Y-57381904D02*
X228982857Y-56962857D01*
X228944761Y-56886666D01*
X228868571Y-56848571D01*
X228716190Y-56848571D01*
X228640000Y-56886666D01*
X228982857Y-57343809D02*
X228906666Y-57381904D01*
X228716190Y-57381904D01*
X228640000Y-57343809D01*
X228601904Y-57267619D01*
X228601904Y-57191428D01*
X228640000Y-57115238D01*
X228716190Y-57077142D01*
X228906666Y-57077142D01*
X228982857Y-57039047D01*
X229249523Y-56848571D02*
X229554285Y-56848571D01*
X229363809Y-56581904D02*
X229363809Y-57267619D01*
X229401904Y-57343809D01*
X229478095Y-57381904D01*
X229554285Y-57381904D01*
X229820952Y-57381904D02*
X229820952Y-56848571D01*
X229820952Y-56581904D02*
X229782857Y-56620000D01*
X229820952Y-56658095D01*
X229859047Y-56620000D01*
X229820952Y-56581904D01*
X229820952Y-56658095D01*
X230544761Y-57343809D02*
X230468571Y-57381904D01*
X230316190Y-57381904D01*
X230240000Y-57343809D01*
X230201904Y-57305714D01*
X230163809Y-57229523D01*
X230163809Y-57000952D01*
X230201904Y-56924761D01*
X230240000Y-56886666D01*
X230316190Y-56848571D01*
X230468571Y-56848571D01*
X230544761Y-56886666D01*
X230849523Y-57343809D02*
X230925714Y-57381904D01*
X231078095Y-57381904D01*
X231154285Y-57343809D01*
X231192380Y-57267619D01*
X231192380Y-57229523D01*
X231154285Y-57153333D01*
X231078095Y-57115238D01*
X230963809Y-57115238D01*
X230887619Y-57077142D01*
X230849523Y-57000952D01*
X230849523Y-56962857D01*
X230887619Y-56886666D01*
X230963809Y-56848571D01*
X231078095Y-56848571D01*
X231154285Y-56886666D01*
X232144761Y-57381904D02*
X232144761Y-56581904D01*
X232144761Y-56886666D02*
X232220952Y-56848571D01*
X232373333Y-56848571D01*
X232449523Y-56886666D01*
X232487619Y-56924761D01*
X232525714Y-57000952D01*
X232525714Y-57229523D01*
X232487619Y-57305714D01*
X232449523Y-57343809D01*
X232373333Y-57381904D01*
X232220952Y-57381904D01*
X232144761Y-57343809D01*
X233211428Y-57381904D02*
X233211428Y-56962857D01*
X233173333Y-56886666D01*
X233097142Y-56848571D01*
X232944761Y-56848571D01*
X232868571Y-56886666D01*
X233211428Y-57343809D02*
X233135238Y-57381904D01*
X232944761Y-57381904D01*
X232868571Y-57343809D01*
X232830476Y-57267619D01*
X232830476Y-57191428D01*
X232868571Y-57115238D01*
X232944761Y-57077142D01*
X233135238Y-57077142D01*
X233211428Y-57039047D01*
X233554285Y-57343809D02*
X233630476Y-57381904D01*
X233782857Y-57381904D01*
X233859047Y-57343809D01*
X233897142Y-57267619D01*
X233897142Y-57229523D01*
X233859047Y-57153333D01*
X233782857Y-57115238D01*
X233668571Y-57115238D01*
X233592380Y-57077142D01*
X233554285Y-57000952D01*
X233554285Y-56962857D01*
X233592380Y-56886666D01*
X233668571Y-56848571D01*
X233782857Y-56848571D01*
X233859047Y-56886666D01*
X234544761Y-57343809D02*
X234468571Y-57381904D01*
X234316190Y-57381904D01*
X234240000Y-57343809D01*
X234201904Y-57267619D01*
X234201904Y-56962857D01*
X234240000Y-56886666D01*
X234316190Y-56848571D01*
X234468571Y-56848571D01*
X234544761Y-56886666D01*
X234582857Y-56962857D01*
X234582857Y-57039047D01*
X234201904Y-57115238D01*
X235268571Y-57381904D02*
X235268571Y-56581904D01*
X235268571Y-57343809D02*
X235192380Y-57381904D01*
X235040000Y-57381904D01*
X234963809Y-57343809D01*
X234925714Y-57305714D01*
X234887619Y-57229523D01*
X234887619Y-57000952D01*
X234925714Y-56924761D01*
X234963809Y-56886666D01*
X235040000Y-56848571D01*
X235192380Y-56848571D01*
X235268571Y-56886666D01*
X236373333Y-57381904D02*
X236297142Y-57343809D01*
X236259047Y-57305714D01*
X236220952Y-57229523D01*
X236220952Y-57000952D01*
X236259047Y-56924761D01*
X236297142Y-56886666D01*
X236373333Y-56848571D01*
X236487619Y-56848571D01*
X236563809Y-56886666D01*
X236601904Y-56924761D01*
X236640000Y-57000952D01*
X236640000Y-57229523D01*
X236601904Y-57305714D01*
X236563809Y-57343809D01*
X236487619Y-57381904D01*
X236373333Y-57381904D01*
X236982857Y-56848571D02*
X236982857Y-57381904D01*
X236982857Y-56924761D02*
X237020952Y-56886666D01*
X237097142Y-56848571D01*
X237211428Y-56848571D01*
X237287619Y-56886666D01*
X237325714Y-56962857D01*
X237325714Y-57381904D01*
X238735238Y-56620000D02*
X238659047Y-56581904D01*
X238544761Y-56581904D01*
X238430476Y-56620000D01*
X238354285Y-56696190D01*
X238316190Y-56772380D01*
X238278095Y-56924761D01*
X238278095Y-57039047D01*
X238316190Y-57191428D01*
X238354285Y-57267619D01*
X238430476Y-57343809D01*
X238544761Y-57381904D01*
X238620952Y-57381904D01*
X238735238Y-57343809D01*
X238773333Y-57305714D01*
X238773333Y-57039047D01*
X238620952Y-57039047D01*
X239116190Y-57381904D02*
X239116190Y-56848571D01*
X239116190Y-57000952D02*
X239154285Y-56924761D01*
X239192380Y-56886666D01*
X239268571Y-56848571D01*
X239344761Y-56848571D01*
X239611428Y-57381904D02*
X239611428Y-56848571D01*
X239611428Y-56581904D02*
X239573333Y-56620000D01*
X239611428Y-56658095D01*
X239649523Y-56620000D01*
X239611428Y-56581904D01*
X239611428Y-56658095D01*
X240335238Y-57381904D02*
X240335238Y-56581904D01*
X240335238Y-57343809D02*
X240259047Y-57381904D01*
X240106666Y-57381904D01*
X240030476Y-57343809D01*
X239992380Y-57305714D01*
X239954285Y-57229523D01*
X239954285Y-57000952D01*
X239992380Y-56924761D01*
X240030476Y-56886666D01*
X240106666Y-56848571D01*
X240259047Y-56848571D01*
X240335238Y-56886666D01*
X240678095Y-57343809D02*
X240754285Y-57381904D01*
X240906666Y-57381904D01*
X240982857Y-57343809D01*
X241020952Y-57267619D01*
X241020952Y-57229523D01*
X240982857Y-57153333D01*
X240906666Y-57115238D01*
X240792380Y-57115238D01*
X240716190Y-57077142D01*
X240678095Y-57000952D01*
X240678095Y-56962857D01*
X240716190Y-56886666D01*
X240792380Y-56848571D01*
X240906666Y-56848571D01*
X240982857Y-56886666D01*
X220030476Y-58781904D02*
X220030476Y-57981904D01*
X220030476Y-58286666D02*
X220106666Y-58248571D01*
X220259047Y-58248571D01*
X220335238Y-58286666D01*
X220373333Y-58324761D01*
X220411428Y-58400952D01*
X220411428Y-58629523D01*
X220373333Y-58705714D01*
X220335238Y-58743809D01*
X220259047Y-58781904D01*
X220106666Y-58781904D01*
X220030476Y-58743809D01*
X220678095Y-58248571D02*
X220868571Y-58781904D01*
X221059047Y-58248571D02*
X220868571Y-58781904D01*
X220792380Y-58972380D01*
X220754285Y-59010476D01*
X220678095Y-59048571D01*
X221973333Y-58781904D02*
X221973333Y-57981904D01*
X222240000Y-58553333D01*
X222506666Y-57981904D01*
X222506666Y-58781904D01*
X223230476Y-58248571D02*
X223230476Y-58781904D01*
X222887619Y-58248571D02*
X222887619Y-58667619D01*
X222925714Y-58743809D01*
X223001904Y-58781904D01*
X223116190Y-58781904D01*
X223192380Y-58743809D01*
X223230476Y-58705714D01*
X223497142Y-58248571D02*
X223801904Y-58248571D01*
X223611428Y-57981904D02*
X223611428Y-58667619D01*
X223649523Y-58743809D01*
X223725714Y-58781904D01*
X223801904Y-58781904D01*
X224411428Y-58781904D02*
X224411428Y-58362857D01*
X224373333Y-58286666D01*
X224297142Y-58248571D01*
X224144761Y-58248571D01*
X224068571Y-58286666D01*
X224411428Y-58743809D02*
X224335238Y-58781904D01*
X224144761Y-58781904D01*
X224068571Y-58743809D01*
X224030476Y-58667619D01*
X224030476Y-58591428D01*
X224068571Y-58515238D01*
X224144761Y-58477142D01*
X224335238Y-58477142D01*
X224411428Y-58439047D01*
X224792380Y-58781904D02*
X224792380Y-57981904D01*
X224792380Y-58286666D02*
X224868571Y-58248571D01*
X225020952Y-58248571D01*
X225097142Y-58286666D01*
X225135238Y-58324761D01*
X225173333Y-58400952D01*
X225173333Y-58629523D01*
X225135238Y-58705714D01*
X225097142Y-58743809D01*
X225020952Y-58781904D01*
X224868571Y-58781904D01*
X224792380Y-58743809D01*
X225630476Y-58781904D02*
X225554285Y-58743809D01*
X225516190Y-58667619D01*
X225516190Y-57981904D01*
X226240000Y-58743809D02*
X226163809Y-58781904D01*
X226011428Y-58781904D01*
X225935238Y-58743809D01*
X225897142Y-58667619D01*
X225897142Y-58362857D01*
X225935238Y-58286666D01*
X226011428Y-58248571D01*
X226163809Y-58248571D01*
X226240000Y-58286666D01*
X226278095Y-58362857D01*
X226278095Y-58439047D01*
X225897142Y-58515238D01*
X226620952Y-58477142D02*
X227230476Y-58477142D01*
X227611428Y-58781904D02*
X227611428Y-57981904D01*
X227992380Y-58248571D02*
X227992380Y-58781904D01*
X227992380Y-58324761D02*
X228030476Y-58286666D01*
X228106666Y-58248571D01*
X228220952Y-58248571D01*
X228297142Y-58286666D01*
X228335238Y-58362857D01*
X228335238Y-58781904D01*
X228678095Y-58743809D02*
X228754285Y-58781904D01*
X228906666Y-58781904D01*
X228982857Y-58743809D01*
X229020952Y-58667619D01*
X229020952Y-58629523D01*
X228982857Y-58553333D01*
X228906666Y-58515238D01*
X228792380Y-58515238D01*
X228716190Y-58477142D01*
X228678095Y-58400952D01*
X228678095Y-58362857D01*
X228716190Y-58286666D01*
X228792380Y-58248571D01*
X228906666Y-58248571D01*
X228982857Y-58286666D01*
X229249523Y-58248571D02*
X229554285Y-58248571D01*
X229363809Y-57981904D02*
X229363809Y-58667619D01*
X229401904Y-58743809D01*
X229478095Y-58781904D01*
X229554285Y-58781904D01*
X229820952Y-58781904D02*
X229820952Y-58248571D01*
X229820952Y-58400952D02*
X229859047Y-58324761D01*
X229897142Y-58286666D01*
X229973333Y-58248571D01*
X230049523Y-58248571D01*
X230659047Y-58248571D02*
X230659047Y-58781904D01*
X230316190Y-58248571D02*
X230316190Y-58667619D01*
X230354285Y-58743809D01*
X230430476Y-58781904D01*
X230544761Y-58781904D01*
X230620952Y-58743809D01*
X230659047Y-58705714D01*
X231040000Y-58781904D02*
X231040000Y-58248571D01*
X231040000Y-58324761D02*
X231078095Y-58286666D01*
X231154285Y-58248571D01*
X231268571Y-58248571D01*
X231344761Y-58286666D01*
X231382857Y-58362857D01*
X231382857Y-58781904D01*
X231382857Y-58362857D02*
X231420952Y-58286666D01*
X231497142Y-58248571D01*
X231611428Y-58248571D01*
X231687619Y-58286666D01*
X231725714Y-58362857D01*
X231725714Y-58781904D01*
X232411428Y-58743809D02*
X232335238Y-58781904D01*
X232182857Y-58781904D01*
X232106666Y-58743809D01*
X232068571Y-58667619D01*
X232068571Y-58362857D01*
X232106666Y-58286666D01*
X232182857Y-58248571D01*
X232335238Y-58248571D01*
X232411428Y-58286666D01*
X232449523Y-58362857D01*
X232449523Y-58439047D01*
X232068571Y-58515238D01*
X232792380Y-58248571D02*
X232792380Y-58781904D01*
X232792380Y-58324761D02*
X232830476Y-58286666D01*
X232906666Y-58248571D01*
X233020952Y-58248571D01*
X233097142Y-58286666D01*
X233135238Y-58362857D01*
X233135238Y-58781904D01*
X233401904Y-58248571D02*
X233706666Y-58248571D01*
X233516190Y-57981904D02*
X233516190Y-58667619D01*
X233554285Y-58743809D01*
X233630476Y-58781904D01*
X233706666Y-58781904D01*
X233935238Y-58743809D02*
X234011428Y-58781904D01*
X234163809Y-58781904D01*
X234240000Y-58743809D01*
X234278095Y-58667619D01*
X234278095Y-58629523D01*
X234240000Y-58553333D01*
X234163809Y-58515238D01*
X234049523Y-58515238D01*
X233973333Y-58477142D01*
X233935238Y-58400952D01*
X233935238Y-58362857D01*
X233973333Y-58286666D01*
X234049523Y-58248571D01*
X234163809Y-58248571D01*
X234240000Y-58286666D01*
X234620952Y-58705714D02*
X234659047Y-58743809D01*
X234620952Y-58781904D01*
X234582857Y-58743809D01*
X234620952Y-58705714D01*
X234620952Y-58781904D01*
X235001904Y-58248571D02*
X235001904Y-58781904D01*
X235001904Y-58324761D02*
X235040000Y-58286666D01*
X235116190Y-58248571D01*
X235230476Y-58248571D01*
X235306666Y-58286666D01*
X235344761Y-58362857D01*
X235344761Y-58781904D01*
X236030476Y-58743809D02*
X235954285Y-58781904D01*
X235801904Y-58781904D01*
X235725714Y-58743809D01*
X235687619Y-58667619D01*
X235687619Y-58362857D01*
X235725714Y-58286666D01*
X235801904Y-58248571D01*
X235954285Y-58248571D01*
X236030476Y-58286666D01*
X236068571Y-58362857D01*
X236068571Y-58439047D01*
X235687619Y-58515238D01*
X236297142Y-58248571D02*
X236601904Y-58248571D01*
X236411428Y-57981904D02*
X236411428Y-58667619D01*
X236449523Y-58743809D01*
X236525714Y-58781904D01*
X236601904Y-58781904D01*
X220373333Y-59648571D02*
X220373333Y-60181904D01*
X220030476Y-59648571D02*
X220030476Y-60067619D01*
X220068571Y-60143809D01*
X220144761Y-60181904D01*
X220259047Y-60181904D01*
X220335238Y-60143809D01*
X220373333Y-60105714D01*
X220754285Y-59648571D02*
X220754285Y-60181904D01*
X220754285Y-59724761D02*
X220792380Y-59686666D01*
X220868571Y-59648571D01*
X220982857Y-59648571D01*
X221059047Y-59686666D01*
X221097142Y-59762857D01*
X221097142Y-60181904D01*
X221820952Y-60181904D02*
X221820952Y-59381904D01*
X221820952Y-60143809D02*
X221744761Y-60181904D01*
X221592380Y-60181904D01*
X221516190Y-60143809D01*
X221478095Y-60105714D01*
X221440000Y-60029523D01*
X221440000Y-59800952D01*
X221478095Y-59724761D01*
X221516190Y-59686666D01*
X221592380Y-59648571D01*
X221744761Y-59648571D01*
X221820952Y-59686666D01*
X222506666Y-60143809D02*
X222430476Y-60181904D01*
X222278095Y-60181904D01*
X222201904Y-60143809D01*
X222163809Y-60067619D01*
X222163809Y-59762857D01*
X222201904Y-59686666D01*
X222278095Y-59648571D01*
X222430476Y-59648571D01*
X222506666Y-59686666D01*
X222544761Y-59762857D01*
X222544761Y-59839047D01*
X222163809Y-59915238D01*
X222887619Y-60181904D02*
X222887619Y-59648571D01*
X222887619Y-59800952D02*
X222925714Y-59724761D01*
X222963809Y-59686666D01*
X223040000Y-59648571D01*
X223116190Y-59648571D01*
X224335238Y-60181904D02*
X224335238Y-59762857D01*
X224297142Y-59686666D01*
X224220952Y-59648571D01*
X224068571Y-59648571D01*
X223992380Y-59686666D01*
X224335238Y-60143809D02*
X224259047Y-60181904D01*
X224068571Y-60181904D01*
X223992380Y-60143809D01*
X223954285Y-60067619D01*
X223954285Y-59991428D01*
X223992380Y-59915238D01*
X224068571Y-59877142D01*
X224259047Y-59877142D01*
X224335238Y-59839047D01*
X225668571Y-60143809D02*
X225592380Y-60181904D01*
X225440000Y-60181904D01*
X225363809Y-60143809D01*
X225325714Y-60105714D01*
X225287619Y-60029523D01*
X225287619Y-59800952D01*
X225325714Y-59724761D01*
X225363809Y-59686666D01*
X225440000Y-59648571D01*
X225592380Y-59648571D01*
X225668571Y-59686666D01*
X226354285Y-60143809D02*
X226278095Y-60181904D01*
X226125714Y-60181904D01*
X226049523Y-60143809D01*
X226011428Y-60105714D01*
X225973333Y-60029523D01*
X225973333Y-59800952D01*
X226011428Y-59724761D01*
X226049523Y-59686666D01*
X226125714Y-59648571D01*
X226278095Y-59648571D01*
X226354285Y-59686666D01*
X226697142Y-59877142D02*
X227306666Y-59877142D01*
X227687619Y-60181904D02*
X227687619Y-59381904D01*
X227687619Y-59686666D02*
X227763809Y-59648571D01*
X227916190Y-59648571D01*
X227992380Y-59686666D01*
X228030476Y-59724761D01*
X228068571Y-59800952D01*
X228068571Y-60029523D01*
X228030476Y-60105714D01*
X227992380Y-60143809D01*
X227916190Y-60181904D01*
X227763809Y-60181904D01*
X227687619Y-60143809D01*
X228335238Y-59648571D02*
X228525714Y-60181904D01*
X228716190Y-59648571D02*
X228525714Y-60181904D01*
X228449523Y-60372380D01*
X228411428Y-60410476D01*
X228335238Y-60448571D01*
X229020952Y-59877142D02*
X229630476Y-59877142D01*
X229973333Y-60143809D02*
X230049523Y-60181904D01*
X230201904Y-60181904D01*
X230278095Y-60143809D01*
X230316190Y-60067619D01*
X230316190Y-60029523D01*
X230278095Y-59953333D01*
X230201904Y-59915238D01*
X230087619Y-59915238D01*
X230011428Y-59877142D01*
X229973333Y-59800952D01*
X229973333Y-59762857D01*
X230011428Y-59686666D01*
X230087619Y-59648571D01*
X230201904Y-59648571D01*
X230278095Y-59686666D01*
X231001904Y-60181904D02*
X231001904Y-59762857D01*
X230963809Y-59686666D01*
X230887619Y-59648571D01*
X230735238Y-59648571D01*
X230659047Y-59686666D01*
X231001904Y-60143809D02*
X230925714Y-60181904D01*
X230735238Y-60181904D01*
X230659047Y-60143809D01*
X230620952Y-60067619D01*
X230620952Y-59991428D01*
X230659047Y-59915238D01*
X230735238Y-59877142D01*
X230925714Y-59877142D01*
X231001904Y-59839047D01*
X231916190Y-59381904D02*
X232411428Y-59381904D01*
X232144761Y-59686666D01*
X232259047Y-59686666D01*
X232335238Y-59724761D01*
X232373333Y-59762857D01*
X232411428Y-59839047D01*
X232411428Y-60029523D01*
X232373333Y-60105714D01*
X232335238Y-60143809D01*
X232259047Y-60181904D01*
X232030476Y-60181904D01*
X231954285Y-60143809D01*
X231916190Y-60105714D01*
X232754285Y-60105714D02*
X232792380Y-60143809D01*
X232754285Y-60181904D01*
X232716190Y-60143809D01*
X232754285Y-60105714D01*
X232754285Y-60181904D01*
X233287619Y-59381904D02*
X233363809Y-59381904D01*
X233440000Y-59420000D01*
X233478095Y-59458095D01*
X233516190Y-59534285D01*
X233554285Y-59686666D01*
X233554285Y-59877142D01*
X233516190Y-60029523D01*
X233478095Y-60105714D01*
X233440000Y-60143809D01*
X233363809Y-60181904D01*
X233287619Y-60181904D01*
X233211428Y-60143809D01*
X233173333Y-60105714D01*
X233135238Y-60029523D01*
X233097142Y-59877142D01*
X233097142Y-59686666D01*
X233135238Y-59534285D01*
X233173333Y-59458095D01*
X233211428Y-59420000D01*
X233287619Y-59381904D01*
X234620952Y-60181904D02*
X234544761Y-60143809D01*
X234506666Y-60067619D01*
X234506666Y-59381904D01*
X234925714Y-60181904D02*
X234925714Y-59648571D01*
X234925714Y-59381904D02*
X234887619Y-59420000D01*
X234925714Y-59458095D01*
X234963809Y-59420000D01*
X234925714Y-59381904D01*
X234925714Y-59458095D01*
X235649523Y-60143809D02*
X235573333Y-60181904D01*
X235420952Y-60181904D01*
X235344761Y-60143809D01*
X235306666Y-60105714D01*
X235268571Y-60029523D01*
X235268571Y-59800952D01*
X235306666Y-59724761D01*
X235344761Y-59686666D01*
X235420952Y-59648571D01*
X235573333Y-59648571D01*
X235649523Y-59686666D01*
X236297142Y-60143809D02*
X236220952Y-60181904D01*
X236068571Y-60181904D01*
X235992380Y-60143809D01*
X235954285Y-60067619D01*
X235954285Y-59762857D01*
X235992380Y-59686666D01*
X236068571Y-59648571D01*
X236220952Y-59648571D01*
X236297142Y-59686666D01*
X236335238Y-59762857D01*
X236335238Y-59839047D01*
X235954285Y-59915238D01*
X236678095Y-59648571D02*
X236678095Y-60181904D01*
X236678095Y-59724761D02*
X236716190Y-59686666D01*
X236792380Y-59648571D01*
X236906666Y-59648571D01*
X236982857Y-59686666D01*
X237020952Y-59762857D01*
X237020952Y-60181904D01*
X237363809Y-60143809D02*
X237440000Y-60181904D01*
X237592380Y-60181904D01*
X237668571Y-60143809D01*
X237706666Y-60067619D01*
X237706666Y-60029523D01*
X237668571Y-59953333D01*
X237592380Y-59915238D01*
X237478095Y-59915238D01*
X237401904Y-59877142D01*
X237363809Y-59800952D01*
X237363809Y-59762857D01*
X237401904Y-59686666D01*
X237478095Y-59648571D01*
X237592380Y-59648571D01*
X237668571Y-59686666D01*
X238354285Y-60143809D02*
X238278095Y-60181904D01*
X238125714Y-60181904D01*
X238049523Y-60143809D01*
X238011428Y-60067619D01*
X238011428Y-59762857D01*
X238049523Y-59686666D01*
X238125714Y-59648571D01*
X238278095Y-59648571D01*
X238354285Y-59686666D01*
X238392380Y-59762857D01*
X238392380Y-59839047D01*
X238011428Y-59915238D01*
X238735238Y-60105714D02*
X238773333Y-60143809D01*
X238735238Y-60181904D01*
X238697142Y-60143809D01*
X238735238Y-60105714D01*
X238735238Y-60181904D01*
D11*
X255943571Y-40078928D02*
X254443571Y-39891428D01*
X255943571Y-39221785D01*
X254443571Y-39034285D01*
X255943571Y-37864642D02*
X255157857Y-37766428D01*
X255015000Y-37820000D01*
X254943571Y-37953928D01*
X254943571Y-38239642D01*
X255015000Y-38391428D01*
X255872142Y-37855714D02*
X255943571Y-38007500D01*
X255943571Y-38364642D01*
X255872142Y-38498571D01*
X255729285Y-38552142D01*
X255586428Y-38534285D01*
X255443571Y-38445000D01*
X255372142Y-38293214D01*
X255372142Y-37936071D01*
X255300714Y-37784285D01*
X254943571Y-37025357D02*
X255943571Y-37150357D01*
X255086428Y-37043214D02*
X255015000Y-36962857D01*
X254943571Y-36811071D01*
X254943571Y-36596785D01*
X255015000Y-36462857D01*
X255157857Y-36409285D01*
X255943571Y-36507500D01*
X255943571Y-35578928D02*
X255872142Y-35712857D01*
X255800714Y-35775357D01*
X255657857Y-35828928D01*
X255229285Y-35775357D01*
X255086428Y-35686071D01*
X255015000Y-35605714D01*
X254943571Y-35453928D01*
X254943571Y-35239642D01*
X255015000Y-35105714D01*
X255086428Y-35043214D01*
X255229285Y-34989642D01*
X255657857Y-35043214D01*
X255800714Y-35132500D01*
X255872142Y-35212857D01*
X255943571Y-35364642D01*
X255943571Y-35578928D01*
X254515000Y-33471785D02*
X254443571Y-33605714D01*
X254443571Y-33820000D01*
X254515000Y-34043214D01*
X254657857Y-34203928D01*
X254800714Y-34293214D01*
X255086428Y-34400357D01*
X255300714Y-34427142D01*
X255586428Y-34391428D01*
X255729285Y-34337857D01*
X255872142Y-34212857D01*
X255943571Y-34007500D01*
X255943571Y-33864642D01*
X255872142Y-33641428D01*
X255800714Y-33561071D01*
X255300714Y-33498571D01*
X255300714Y-33784285D01*
X255943571Y-32936071D02*
X254943571Y-32811071D01*
X255229285Y-32846785D02*
X255086428Y-32757500D01*
X255015000Y-32677142D01*
X254943571Y-32525357D01*
X254943571Y-32382500D01*
X255943571Y-32007500D02*
X254943571Y-31882500D01*
X254443571Y-31820000D02*
X254515000Y-31900357D01*
X254586428Y-31837857D01*
X254515000Y-31757500D01*
X254443571Y-31820000D01*
X254586428Y-31837857D01*
X255943571Y-30650357D02*
X254443571Y-30462857D01*
X255872142Y-30641428D02*
X255943571Y-30793214D01*
X255943571Y-31078928D01*
X255872142Y-31212857D01*
X255800714Y-31275357D01*
X255657857Y-31328928D01*
X255229285Y-31275357D01*
X255086428Y-31186071D01*
X255015000Y-31105714D01*
X254943571Y-30953928D01*
X254943571Y-30668214D01*
X255015000Y-30534285D01*
X255872142Y-29998571D02*
X255943571Y-29864642D01*
X255943571Y-29578928D01*
X255872142Y-29427142D01*
X255729285Y-29337857D01*
X255657857Y-29328928D01*
X255515000Y-29382500D01*
X255443571Y-29516428D01*
X255443571Y-29730714D01*
X255372142Y-29864642D01*
X255229285Y-29918214D01*
X255157857Y-29909285D01*
X255015000Y-29820000D01*
X254943571Y-29668214D01*
X254943571Y-29453928D01*
X255015000Y-29320000D01*
X254443571Y-27605714D02*
X255943571Y-27293214D01*
X254443571Y-26605714D01*
X254443571Y-25820000D02*
X254443571Y-25677142D01*
X254515000Y-25543214D01*
X254586428Y-25480714D01*
X254729285Y-25427142D01*
X255015000Y-25391428D01*
X255372142Y-25436071D01*
X255657857Y-25543214D01*
X255800714Y-25632500D01*
X255872142Y-25712857D01*
X255943571Y-25864642D01*
X255943571Y-26007500D01*
X255872142Y-26141428D01*
X255800714Y-26203928D01*
X255657857Y-26257500D01*
X255372142Y-26293214D01*
X255015000Y-26248571D01*
X254729285Y-26141428D01*
X254586428Y-26052142D01*
X254515000Y-25971785D01*
X254443571Y-25820000D01*
X255800714Y-24846785D02*
X255872142Y-24784285D01*
X255943571Y-24864642D01*
X255872142Y-24927142D01*
X255800714Y-24846785D01*
X255943571Y-24864642D01*
X254443571Y-23677142D02*
X254443571Y-23534285D01*
X254515000Y-23400357D01*
X254586428Y-23337857D01*
X254729285Y-23284285D01*
X255015000Y-23248571D01*
X255372142Y-23293214D01*
X255657857Y-23400357D01*
X255800714Y-23489642D01*
X255872142Y-23570000D01*
X255943571Y-23721785D01*
X255943571Y-23864642D01*
X255872142Y-23998571D01*
X255800714Y-24061071D01*
X255657857Y-24114642D01*
X255372142Y-24150357D01*
X255015000Y-24105714D01*
X254729285Y-23998571D01*
X254586428Y-23909285D01*
X254515000Y-23828928D01*
X254443571Y-23677142D01*
X254943571Y-21953928D02*
X255943571Y-22078928D01*
X254372142Y-22239642D02*
X255443571Y-22730714D01*
X255443571Y-21802142D01*
X257707857Y-39480714D02*
X257779285Y-39275357D01*
X257850714Y-39212857D01*
X257993571Y-39159285D01*
X258207857Y-39186071D01*
X258350714Y-39275357D01*
X258422142Y-39355714D01*
X258493571Y-39507500D01*
X258493571Y-40078928D01*
X256993571Y-39891428D01*
X256993571Y-39391428D01*
X257065000Y-39257500D01*
X257136428Y-39195000D01*
X257279285Y-39141428D01*
X257422142Y-39159285D01*
X257565000Y-39248571D01*
X257636428Y-39328928D01*
X257707857Y-39480714D01*
X257707857Y-39980714D01*
X257493571Y-38596785D02*
X258493571Y-38364642D01*
X257493571Y-37882500D02*
X258493571Y-38364642D01*
X258850714Y-38552142D01*
X258922142Y-38632500D01*
X258993571Y-38784285D01*
X258636428Y-35311071D02*
X258565000Y-35445000D01*
X258422142Y-35570000D01*
X258207857Y-35757500D01*
X258136428Y-35891428D01*
X258136428Y-36034285D01*
X258493571Y-36007500D02*
X258422142Y-36141428D01*
X258279285Y-36266428D01*
X257993571Y-36302142D01*
X257493571Y-36239642D01*
X257207857Y-36132500D01*
X257065000Y-35971785D01*
X256993571Y-35820000D01*
X256993571Y-35534285D01*
X257065000Y-35400357D01*
X257207857Y-35275357D01*
X257493571Y-35239642D01*
X257993571Y-35302142D01*
X258279285Y-35409285D01*
X258422142Y-35570000D01*
X258493571Y-35721785D01*
X258493571Y-36007500D01*
X257493571Y-33953928D02*
X258493571Y-34078928D01*
X257493571Y-34596785D02*
X258279285Y-34695000D01*
X258422142Y-34641428D01*
X258493571Y-34507500D01*
X258493571Y-34293214D01*
X258422142Y-34141428D01*
X258350714Y-34061071D01*
X258493571Y-33364642D02*
X257493571Y-33239642D01*
X256993571Y-33177142D02*
X257065000Y-33257500D01*
X257136428Y-33195000D01*
X257065000Y-33114642D01*
X256993571Y-33177142D01*
X257136428Y-33195000D01*
X257493571Y-32525357D02*
X258493571Y-32650357D01*
X257636428Y-32543214D02*
X257565000Y-32462857D01*
X257493571Y-32311071D01*
X257493571Y-32096785D01*
X257565000Y-31962857D01*
X257707857Y-31909285D01*
X258493571Y-32007500D01*
X258493571Y-31293214D02*
X257493571Y-31168214D01*
X256993571Y-31105714D02*
X257065000Y-31186071D01*
X257136428Y-31123571D01*
X257065000Y-31043214D01*
X256993571Y-31105714D01*
X257136428Y-31123571D01*
X258422142Y-29998571D02*
X258493571Y-30150357D01*
X258493571Y-30436071D01*
X258422142Y-30570000D01*
X258279285Y-30623571D01*
X257707857Y-30552142D01*
X257565000Y-30462857D01*
X257493571Y-30311071D01*
X257493571Y-30025357D01*
X257565000Y-29891428D01*
X257707857Y-29837857D01*
X257850714Y-29855714D01*
X257993571Y-30587857D01*
D12*
X219931547Y-62122857D02*
X220122023Y-62122857D01*
X220023809Y-61956190D02*
X219970238Y-62384761D01*
X219988095Y-62432380D01*
X220032738Y-62456190D01*
X220080357Y-62456190D01*
X220247023Y-62456190D02*
X220309523Y-61956190D01*
X220461309Y-62456190D02*
X220494047Y-62194285D01*
X220476190Y-62146666D01*
X220431547Y-62122857D01*
X220360119Y-62122857D01*
X220309523Y-62146666D01*
X220282738Y-62170476D01*
X220699404Y-62456190D02*
X220741071Y-62122857D01*
X220761904Y-61956190D02*
X220735119Y-61980000D01*
X220755952Y-62003809D01*
X220782738Y-61980000D01*
X220761904Y-61956190D01*
X220755952Y-62003809D01*
X220916666Y-62432380D02*
X220961309Y-62456190D01*
X221056547Y-62456190D01*
X221107142Y-62432380D01*
X221136904Y-62384761D01*
X221139880Y-62360952D01*
X221122023Y-62313333D01*
X221077380Y-62289523D01*
X221005952Y-62289523D01*
X220961309Y-62265714D01*
X220943452Y-62218095D01*
X220946428Y-62194285D01*
X220976190Y-62146666D01*
X221026785Y-62122857D01*
X221098214Y-62122857D01*
X221142857Y-62146666D01*
X221723214Y-62456190D02*
X221764880Y-62122857D01*
X221785714Y-61956190D02*
X221758928Y-61980000D01*
X221779761Y-62003809D01*
X221806547Y-61980000D01*
X221785714Y-61956190D01*
X221779761Y-62003809D01*
X221940476Y-62432380D02*
X221985119Y-62456190D01*
X222080357Y-62456190D01*
X222130952Y-62432380D01*
X222160714Y-62384761D01*
X222163690Y-62360952D01*
X222145833Y-62313333D01*
X222101190Y-62289523D01*
X222029761Y-62289523D01*
X221985119Y-62265714D01*
X221967261Y-62218095D01*
X221970238Y-62194285D01*
X222000000Y-62146666D01*
X222050595Y-62122857D01*
X222122023Y-62122857D01*
X222166666Y-62146666D01*
X222747023Y-62456190D02*
X222809523Y-61956190D01*
X223032738Y-62456190D01*
X223095238Y-61956190D01*
X223428571Y-61956190D02*
X223523809Y-61956190D01*
X223568452Y-61980000D01*
X223610119Y-62027619D01*
X223622023Y-62122857D01*
X223601190Y-62289523D01*
X223565476Y-62384761D01*
X223511904Y-62432380D01*
X223461309Y-62456190D01*
X223366071Y-62456190D01*
X223321428Y-62432380D01*
X223279761Y-62384761D01*
X223267857Y-62289523D01*
X223288690Y-62122857D01*
X223324404Y-62027619D01*
X223377976Y-61980000D01*
X223428571Y-61956190D01*
X223785714Y-61956190D02*
X224071428Y-61956190D01*
X223866071Y-62456190D02*
X223928571Y-61956190D01*
X224770833Y-62456190D02*
X224803571Y-62194285D01*
X224785714Y-62146666D01*
X224741071Y-62122857D01*
X224645833Y-62122857D01*
X224595238Y-62146666D01*
X224773809Y-62432380D02*
X224723214Y-62456190D01*
X224604166Y-62456190D01*
X224559523Y-62432380D01*
X224541666Y-62384761D01*
X224547619Y-62337142D01*
X224577380Y-62289523D01*
X224627976Y-62265714D01*
X224747023Y-62265714D01*
X224797619Y-62241904D01*
X225050595Y-62122857D02*
X225008928Y-62456190D01*
X225044642Y-62170476D02*
X225071428Y-62146666D01*
X225122023Y-62122857D01*
X225193452Y-62122857D01*
X225238095Y-62146666D01*
X225255952Y-62194285D01*
X225223214Y-62456190D01*
X225913690Y-62456190D02*
X225869047Y-62432380D01*
X225848214Y-62408571D01*
X225830357Y-62360952D01*
X225848214Y-62218095D01*
X225877976Y-62170476D01*
X225904761Y-62146666D01*
X225955357Y-62122857D01*
X226026785Y-62122857D01*
X226071428Y-62146666D01*
X226092261Y-62170476D01*
X226110119Y-62218095D01*
X226092261Y-62360952D01*
X226062500Y-62408571D01*
X226035714Y-62432380D01*
X225985119Y-62456190D01*
X225913690Y-62456190D01*
X226294642Y-62456190D02*
X226336309Y-62122857D01*
X226324404Y-62218095D02*
X226354166Y-62170476D01*
X226380952Y-62146666D01*
X226431547Y-62122857D01*
X226479166Y-62122857D01*
X226860119Y-62122857D02*
X226809523Y-62527619D01*
X226779761Y-62575238D01*
X226752976Y-62599047D01*
X226702380Y-62622857D01*
X226630952Y-62622857D01*
X226586309Y-62599047D01*
X226821428Y-62432380D02*
X226770833Y-62456190D01*
X226675595Y-62456190D01*
X226630952Y-62432380D01*
X226610119Y-62408571D01*
X226592261Y-62360952D01*
X226610119Y-62218095D01*
X226639880Y-62170476D01*
X226666666Y-62146666D01*
X226717261Y-62122857D01*
X226812500Y-62122857D01*
X226857142Y-62146666D01*
X227056547Y-62456190D02*
X227098214Y-62122857D01*
X227119047Y-61956190D02*
X227092261Y-61980000D01*
X227113095Y-62003809D01*
X227139880Y-61980000D01*
X227119047Y-61956190D01*
X227113095Y-62003809D01*
X227336309Y-62122857D02*
X227294642Y-62456190D01*
X227330357Y-62170476D02*
X227357142Y-62146666D01*
X227407738Y-62122857D01*
X227479166Y-62122857D01*
X227523809Y-62146666D01*
X227541666Y-62194285D01*
X227508928Y-62456190D01*
X227961309Y-62456190D02*
X227994047Y-62194285D01*
X227976190Y-62146666D01*
X227931547Y-62122857D01*
X227836309Y-62122857D01*
X227785714Y-62146666D01*
X227964285Y-62432380D02*
X227913690Y-62456190D01*
X227794642Y-62456190D01*
X227750000Y-62432380D01*
X227732142Y-62384761D01*
X227738095Y-62337142D01*
X227767857Y-62289523D01*
X227818452Y-62265714D01*
X227937500Y-62265714D01*
X227988095Y-62241904D01*
X228270833Y-62456190D02*
X228226190Y-62432380D01*
X228208333Y-62384761D01*
X228261904Y-61956190D01*
X228842261Y-62456190D02*
X228883928Y-62122857D01*
X228877976Y-62170476D02*
X228904761Y-62146666D01*
X228955357Y-62122857D01*
X229026785Y-62122857D01*
X229071428Y-62146666D01*
X229089285Y-62194285D01*
X229056547Y-62456190D01*
X229089285Y-62194285D02*
X229119047Y-62146666D01*
X229169642Y-62122857D01*
X229241071Y-62122857D01*
X229285714Y-62146666D01*
X229303571Y-62194285D01*
X229270833Y-62456190D01*
X229764880Y-62122857D02*
X229723214Y-62456190D01*
X229550595Y-62122857D02*
X229517857Y-62384761D01*
X229535714Y-62432380D01*
X229580357Y-62456190D01*
X229651785Y-62456190D01*
X229702380Y-62432380D01*
X229729166Y-62408571D01*
X229931547Y-62122857D02*
X230122023Y-62122857D01*
X230023809Y-61956190D02*
X229970238Y-62384761D01*
X229988095Y-62432380D01*
X230032738Y-62456190D01*
X230080357Y-62456190D01*
X230461309Y-62456190D02*
X230494047Y-62194285D01*
X230476190Y-62146666D01*
X230431547Y-62122857D01*
X230336309Y-62122857D01*
X230285714Y-62146666D01*
X230464285Y-62432380D02*
X230413690Y-62456190D01*
X230294642Y-62456190D01*
X230250000Y-62432380D01*
X230232142Y-62384761D01*
X230238095Y-62337142D01*
X230267857Y-62289523D01*
X230318452Y-62265714D01*
X230437500Y-62265714D01*
X230488095Y-62241904D01*
X230699404Y-62456190D02*
X230761904Y-61956190D01*
X230738095Y-62146666D02*
X230788690Y-62122857D01*
X230883928Y-62122857D01*
X230928571Y-62146666D01*
X230949404Y-62170476D01*
X230967261Y-62218095D01*
X230949404Y-62360952D01*
X230919642Y-62408571D01*
X230892857Y-62432380D01*
X230842261Y-62456190D01*
X230747023Y-62456190D01*
X230702380Y-62432380D01*
X231223214Y-62456190D02*
X231178571Y-62432380D01*
X231160714Y-62384761D01*
X231214285Y-61956190D01*
X231607142Y-62432380D02*
X231556547Y-62456190D01*
X231461309Y-62456190D01*
X231416666Y-62432380D01*
X231398809Y-62384761D01*
X231422619Y-62194285D01*
X231452380Y-62146666D01*
X231502976Y-62122857D01*
X231598214Y-62122857D01*
X231642857Y-62146666D01*
X231660714Y-62194285D01*
X231654761Y-62241904D01*
X231410714Y-62289523D01*
X232223214Y-62456190D02*
X232264880Y-62122857D01*
X232285714Y-61956190D02*
X232258928Y-61980000D01*
X232279761Y-62003809D01*
X232306547Y-61980000D01*
X232285714Y-61956190D01*
X232279761Y-62003809D01*
X232502976Y-62122857D02*
X232461309Y-62456190D01*
X232497023Y-62170476D02*
X232523809Y-62146666D01*
X232574404Y-62122857D01*
X232645833Y-62122857D01*
X232690476Y-62146666D01*
X232708333Y-62194285D01*
X232675595Y-62456190D01*
X232892857Y-62432380D02*
X232937500Y-62456190D01*
X233032738Y-62456190D01*
X233083333Y-62432380D01*
X233113095Y-62384761D01*
X233116071Y-62360952D01*
X233098214Y-62313333D01*
X233053571Y-62289523D01*
X232982142Y-62289523D01*
X232937500Y-62265714D01*
X232919642Y-62218095D01*
X232922619Y-62194285D01*
X232952380Y-62146666D01*
X233002976Y-62122857D01*
X233074404Y-62122857D01*
X233119047Y-62146666D01*
X233288690Y-62122857D02*
X233479166Y-62122857D01*
X233380952Y-61956190D02*
X233327380Y-62384761D01*
X233345238Y-62432380D01*
X233389880Y-62456190D01*
X233437500Y-62456190D01*
X233604166Y-62456190D02*
X233645833Y-62122857D01*
X233633928Y-62218095D02*
X233663690Y-62170476D01*
X233690476Y-62146666D01*
X233741071Y-62122857D01*
X233788690Y-62122857D01*
X234169642Y-62122857D02*
X234127976Y-62456190D01*
X233955357Y-62122857D02*
X233922619Y-62384761D01*
X233940476Y-62432380D01*
X233985119Y-62456190D01*
X234056547Y-62456190D01*
X234107142Y-62432380D01*
X234133928Y-62408571D01*
X234366071Y-62456190D02*
X234407738Y-62122857D01*
X234401785Y-62170476D02*
X234428571Y-62146666D01*
X234479166Y-62122857D01*
X234550595Y-62122857D01*
X234595238Y-62146666D01*
X234613095Y-62194285D01*
X234580357Y-62456190D01*
X234613095Y-62194285D02*
X234642857Y-62146666D01*
X234693452Y-62122857D01*
X234764880Y-62122857D01*
X234809523Y-62146666D01*
X234827380Y-62194285D01*
X234794642Y-62456190D01*
X235226190Y-62432380D02*
X235175595Y-62456190D01*
X235080357Y-62456190D01*
X235035714Y-62432380D01*
X235017857Y-62384761D01*
X235041666Y-62194285D01*
X235071428Y-62146666D01*
X235122023Y-62122857D01*
X235217261Y-62122857D01*
X235261904Y-62146666D01*
X235279761Y-62194285D01*
X235273809Y-62241904D01*
X235029761Y-62289523D01*
X235502976Y-62122857D02*
X235461309Y-62456190D01*
X235497023Y-62170476D02*
X235523809Y-62146666D01*
X235574404Y-62122857D01*
X235645833Y-62122857D01*
X235690476Y-62146666D01*
X235708333Y-62194285D01*
X235675595Y-62456190D01*
X235883928Y-62122857D02*
X236074404Y-62122857D01*
X235976190Y-61956190D02*
X235922619Y-62384761D01*
X235940476Y-62432380D01*
X235985119Y-62456190D01*
X236032738Y-62456190D01*
X236226190Y-62432380D02*
X236223214Y-62456190D01*
X236193452Y-62503809D01*
X236166666Y-62527619D01*
X236818452Y-62456190D02*
X236860119Y-62122857D01*
X236854166Y-62170476D02*
X236880952Y-62146666D01*
X236931547Y-62122857D01*
X237002976Y-62122857D01*
X237047619Y-62146666D01*
X237065476Y-62194285D01*
X237032738Y-62456190D01*
X237065476Y-62194285D02*
X237095238Y-62146666D01*
X237145833Y-62122857D01*
X237217261Y-62122857D01*
X237261904Y-62146666D01*
X237279761Y-62194285D01*
X237247023Y-62456190D01*
X237741071Y-62122857D02*
X237699404Y-62456190D01*
X237526785Y-62122857D02*
X237494047Y-62384761D01*
X237511904Y-62432380D01*
X237556547Y-62456190D01*
X237627976Y-62456190D01*
X237678571Y-62432380D01*
X237705357Y-62408571D01*
X238154761Y-62432380D02*
X238104166Y-62456190D01*
X238008928Y-62456190D01*
X237964285Y-62432380D01*
X237943452Y-62408571D01*
X237925595Y-62360952D01*
X237943452Y-62218095D01*
X237973214Y-62170476D01*
X238000000Y-62146666D01*
X238050595Y-62122857D01*
X238145833Y-62122857D01*
X238190476Y-62146666D01*
X238366071Y-62456190D02*
X238428571Y-61956190D01*
X238580357Y-62456190D02*
X238613095Y-62194285D01*
X238595238Y-62146666D01*
X238550595Y-62122857D01*
X238479166Y-62122857D01*
X238428571Y-62146666D01*
X238401785Y-62170476D01*
X239270833Y-62456190D02*
X239226190Y-62432380D01*
X239208333Y-62384761D01*
X239261904Y-61956190D01*
X239532738Y-62456190D02*
X239488095Y-62432380D01*
X239467261Y-62408571D01*
X239449404Y-62360952D01*
X239467261Y-62218095D01*
X239497023Y-62170476D01*
X239523809Y-62146666D01*
X239574404Y-62122857D01*
X239645833Y-62122857D01*
X239690476Y-62146666D01*
X239711309Y-62170476D01*
X239729166Y-62218095D01*
X239711309Y-62360952D01*
X239681547Y-62408571D01*
X239654761Y-62432380D01*
X239604166Y-62456190D01*
X239532738Y-62456190D01*
X239907738Y-62122857D02*
X239985119Y-62456190D01*
X240145833Y-62122857D01*
X240488095Y-62432380D02*
X240437500Y-62456190D01*
X240342261Y-62456190D01*
X240297619Y-62432380D01*
X240279761Y-62384761D01*
X240303571Y-62194285D01*
X240333333Y-62146666D01*
X240383928Y-62122857D01*
X240479166Y-62122857D01*
X240523809Y-62146666D01*
X240541666Y-62194285D01*
X240535714Y-62241904D01*
X240291666Y-62289523D01*
X241074404Y-62122857D02*
X241264880Y-62122857D01*
X241104166Y-62456190D02*
X241157738Y-62027619D01*
X241187500Y-61980000D01*
X241238095Y-61956190D01*
X241285714Y-61956190D01*
X241461309Y-62456190D02*
X241416666Y-62432380D01*
X241395833Y-62408571D01*
X241377976Y-62360952D01*
X241395833Y-62218095D01*
X241425595Y-62170476D01*
X241452380Y-62146666D01*
X241502976Y-62122857D01*
X241574404Y-62122857D01*
X241619047Y-62146666D01*
X241639880Y-62170476D01*
X241657738Y-62218095D01*
X241639880Y-62360952D01*
X241610119Y-62408571D01*
X241583333Y-62432380D01*
X241532738Y-62456190D01*
X241461309Y-62456190D01*
X241842261Y-62456190D02*
X241883928Y-62122857D01*
X241872023Y-62218095D02*
X241901785Y-62170476D01*
X241928571Y-62146666D01*
X241979166Y-62122857D01*
X242026785Y-62122857D01*
X242502976Y-62122857D02*
X242693452Y-62122857D01*
X242595238Y-61956190D02*
X242541666Y-62384761D01*
X242559523Y-62432380D01*
X242604166Y-62456190D01*
X242651785Y-62456190D01*
X242818452Y-62456190D02*
X242880952Y-61956190D01*
X243032738Y-62456190D02*
X243065476Y-62194285D01*
X243047619Y-62146666D01*
X243002976Y-62122857D01*
X242931547Y-62122857D01*
X242880952Y-62146666D01*
X242854166Y-62170476D01*
X243464285Y-62432380D02*
X243413690Y-62456190D01*
X243318452Y-62456190D01*
X243273809Y-62432380D01*
X243255952Y-62384761D01*
X243279761Y-62194285D01*
X243309523Y-62146666D01*
X243360119Y-62122857D01*
X243455357Y-62122857D01*
X243500000Y-62146666D01*
X243517857Y-62194285D01*
X243511904Y-62241904D01*
X243267857Y-62289523D01*
X243699404Y-62456190D02*
X243741071Y-62122857D01*
X243735119Y-62170476D02*
X243761904Y-62146666D01*
X243812500Y-62122857D01*
X243883928Y-62122857D01*
X243928571Y-62146666D01*
X243946428Y-62194285D01*
X243913690Y-62456190D01*
X243946428Y-62194285D02*
X243976190Y-62146666D01*
X244026785Y-62122857D01*
X244098214Y-62122857D01*
X244142857Y-62146666D01*
X244160714Y-62194285D01*
X244127976Y-62456190D01*
X244717261Y-62122857D02*
X244907738Y-62122857D01*
X244809523Y-61956190D02*
X244755952Y-62384761D01*
X244773809Y-62432380D01*
X244818452Y-62456190D01*
X244866071Y-62456190D01*
X245032738Y-62456190D02*
X245095238Y-61956190D01*
X245247023Y-62456190D02*
X245279761Y-62194285D01*
X245261904Y-62146666D01*
X245217261Y-62122857D01*
X245145833Y-62122857D01*
X245095238Y-62146666D01*
X245068452Y-62170476D01*
X245556547Y-62456190D02*
X245511904Y-62432380D01*
X245491071Y-62408571D01*
X245473214Y-62360952D01*
X245491071Y-62218095D01*
X245520833Y-62170476D01*
X245547619Y-62146666D01*
X245598214Y-62122857D01*
X245669642Y-62122857D01*
X245714285Y-62146666D01*
X245735119Y-62170476D01*
X245752976Y-62218095D01*
X245735119Y-62360952D01*
X245705357Y-62408571D01*
X245678571Y-62432380D01*
X245627976Y-62456190D01*
X245556547Y-62456190D01*
X246193452Y-62122857D02*
X246151785Y-62456190D01*
X245979166Y-62122857D02*
X245946428Y-62384761D01*
X245964285Y-62432380D01*
X246008928Y-62456190D01*
X246080357Y-62456190D01*
X246130952Y-62432380D01*
X246157738Y-62408571D01*
X246645833Y-62122857D02*
X246595238Y-62527619D01*
X246565476Y-62575238D01*
X246538690Y-62599047D01*
X246488095Y-62622857D01*
X246416666Y-62622857D01*
X246372023Y-62599047D01*
X246607142Y-62432380D02*
X246556547Y-62456190D01*
X246461309Y-62456190D01*
X246416666Y-62432380D01*
X246395833Y-62408571D01*
X246377976Y-62360952D01*
X246395833Y-62218095D01*
X246425595Y-62170476D01*
X246452380Y-62146666D01*
X246502976Y-62122857D01*
X246598214Y-62122857D01*
X246642857Y-62146666D01*
X246842261Y-62456190D02*
X246904761Y-61956190D01*
X247056547Y-62456190D02*
X247089285Y-62194285D01*
X247071428Y-62146666D01*
X247026785Y-62122857D01*
X246955357Y-62122857D01*
X246904761Y-62146666D01*
X246877976Y-62170476D01*
X247300595Y-62408571D02*
X247321428Y-62432380D01*
X247294642Y-62456190D01*
X247273809Y-62432380D01*
X247300595Y-62408571D01*
X247294642Y-62456190D01*
X247318452Y-62265714D02*
X247330357Y-61980000D01*
X247357142Y-61956190D01*
X247377976Y-61980000D01*
X247318452Y-62265714D01*
X247357142Y-61956190D01*
D11*
X227545971Y-68560142D02*
X228688828Y-68560142D01*
X228117400Y-69131571D02*
X228117400Y-67988714D01*
X244411571Y-68788742D02*
X245554428Y-68788742D01*
X244983000Y-69360171D02*
X244983000Y-68217314D01*
X240372971Y-39299342D02*
X241515828Y-39299342D01*
X240944400Y-39870771D02*
X240944400Y-38727914D01*
X260489771Y-68915742D02*
X261632628Y-68915742D01*
X261061200Y-69487171D02*
X261061200Y-68344314D01*
D13*
X235930000Y-38134000D02*
X235930000Y-38290000D01*
X235930000Y-40450000D02*
X235930000Y-40606000D01*
X238531130Y-40449837D02*
G75*
G02*
X236449039Y-40450000I-1041130J1079837D01*
G01*
X238531130Y-38290163D02*
G75*
G03*
X236449039Y-38290000I-1041130J-1079837D01*
G01*
X239162335Y-40448608D02*
G75*
G02*
X235930000Y-40605516I-1672335J1078608D01*
G01*
X239162335Y-38291392D02*
G75*
G03*
X235930000Y-38134484I-1672335J-1078608D01*
G01*
X212430000Y-93290000D02*
X201930000Y-93290000D01*
X212430000Y-102290000D02*
X201930000Y-102290000D01*
X201930000Y-102290000D02*
X201930000Y-98290000D01*
X201930000Y-97290000D02*
X201930000Y-93290000D01*
X212430000Y-102290000D02*
X212430000Y-98140000D01*
X212430000Y-97440000D02*
X212430000Y-93290000D01*
X209730000Y-97790000D02*
G75*
G03*
X209730000Y-97790000I-1800000J0D01*
G01*
X215410000Y-96730000D02*
X214610000Y-96730000D01*
X215410000Y-96730000D02*
X215410000Y-97590000D01*
X229430000Y-20900000D02*
X218930000Y-20900000D01*
X229430000Y-29900000D02*
X218930000Y-29900000D01*
X218930000Y-29900000D02*
X218930000Y-25900000D01*
X218930000Y-24900000D02*
X218930000Y-20900000D01*
X229430000Y-29900000D02*
X229430000Y-25750000D01*
X229430000Y-25050000D02*
X229430000Y-20900000D01*
X226730000Y-25400000D02*
G75*
G03*
X226730000Y-25400000I-1800000J0D01*
G01*
X232410000Y-24340000D02*
X231610000Y-24340000D01*
X232410000Y-24340000D02*
X232410000Y-25200000D01*
X239920000Y-68304000D02*
X239920000Y-68460000D01*
X239920000Y-70620000D02*
X239920000Y-70776000D01*
X242521130Y-70619837D02*
G75*
G02*
X240439039Y-70620000I-1041130J1079837D01*
G01*
X242521130Y-68460163D02*
G75*
G03*
X240439039Y-68460000I-1041130J-1079837D01*
G01*
X243152335Y-70618608D02*
G75*
G02*
X239920000Y-70775516I-1672335J1078608D01*
G01*
X243152335Y-68461392D02*
G75*
G03*
X239920000Y-68304484I-1672335J-1078608D01*
G01*
X262430000Y-93290000D02*
X251930000Y-93290000D01*
X262430000Y-102290000D02*
X251930000Y-102290000D01*
X251930000Y-102290000D02*
X251930000Y-98290000D01*
X251930000Y-97290000D02*
X251930000Y-93290000D01*
X262430000Y-102290000D02*
X262430000Y-98140000D01*
X262430000Y-97440000D02*
X262430000Y-93290000D01*
X259730000Y-97790000D02*
G75*
G03*
X259730000Y-97790000I-1800000J0D01*
G01*
X265410000Y-96730000D02*
X264610000Y-96730000D01*
X265410000Y-96730000D02*
X265410000Y-97590000D01*
X223320000Y-68304000D02*
X223320000Y-68460000D01*
X223320000Y-70620000D02*
X223320000Y-70776000D01*
X225921130Y-70619837D02*
G75*
G02*
X223839039Y-70620000I-1041130J1079837D01*
G01*
X225921130Y-68460163D02*
G75*
G03*
X223839039Y-68460000I-1041130J-1079837D01*
G01*
X226552335Y-70618608D02*
G75*
G02*
X223320000Y-70775516I-1672335J1078608D01*
G01*
X226552335Y-68461392D02*
G75*
G03*
X223320000Y-68304484I-1672335J-1078608D01*
G01*
X212430000Y-104720000D02*
X201930000Y-104720000D01*
X212430000Y-113720000D02*
X201930000Y-113720000D01*
X201930000Y-113720000D02*
X201930000Y-109720000D01*
X201930000Y-108720000D02*
X201930000Y-104720000D01*
X212430000Y-113720000D02*
X212430000Y-109570000D01*
X212430000Y-108870000D02*
X212430000Y-104720000D01*
X209730000Y-109220000D02*
G75*
G03*
X209730000Y-109220000I-1800000J0D01*
G01*
X215410000Y-108160000D02*
X214610000Y-108160000D01*
X215410000Y-108160000D02*
X215410000Y-109020000D01*
X246430000Y-116150000D02*
X235930000Y-116150000D01*
X246430000Y-125150000D02*
X235930000Y-125150000D01*
X235930000Y-125150000D02*
X235930000Y-121150000D01*
X235930000Y-120150000D02*
X235930000Y-116150000D01*
X246430000Y-125150000D02*
X246430000Y-121000000D01*
X246430000Y-120300000D02*
X246430000Y-116150000D01*
X243730000Y-120650000D02*
G75*
G03*
X243730000Y-120650000I-1800000J0D01*
G01*
X249410000Y-119590000D02*
X248610000Y-119590000D01*
X249410000Y-119590000D02*
X249410000Y-120450000D01*
X212430000Y-62810000D02*
X201930000Y-62810000D01*
X212430000Y-71810000D02*
X201930000Y-71810000D01*
X201930000Y-71810000D02*
X201930000Y-67810000D01*
X201930000Y-66810000D02*
X201930000Y-62810000D01*
X212430000Y-71810000D02*
X212430000Y-67660000D01*
X212430000Y-66960000D02*
X212430000Y-62810000D01*
X209730000Y-67310000D02*
G75*
G03*
X209730000Y-67310000I-1800000J0D01*
G01*
X215410000Y-66250000D02*
X214610000Y-66250000D01*
X215410000Y-66250000D02*
X215410000Y-67110000D01*
X237220000Y-53760000D02*
X241720000Y-53760000D01*
X235970000Y-49760000D02*
X235970000Y-51260000D01*
X241720000Y-47260000D02*
X237220000Y-47260000D01*
X242970000Y-51260000D02*
X242970000Y-49760000D01*
X229430000Y-104720000D02*
X218930000Y-104720000D01*
X229430000Y-113720000D02*
X218930000Y-113720000D01*
X218930000Y-113720000D02*
X218930000Y-109720000D01*
X218930000Y-108720000D02*
X218930000Y-104720000D01*
X229430000Y-113720000D02*
X229430000Y-109570000D01*
X229430000Y-108870000D02*
X229430000Y-104720000D01*
X226730000Y-109220000D02*
G75*
G03*
X226730000Y-109220000I-1800000J0D01*
G01*
X232410000Y-108160000D02*
X231610000Y-108160000D01*
X232410000Y-108160000D02*
X232410000Y-109020000D01*
X229430000Y-33600000D02*
X218930000Y-33600000D01*
X229430000Y-42600000D02*
X218930000Y-42600000D01*
X218930000Y-42600000D02*
X218930000Y-38600000D01*
X218930000Y-37600000D02*
X218930000Y-33600000D01*
X229430000Y-42600000D02*
X229430000Y-38450000D01*
X229430000Y-37750000D02*
X229430000Y-33600000D01*
X226730000Y-38100000D02*
G75*
G03*
X226730000Y-38100000I-1800000J0D01*
G01*
X232410000Y-37040000D02*
X231610000Y-37040000D01*
X232410000Y-37040000D02*
X232410000Y-37900000D01*
X262430000Y-104720000D02*
X251930000Y-104720000D01*
X262430000Y-113720000D02*
X251930000Y-113720000D01*
X251930000Y-113720000D02*
X251930000Y-109720000D01*
X251930000Y-108720000D02*
X251930000Y-104720000D01*
X262430000Y-113720000D02*
X262430000Y-109570000D01*
X262430000Y-108870000D02*
X262430000Y-104720000D01*
X259730000Y-109220000D02*
G75*
G03*
X259730000Y-109220000I-1800000J0D01*
G01*
X265410000Y-108160000D02*
X264610000Y-108160000D01*
X265410000Y-108160000D02*
X265410000Y-109020000D01*
X229430000Y-93290000D02*
X218930000Y-93290000D01*
X229430000Y-102290000D02*
X218930000Y-102290000D01*
X218930000Y-102290000D02*
X218930000Y-98290000D01*
X218930000Y-97290000D02*
X218930000Y-93290000D01*
X229430000Y-102290000D02*
X229430000Y-98140000D01*
X229430000Y-97440000D02*
X229430000Y-93290000D01*
X226730000Y-97790000D02*
G75*
G03*
X226730000Y-97790000I-1800000J0D01*
G01*
X232410000Y-96730000D02*
X231610000Y-96730000D01*
X232410000Y-96730000D02*
X232410000Y-97590000D01*
X262430000Y-116150000D02*
X251930000Y-116150000D01*
X262430000Y-125150000D02*
X251930000Y-125150000D01*
X251930000Y-125150000D02*
X251930000Y-121150000D01*
X251930000Y-120150000D02*
X251930000Y-116150000D01*
X262430000Y-125150000D02*
X262430000Y-121000000D01*
X262430000Y-120300000D02*
X262430000Y-116150000D01*
X259730000Y-120650000D02*
G75*
G03*
X259730000Y-120650000I-1800000J0D01*
G01*
X265410000Y-119590000D02*
X264610000Y-119590000D01*
X265410000Y-119590000D02*
X265410000Y-120450000D01*
X246430000Y-104720000D02*
X235930000Y-104720000D01*
X246430000Y-113720000D02*
X235930000Y-113720000D01*
X235930000Y-113720000D02*
X235930000Y-109720000D01*
X235930000Y-108720000D02*
X235930000Y-104720000D01*
X246430000Y-113720000D02*
X246430000Y-109570000D01*
X246430000Y-108870000D02*
X246430000Y-104720000D01*
X243730000Y-109220000D02*
G75*
G03*
X243730000Y-109220000I-1800000J0D01*
G01*
X249410000Y-108160000D02*
X248610000Y-108160000D01*
X249410000Y-108160000D02*
X249410000Y-109020000D01*
X256120000Y-68614000D02*
X256120000Y-68770000D01*
X256120000Y-70930000D02*
X256120000Y-71086000D01*
X258721130Y-70929837D02*
G75*
G02*
X256639039Y-70930000I-1041130J1079837D01*
G01*
X258721130Y-68770163D02*
G75*
G03*
X256639039Y-68770000I-1041130J-1079837D01*
G01*
X259352335Y-70928608D02*
G75*
G02*
X256120000Y-71085516I-1672335J1078608D01*
G01*
X259352335Y-68771392D02*
G75*
G03*
X256120000Y-68614484I-1672335J-1078608D01*
G01*
X229430000Y-116150000D02*
X218930000Y-116150000D01*
X229430000Y-125150000D02*
X218930000Y-125150000D01*
X218930000Y-125150000D02*
X218930000Y-121150000D01*
X218930000Y-120150000D02*
X218930000Y-116150000D01*
X229430000Y-125150000D02*
X229430000Y-121000000D01*
X229430000Y-120300000D02*
X229430000Y-116150000D01*
X226730000Y-120650000D02*
G75*
G03*
X226730000Y-120650000I-1800000J0D01*
G01*
X232410000Y-119590000D02*
X231610000Y-119590000D01*
X232410000Y-119590000D02*
X232410000Y-120450000D01*
X246430000Y-93290000D02*
X235930000Y-93290000D01*
X246430000Y-102290000D02*
X235930000Y-102290000D01*
X235930000Y-102290000D02*
X235930000Y-98290000D01*
X235930000Y-97290000D02*
X235930000Y-93290000D01*
X246430000Y-102290000D02*
X246430000Y-98140000D01*
X246430000Y-97440000D02*
X246430000Y-93290000D01*
X243730000Y-97790000D02*
G75*
G03*
X243730000Y-97790000I-1800000J0D01*
G01*
X249410000Y-96730000D02*
X248610000Y-96730000D01*
X249410000Y-96730000D02*
X249410000Y-97590000D01*
X212430000Y-36140000D02*
X201930000Y-36140000D01*
X212430000Y-45140000D02*
X201930000Y-45140000D01*
X201930000Y-45140000D02*
X201930000Y-41140000D01*
X201930000Y-40140000D02*
X201930000Y-36140000D01*
X212430000Y-45140000D02*
X212430000Y-40990000D01*
X212430000Y-40290000D02*
X212430000Y-36140000D01*
X209730000Y-40640000D02*
G75*
G03*
X209730000Y-40640000I-1800000J0D01*
G01*
X215410000Y-39580000D02*
X214610000Y-39580000D01*
X215410000Y-39580000D02*
X215410000Y-40440000D01*
X212430000Y-116150000D02*
X201930000Y-116150000D01*
X212430000Y-125150000D02*
X201930000Y-125150000D01*
X201930000Y-125150000D02*
X201930000Y-121150000D01*
X201930000Y-120150000D02*
X201930000Y-116150000D01*
X212430000Y-125150000D02*
X212430000Y-121000000D01*
X212430000Y-120300000D02*
X212430000Y-116150000D01*
X209730000Y-120650000D02*
G75*
G03*
X209730000Y-120650000I-1800000J0D01*
G01*
X215410000Y-119590000D02*
X214610000Y-119590000D01*
X215410000Y-119590000D02*
X215410000Y-120450000D01*
X237269000Y-32020000D02*
X237269000Y-28083000D01*
X237269000Y-23716000D02*
X237269000Y-19780000D01*
X247310000Y-32020000D02*
X247310000Y-28083000D01*
X247310000Y-23716000D02*
X247310000Y-19780000D01*
X237269000Y-32020000D02*
X238919000Y-32020000D01*
X240661000Y-32020000D02*
X241420000Y-32020000D01*
X243161000Y-32020000D02*
X243920000Y-32020000D01*
X245660000Y-32020000D02*
X247310000Y-32020000D01*
X237269000Y-19780000D02*
X247310000Y-19780000D01*
X219889000Y-89170000D02*
X219889000Y-85233000D01*
X219889000Y-80866000D02*
X219889000Y-76930000D01*
X229930000Y-89170000D02*
X229930000Y-85233000D01*
X229930000Y-80866000D02*
X229930000Y-76930000D01*
X219889000Y-89170000D02*
X221539000Y-89170000D01*
X223281000Y-89170000D02*
X224040000Y-89170000D01*
X225781000Y-89170000D02*
X226540000Y-89170000D01*
X228280000Y-89170000D02*
X229930000Y-89170000D01*
X219889000Y-76930000D02*
X229930000Y-76930000D01*
X236889000Y-89170000D02*
X236889000Y-85233000D01*
X236889000Y-80866000D02*
X236889000Y-76930000D01*
X246930000Y-89170000D02*
X246930000Y-85233000D01*
X246930000Y-80866000D02*
X246930000Y-76930000D01*
X236889000Y-89170000D02*
X238539000Y-89170000D01*
X240281000Y-89170000D02*
X241040000Y-89170000D01*
X242781000Y-89170000D02*
X243540000Y-89170000D01*
X245280000Y-89170000D02*
X246930000Y-89170000D01*
X236889000Y-76930000D02*
X246930000Y-76930000D01*
X252889000Y-89170000D02*
X252889000Y-85233000D01*
X252889000Y-80866000D02*
X252889000Y-76930000D01*
X262930000Y-89170000D02*
X262930000Y-85233000D01*
X262930000Y-80866000D02*
X262930000Y-76930000D01*
X252889000Y-89170000D02*
X254539000Y-89170000D01*
X256281000Y-89170000D02*
X257040000Y-89170000D01*
X258781000Y-89170000D02*
X259540000Y-89170000D01*
X261280000Y-89170000D02*
X262930000Y-89170000D01*
X252889000Y-76930000D02*
X262930000Y-76930000D01*
X201740000Y-89170000D02*
X201740000Y-84504000D01*
X201740000Y-80595000D02*
X201740000Y-77580000D01*
X214080000Y-89170000D02*
X214080000Y-84504000D01*
X214080000Y-80595000D02*
X214080000Y-77580000D01*
X201740000Y-89170000D02*
X204539000Y-89170000D01*
X206281000Y-89170000D02*
X207040000Y-89170000D01*
X208781000Y-89170000D02*
X209540000Y-89170000D01*
X211280000Y-89170000D02*
X214080000Y-89170000D01*
X201740000Y-77580000D02*
X214080000Y-77580000D01*
X202889000Y-32140000D02*
X202889000Y-28203000D01*
X202889000Y-23836000D02*
X202889000Y-19900000D01*
X212930000Y-32140000D02*
X212930000Y-28203000D01*
X212930000Y-23836000D02*
X212930000Y-19900000D01*
X202889000Y-32140000D02*
X204539000Y-32140000D01*
X206281000Y-32140000D02*
X207040000Y-32140000D01*
X208781000Y-32140000D02*
X209540000Y-32140000D01*
X211280000Y-32140000D02*
X212930000Y-32140000D01*
X202889000Y-19900000D02*
X212930000Y-19900000D01*
X202889000Y-58810000D02*
X202889000Y-54873000D01*
X202889000Y-50506000D02*
X202889000Y-46570000D01*
X212930000Y-58810000D02*
X212930000Y-54873000D01*
X212930000Y-50506000D02*
X212930000Y-46570000D01*
X202889000Y-58810000D02*
X204539000Y-58810000D01*
X206281000Y-58810000D02*
X207040000Y-58810000D01*
X208781000Y-58810000D02*
X209540000Y-58810000D01*
X211280000Y-58810000D02*
X212930000Y-58810000D01*
X202889000Y-46570000D02*
X212930000Y-46570000D01*
D14*
G36*
X221231900Y-53391903D02*
G01*
X221343450Y-53447522D01*
X221441908Y-53549931D01*
X221469023Y-53587864D01*
X221498562Y-53637500D01*
X221517728Y-53691412D01*
X221528693Y-53763364D01*
X221533629Y-53867122D01*
X221534713Y-54004101D01*
X221529818Y-54191815D01*
X221512804Y-54332758D01*
X221480177Y-54437908D01*
X221428442Y-54518243D01*
X221354104Y-54584741D01*
X221348642Y-54588678D01*
X221275380Y-54628953D01*
X221187160Y-54648880D01*
X221074962Y-54653793D01*
X220892567Y-54653793D01*
X220892491Y-54830857D01*
X220890793Y-54929470D01*
X220880450Y-54987314D01*
X220853422Y-55022006D01*
X220801668Y-55051164D01*
X220789239Y-55057121D01*
X220731077Y-55085039D01*
X220686044Y-55102672D01*
X220652559Y-55104194D01*
X220629038Y-55083781D01*
X220613900Y-55035607D01*
X220605563Y-54953846D01*
X220602444Y-54832672D01*
X220602960Y-54666260D01*
X220605529Y-54448785D01*
X220606332Y-54383736D01*
X220609222Y-54159502D01*
X220611812Y-54012821D01*
X220892414Y-54012821D01*
X220893991Y-54137326D01*
X220901000Y-54218787D01*
X220916858Y-54272515D01*
X220944981Y-54313823D01*
X220964075Y-54333971D01*
X221042135Y-54392921D01*
X221111247Y-54397720D01*
X221182560Y-54349038D01*
X221184368Y-54347241D01*
X221213383Y-54309618D01*
X221231033Y-54258484D01*
X221239936Y-54179738D01*
X221242709Y-54059276D01*
X221242759Y-54032588D01*
X221236058Y-53866583D01*
X221214248Y-53751505D01*
X221174765Y-53681254D01*
X221115044Y-53649729D01*
X221080528Y-53646552D01*
X220998611Y-53661460D01*
X220942421Y-53710548D01*
X220908598Y-53800362D01*
X220893780Y-53937445D01*
X220892414Y-54012821D01*
X220611812Y-54012821D01*
X220612287Y-53985952D01*
X220616247Y-53855382D01*
X220621826Y-53760087D01*
X220629746Y-53692364D01*
X220640731Y-53644507D01*
X220655501Y-53608813D01*
X220674782Y-53577578D01*
X220683049Y-53565824D01*
X220792712Y-53454797D01*
X220931365Y-53391847D01*
X221091754Y-53374297D01*
X221231900Y-53391903D01*
G37*
X221231900Y-53391903D02*
X221343450Y-53447522D01*
X221441908Y-53549931D01*
X221469023Y-53587864D01*
X221498562Y-53637500D01*
X221517728Y-53691412D01*
X221528693Y-53763364D01*
X221533629Y-53867122D01*
X221534713Y-54004101D01*
X221529818Y-54191815D01*
X221512804Y-54332758D01*
X221480177Y-54437908D01*
X221428442Y-54518243D01*
X221354104Y-54584741D01*
X221348642Y-54588678D01*
X221275380Y-54628953D01*
X221187160Y-54648880D01*
X221074962Y-54653793D01*
X220892567Y-54653793D01*
X220892491Y-54830857D01*
X220890793Y-54929470D01*
X220880450Y-54987314D01*
X220853422Y-55022006D01*
X220801668Y-55051164D01*
X220789239Y-55057121D01*
X220731077Y-55085039D01*
X220686044Y-55102672D01*
X220652559Y-55104194D01*
X220629038Y-55083781D01*
X220613900Y-55035607D01*
X220605563Y-54953846D01*
X220602444Y-54832672D01*
X220602960Y-54666260D01*
X220605529Y-54448785D01*
X220606332Y-54383736D01*
X220609222Y-54159502D01*
X220611812Y-54012821D01*
X220892414Y-54012821D01*
X220893991Y-54137326D01*
X220901000Y-54218787D01*
X220916858Y-54272515D01*
X220944981Y-54313823D01*
X220964075Y-54333971D01*
X221042135Y-54392921D01*
X221111247Y-54397720D01*
X221182560Y-54349038D01*
X221184368Y-54347241D01*
X221213383Y-54309618D01*
X221231033Y-54258484D01*
X221239936Y-54179738D01*
X221242709Y-54059276D01*
X221242759Y-54032588D01*
X221236058Y-53866583D01*
X221214248Y-53751505D01*
X221174765Y-53681254D01*
X221115044Y-53649729D01*
X221080528Y-53646552D01*
X220998611Y-53661460D01*
X220942421Y-53710548D01*
X220908598Y-53800362D01*
X220893780Y-53937445D01*
X220892414Y-54012821D01*
X220611812Y-54012821D01*
X220612287Y-53985952D01*
X220616247Y-53855382D01*
X220621826Y-53760087D01*
X220629746Y-53692364D01*
X220640731Y-53644507D01*
X220655501Y-53608813D01*
X220674782Y-53577578D01*
X220683049Y-53565824D01*
X220792712Y-53454797D01*
X220931365Y-53391847D01*
X221091754Y-53374297D01*
X221231900Y-53391903D01*
G36*
X223477429Y-53407719D02*
G01*
X223571123Y-53461914D01*
X223636264Y-53515707D01*
X223683907Y-53572066D01*
X223716728Y-53640987D01*
X223737406Y-53732468D01*
X223748620Y-53856506D01*
X223753049Y-54023098D01*
X223753563Y-54142851D01*
X223753563Y-54583659D01*
X223629483Y-54639283D01*
X223505402Y-54694907D01*
X223490805Y-54212095D01*
X223484773Y-54031779D01*
X223478445Y-53900901D01*
X223470606Y-53810511D01*
X223460037Y-53751664D01*
X223445523Y-53715413D01*
X223425848Y-53692810D01*
X223419535Y-53687917D01*
X223323888Y-53649706D01*
X223227207Y-53664827D01*
X223169655Y-53704943D01*
X223146245Y-53733370D01*
X223130039Y-53770672D01*
X223119741Y-53827223D01*
X223114049Y-53913394D01*
X223111664Y-54039558D01*
X223111264Y-54171042D01*
X223111186Y-54335999D01*
X223108361Y-54452761D01*
X223098907Y-54531510D01*
X223078940Y-54582431D01*
X223044576Y-54615706D01*
X222991932Y-54641520D01*
X222921617Y-54668344D01*
X222844820Y-54697542D01*
X222853962Y-54179346D01*
X222857643Y-53992539D01*
X222861950Y-53854490D01*
X222868123Y-53755568D01*
X222877402Y-53686145D01*
X222891027Y-53636590D01*
X222910239Y-53597273D01*
X222933402Y-53562584D01*
X223045152Y-53451770D01*
X223181513Y-53387689D01*
X223329825Y-53372339D01*
X223477429Y-53407719D01*
G37*
X223477429Y-53407719D02*
X223571123Y-53461914D01*
X223636264Y-53515707D01*
X223683907Y-53572066D01*
X223716728Y-53640987D01*
X223737406Y-53732468D01*
X223748620Y-53856506D01*
X223753049Y-54023098D01*
X223753563Y-54142851D01*
X223753563Y-54583659D01*
X223629483Y-54639283D01*
X223505402Y-54694907D01*
X223490805Y-54212095D01*
X223484773Y-54031779D01*
X223478445Y-53900901D01*
X223470606Y-53810511D01*
X223460037Y-53751664D01*
X223445523Y-53715413D01*
X223425848Y-53692810D01*
X223419535Y-53687917D01*
X223323888Y-53649706D01*
X223227207Y-53664827D01*
X223169655Y-53704943D01*
X223146245Y-53733370D01*
X223130039Y-53770672D01*
X223119741Y-53827223D01*
X223114049Y-53913394D01*
X223111664Y-54039558D01*
X223111264Y-54171042D01*
X223111186Y-54335999D01*
X223108361Y-54452761D01*
X223098907Y-54531510D01*
X223078940Y-54582431D01*
X223044576Y-54615706D01*
X222991932Y-54641520D01*
X222921617Y-54668344D01*
X222844820Y-54697542D01*
X222853962Y-54179346D01*
X222857643Y-53992539D01*
X222861950Y-53854490D01*
X222868123Y-53755568D01*
X222877402Y-53686145D01*
X222891027Y-53636590D01*
X222910239Y-53597273D01*
X222933402Y-53562584D01*
X223045152Y-53451770D01*
X223181513Y-53387689D01*
X223329825Y-53372339D01*
X223477429Y-53407719D01*
G36*
X220108221Y-53396015D02*
G01*
X220245061Y-53467968D01*
X220346051Y-53583766D01*
X220381925Y-53658213D01*
X220409839Y-53769992D01*
X220424129Y-53911227D01*
X220425484Y-54065371D01*
X220414595Y-54215879D01*
X220392153Y-54346205D01*
X220358850Y-54439803D01*
X220348615Y-54455922D01*
X220227382Y-54576249D01*
X220083387Y-54648317D01*
X219927139Y-54669408D01*
X219769148Y-54636802D01*
X219725180Y-54617253D01*
X219639556Y-54557012D01*
X219564408Y-54477135D01*
X219557306Y-54467004D01*
X219528439Y-54418181D01*
X219509357Y-54365990D01*
X219498084Y-54297285D01*
X219492645Y-54198918D01*
X219491062Y-54057744D01*
X219491035Y-54026092D01*
X219491107Y-54016019D01*
X219782989Y-54016019D01*
X219784687Y-54149256D01*
X219791372Y-54237674D01*
X219805425Y-54294785D01*
X219829229Y-54334102D01*
X219841379Y-54347241D01*
X219911236Y-54397172D01*
X219979059Y-54394895D01*
X220047635Y-54351584D01*
X220088535Y-54305346D01*
X220112758Y-54237857D01*
X220126361Y-54131433D01*
X220127294Y-54119020D01*
X220129616Y-53926147D01*
X220105350Y-53782900D01*
X220054824Y-53690160D01*
X219978368Y-53648807D01*
X219951076Y-53646552D01*
X219879411Y-53657893D01*
X219830390Y-53697184D01*
X219800418Y-53772326D01*
X219785899Y-53891222D01*
X219782989Y-54016019D01*
X219491107Y-54016019D01*
X219492122Y-53875659D01*
X219496688Y-53770549D01*
X219506688Y-53697714D01*
X219524079Y-53644108D01*
X219550816Y-53596681D01*
X219556724Y-53587864D01*
X219656032Y-53469007D01*
X219764242Y-53400008D01*
X219895981Y-53372619D01*
X219940717Y-53371281D01*
X220108221Y-53396015D01*
G37*
X220108221Y-53396015D02*
X220245061Y-53467968D01*
X220346051Y-53583766D01*
X220381925Y-53658213D01*
X220409839Y-53769992D01*
X220424129Y-53911227D01*
X220425484Y-54065371D01*
X220414595Y-54215879D01*
X220392153Y-54346205D01*
X220358850Y-54439803D01*
X220348615Y-54455922D01*
X220227382Y-54576249D01*
X220083387Y-54648317D01*
X219927139Y-54669408D01*
X219769148Y-54636802D01*
X219725180Y-54617253D01*
X219639556Y-54557012D01*
X219564408Y-54477135D01*
X219557306Y-54467004D01*
X219528439Y-54418181D01*
X219509357Y-54365990D01*
X219498084Y-54297285D01*
X219492645Y-54198918D01*
X219491062Y-54057744D01*
X219491035Y-54026092D01*
X219491107Y-54016019D01*
X219782989Y-54016019D01*
X219784687Y-54149256D01*
X219791372Y-54237674D01*
X219805425Y-54294785D01*
X219829229Y-54334102D01*
X219841379Y-54347241D01*
X219911236Y-54397172D01*
X219979059Y-54394895D01*
X220047635Y-54351584D01*
X220088535Y-54305346D01*
X220112758Y-54237857D01*
X220126361Y-54131433D01*
X220127294Y-54119020D01*
X220129616Y-53926147D01*
X220105350Y-53782900D01*
X220054824Y-53690160D01*
X219978368Y-53648807D01*
X219951076Y-53646552D01*
X219879411Y-53657893D01*
X219830390Y-53697184D01*
X219800418Y-53772326D01*
X219785899Y-53891222D01*
X219782989Y-54016019D01*
X219491107Y-54016019D01*
X219492122Y-53875659D01*
X219496688Y-53770549D01*
X219506688Y-53697714D01*
X219524079Y-53644108D01*
X219550816Y-53596681D01*
X219556724Y-53587864D01*
X219656032Y-53469007D01*
X219764242Y-53400008D01*
X219895981Y-53372619D01*
X219940717Y-53371281D01*
X220108221Y-53396015D01*
G36*
X222375552Y-53414676D02*
G01*
X222490658Y-53492111D01*
X222579611Y-53603949D01*
X222632749Y-53746265D01*
X222643497Y-53851015D01*
X222642276Y-53894726D01*
X222632056Y-53928194D01*
X222603961Y-53958179D01*
X222549116Y-53991440D01*
X222458645Y-54034738D01*
X222323672Y-54094833D01*
X222322989Y-54095134D01*
X222198751Y-54152037D01*
X222096873Y-54202565D01*
X222027767Y-54241280D01*
X222001846Y-54262740D01*
X222001839Y-54262913D01*
X222024685Y-54309644D01*
X222078109Y-54361154D01*
X222139442Y-54398261D01*
X222170515Y-54405632D01*
X222255289Y-54380138D01*
X222328293Y-54316291D01*
X222363913Y-54246094D01*
X222398180Y-54194343D01*
X222465303Y-54135409D01*
X222544208Y-54084496D01*
X222613821Y-54056809D01*
X222628377Y-54055287D01*
X222644763Y-54080321D01*
X222645750Y-54144311D01*
X222633708Y-54230593D01*
X222611007Y-54322501D01*
X222580014Y-54403369D01*
X222578448Y-54406509D01*
X222485181Y-54536734D01*
X222364304Y-54625311D01*
X222227027Y-54668786D01*
X222084560Y-54663706D01*
X221948112Y-54606616D01*
X221942045Y-54602602D01*
X221834710Y-54505326D01*
X221764132Y-54378409D01*
X221725074Y-54211526D01*
X221719832Y-54164639D01*
X221710548Y-53943329D01*
X221721678Y-53840124D01*
X222001839Y-53840124D01*
X222005479Y-53904503D01*
X222025389Y-53923291D01*
X222075026Y-53909235D01*
X222153267Y-53876009D01*
X222240726Y-53834359D01*
X222242899Y-53833256D01*
X222317030Y-53794265D01*
X222346781Y-53768244D01*
X222339445Y-53740965D01*
X222308553Y-53705121D01*
X222229960Y-53653251D01*
X222145323Y-53649439D01*
X222069403Y-53687189D01*
X222016965Y-53760001D01*
X222001839Y-53840124D01*
X221721678Y-53840124D01*
X221729644Y-53766261D01*
X221778634Y-53625829D01*
X221846836Y-53527447D01*
X221969935Y-53428030D01*
X222105528Y-53378711D01*
X222243955Y-53375568D01*
X222375552Y-53414676D01*
G37*
X222375552Y-53414676D02*
X222490658Y-53492111D01*
X222579611Y-53603949D01*
X222632749Y-53746265D01*
X222643497Y-53851015D01*
X222642276Y-53894726D01*
X222632056Y-53928194D01*
X222603961Y-53958179D01*
X222549116Y-53991440D01*
X222458645Y-54034738D01*
X222323672Y-54094833D01*
X222322989Y-54095134D01*
X222198751Y-54152037D01*
X222096873Y-54202565D01*
X222027767Y-54241280D01*
X222001846Y-54262740D01*
X222001839Y-54262913D01*
X222024685Y-54309644D01*
X222078109Y-54361154D01*
X222139442Y-54398261D01*
X222170515Y-54405632D01*
X222255289Y-54380138D01*
X222328293Y-54316291D01*
X222363913Y-54246094D01*
X222398180Y-54194343D01*
X222465303Y-54135409D01*
X222544208Y-54084496D01*
X222613821Y-54056809D01*
X222628377Y-54055287D01*
X222644763Y-54080321D01*
X222645750Y-54144311D01*
X222633708Y-54230593D01*
X222611007Y-54322501D01*
X222580014Y-54403369D01*
X222578448Y-54406509D01*
X222485181Y-54536734D01*
X222364304Y-54625311D01*
X222227027Y-54668786D01*
X222084560Y-54663706D01*
X221948112Y-54606616D01*
X221942045Y-54602602D01*
X221834710Y-54505326D01*
X221764132Y-54378409D01*
X221725074Y-54211526D01*
X221719832Y-54164639D01*
X221710548Y-53943329D01*
X221721678Y-53840124D01*
X222001839Y-53840124D01*
X222005479Y-53904503D01*
X222025389Y-53923291D01*
X222075026Y-53909235D01*
X222153267Y-53876009D01*
X222240726Y-53834359D01*
X222242899Y-53833256D01*
X222317030Y-53794265D01*
X222346781Y-53768244D01*
X222339445Y-53740965D01*
X222308553Y-53705121D01*
X222229960Y-53653251D01*
X222145323Y-53649439D01*
X222069403Y-53687189D01*
X222016965Y-53760001D01*
X222001839Y-53840124D01*
X221721678Y-53840124D01*
X221729644Y-53766261D01*
X221778634Y-53625829D01*
X221846836Y-53527447D01*
X221969935Y-53428030D01*
X222105528Y-53378711D01*
X222243955Y-53375568D01*
X222375552Y-53414676D01*
G36*
X224804598Y-53253857D02*
G01*
X224813154Y-53373188D01*
X224822981Y-53443506D01*
X224836599Y-53474179D01*
X224856527Y-53474571D01*
X224862989Y-53470910D01*
X224948940Y-53444398D01*
X225060745Y-53445946D01*
X225174414Y-53473199D01*
X225245510Y-53508455D01*
X225318405Y-53564778D01*
X225371693Y-53628519D01*
X225408275Y-53709510D01*
X225431050Y-53817586D01*
X225442919Y-53962580D01*
X225446782Y-54154326D01*
X225446851Y-54191109D01*
X225446897Y-54604288D01*
X225354954Y-54636339D01*
X225289652Y-54658144D01*
X225253824Y-54668297D01*
X225252770Y-54668391D01*
X225249242Y-54640860D01*
X225246239Y-54564923D01*
X225243990Y-54450565D01*
X225242724Y-54307769D01*
X225242529Y-54220951D01*
X225242123Y-54049773D01*
X225240032Y-53927088D01*
X225234947Y-53843000D01*
X225225560Y-53787614D01*
X225210561Y-53751032D01*
X225188642Y-53723359D01*
X225174957Y-53710032D01*
X225080949Y-53656328D01*
X224978364Y-53652307D01*
X224885290Y-53697725D01*
X224868078Y-53714123D01*
X224842832Y-53744957D01*
X224825320Y-53781531D01*
X224814142Y-53834415D01*
X224807896Y-53914177D01*
X224805182Y-54031385D01*
X224804598Y-54192991D01*
X224804598Y-54604288D01*
X224712655Y-54636339D01*
X224647353Y-54658144D01*
X224611525Y-54668297D01*
X224610471Y-54668391D01*
X224607775Y-54640448D01*
X224605345Y-54561630D01*
X224603278Y-54439453D01*
X224601671Y-54281432D01*
X224600623Y-54095083D01*
X224600231Y-53887920D01*
X224600230Y-53878706D01*
X224600230Y-53089020D01*
X224695115Y-53048997D01*
X224790000Y-53008973D01*
X224804598Y-53253857D01*
G37*
X224804598Y-53253857D02*
X224813154Y-53373188D01*
X224822981Y-53443506D01*
X224836599Y-53474179D01*
X224856527Y-53474571D01*
X224862989Y-53470910D01*
X224948940Y-53444398D01*
X225060745Y-53445946D01*
X225174414Y-53473199D01*
X225245510Y-53508455D01*
X225318405Y-53564778D01*
X225371693Y-53628519D01*
X225408275Y-53709510D01*
X225431050Y-53817586D01*
X225442919Y-53962580D01*
X225446782Y-54154326D01*
X225446851Y-54191109D01*
X225446897Y-54604288D01*
X225354954Y-54636339D01*
X225289652Y-54658144D01*
X225253824Y-54668297D01*
X225252770Y-54668391D01*
X225249242Y-54640860D01*
X225246239Y-54564923D01*
X225243990Y-54450565D01*
X225242724Y-54307769D01*
X225242529Y-54220951D01*
X225242123Y-54049773D01*
X225240032Y-53927088D01*
X225234947Y-53843000D01*
X225225560Y-53787614D01*
X225210561Y-53751032D01*
X225188642Y-53723359D01*
X225174957Y-53710032D01*
X225080949Y-53656328D01*
X224978364Y-53652307D01*
X224885290Y-53697725D01*
X224868078Y-53714123D01*
X224842832Y-53744957D01*
X224825320Y-53781531D01*
X224814142Y-53834415D01*
X224807896Y-53914177D01*
X224805182Y-54031385D01*
X224804598Y-54192991D01*
X224804598Y-54604288D01*
X224712655Y-54636339D01*
X224647353Y-54658144D01*
X224611525Y-54668297D01*
X224610471Y-54668391D01*
X224607775Y-54640448D01*
X224605345Y-54561630D01*
X224603278Y-54439453D01*
X224601671Y-54281432D01*
X224600623Y-54095083D01*
X224600231Y-53887920D01*
X224600230Y-53878706D01*
X224600230Y-53089020D01*
X224695115Y-53048997D01*
X224790000Y-53008973D01*
X224804598Y-53253857D01*
G36*
X226139944Y-53454360D02*
G01*
X226254343Y-53496842D01*
X226255652Y-53497658D01*
X226326403Y-53549730D01*
X226378636Y-53610584D01*
X226415371Y-53689887D01*
X226439634Y-53797309D01*
X226454445Y-53942517D01*
X226462829Y-54135179D01*
X226463564Y-54162628D01*
X226474120Y-54576521D01*
X226385291Y-54622456D01*
X226321018Y-54653498D01*
X226282210Y-54668206D01*
X226280415Y-54668391D01*
X226273700Y-54641250D01*
X226268365Y-54568041D01*
X226265083Y-54461081D01*
X226264368Y-54374469D01*
X226264351Y-54234162D01*
X226257937Y-54146051D01*
X226235580Y-54104025D01*
X226187732Y-54101975D01*
X226104849Y-54133790D01*
X225979713Y-54192272D01*
X225887697Y-54240845D01*
X225840371Y-54282986D01*
X225826458Y-54328916D01*
X225826437Y-54331189D01*
X225849395Y-54410311D01*
X225917370Y-54453055D01*
X226021398Y-54459246D01*
X226096330Y-54458172D01*
X226135839Y-54479753D01*
X226160478Y-54531591D01*
X226174659Y-54597632D01*
X226154223Y-54635104D01*
X226146528Y-54640467D01*
X226074083Y-54662006D01*
X225972633Y-54665055D01*
X225868157Y-54650778D01*
X225794125Y-54624688D01*
X225691772Y-54537785D01*
X225633591Y-54416816D01*
X225622069Y-54322308D01*
X225630862Y-54237062D01*
X225662680Y-54167476D01*
X225725684Y-54105672D01*
X225828031Y-54043772D01*
X225977882Y-53973897D01*
X225987012Y-53969948D01*
X226121997Y-53907588D01*
X226205294Y-53856446D01*
X226240997Y-53810488D01*
X226233203Y-53763683D01*
X226186007Y-53709998D01*
X226171894Y-53697644D01*
X226077359Y-53649741D01*
X225979406Y-53651758D01*
X225894097Y-53698724D01*
X225837496Y-53785669D01*
X225832237Y-53802734D01*
X225781023Y-53885504D01*
X225716037Y-53925372D01*
X225622069Y-53964882D01*
X225622069Y-53862658D01*
X225650653Y-53714072D01*
X225735495Y-53577784D01*
X225779645Y-53532191D01*
X225880005Y-53473674D01*
X226007635Y-53447184D01*
X226139944Y-53454360D01*
G37*
X226139944Y-53454360D02*
X226254343Y-53496842D01*
X226255652Y-53497658D01*
X226326403Y-53549730D01*
X226378636Y-53610584D01*
X226415371Y-53689887D01*
X226439634Y-53797309D01*
X226454445Y-53942517D01*
X226462829Y-54135179D01*
X226463564Y-54162628D01*
X226474120Y-54576521D01*
X226385291Y-54622456D01*
X226321018Y-54653498D01*
X226282210Y-54668206D01*
X226280415Y-54668391D01*
X226273700Y-54641250D01*
X226268365Y-54568041D01*
X226265083Y-54461081D01*
X226264368Y-54374469D01*
X226264351Y-54234162D01*
X226257937Y-54146051D01*
X226235580Y-54104025D01*
X226187732Y-54101975D01*
X226104849Y-54133790D01*
X225979713Y-54192272D01*
X225887697Y-54240845D01*
X225840371Y-54282986D01*
X225826458Y-54328916D01*
X225826437Y-54331189D01*
X225849395Y-54410311D01*
X225917370Y-54453055D01*
X226021398Y-54459246D01*
X226096330Y-54458172D01*
X226135839Y-54479753D01*
X226160478Y-54531591D01*
X226174659Y-54597632D01*
X226154223Y-54635104D01*
X226146528Y-54640467D01*
X226074083Y-54662006D01*
X225972633Y-54665055D01*
X225868157Y-54650778D01*
X225794125Y-54624688D01*
X225691772Y-54537785D01*
X225633591Y-54416816D01*
X225622069Y-54322308D01*
X225630862Y-54237062D01*
X225662680Y-54167476D01*
X225725684Y-54105672D01*
X225828031Y-54043772D01*
X225977882Y-53973897D01*
X225987012Y-53969948D01*
X226121997Y-53907588D01*
X226205294Y-53856446D01*
X226240997Y-53810488D01*
X226233203Y-53763683D01*
X226186007Y-53709998D01*
X226171894Y-53697644D01*
X226077359Y-53649741D01*
X225979406Y-53651758D01*
X225894097Y-53698724D01*
X225837496Y-53785669D01*
X225832237Y-53802734D01*
X225781023Y-53885504D01*
X225716037Y-53925372D01*
X225622069Y-53964882D01*
X225622069Y-53862658D01*
X225650653Y-53714072D01*
X225735495Y-53577784D01*
X225779645Y-53532191D01*
X225880005Y-53473674D01*
X226007635Y-53447184D01*
X226139944Y-53454360D01*
G36*
X227125943Y-53451920D02*
G01*
X227258565Y-53500859D01*
X227366010Y-53587419D01*
X227408032Y-53648352D01*
X227453843Y-53760161D01*
X227452891Y-53841006D01*
X227404808Y-53895378D01*
X227387017Y-53904624D01*
X227310204Y-53933450D01*
X227270976Y-53926065D01*
X227257689Y-53877658D01*
X227257012Y-53850920D01*
X227232686Y-53752548D01*
X227169281Y-53683734D01*
X227081154Y-53650498D01*
X226982663Y-53658861D01*
X226902602Y-53702296D01*
X226875561Y-53727072D01*
X226856394Y-53757129D01*
X226843446Y-53802565D01*
X226835064Y-53873476D01*
X226829593Y-53979960D01*
X226825378Y-54132112D01*
X226824287Y-54180287D01*
X226820307Y-54345095D01*
X226815781Y-54461088D01*
X226808995Y-54537833D01*
X226798231Y-54584893D01*
X226781773Y-54611835D01*
X226757906Y-54628223D01*
X226742626Y-54635463D01*
X226677733Y-54660220D01*
X226639534Y-54668391D01*
X226626912Y-54641103D01*
X226619208Y-54558603D01*
X226616380Y-54419941D01*
X226618386Y-54224162D01*
X226619011Y-54193965D01*
X226623421Y-54015349D01*
X226628635Y-53884923D01*
X226636055Y-53792492D01*
X226647082Y-53727858D01*
X226663117Y-53680825D01*
X226685561Y-53641196D01*
X226697302Y-53624215D01*
X226764619Y-53549080D01*
X226839910Y-53490638D01*
X226849128Y-53485536D01*
X226984133Y-53445260D01*
X227125943Y-53451920D01*
G37*
X227125943Y-53451920D02*
X227258565Y-53500859D01*
X227366010Y-53587419D01*
X227408032Y-53648352D01*
X227453843Y-53760161D01*
X227452891Y-53841006D01*
X227404808Y-53895378D01*
X227387017Y-53904624D01*
X227310204Y-53933450D01*
X227270976Y-53926065D01*
X227257689Y-53877658D01*
X227257012Y-53850920D01*
X227232686Y-53752548D01*
X227169281Y-53683734D01*
X227081154Y-53650498D01*
X226982663Y-53658861D01*
X226902602Y-53702296D01*
X226875561Y-53727072D01*
X226856394Y-53757129D01*
X226843446Y-53802565D01*
X226835064Y-53873476D01*
X226829593Y-53979960D01*
X226825378Y-54132112D01*
X226824287Y-54180287D01*
X226820307Y-54345095D01*
X226815781Y-54461088D01*
X226808995Y-54537833D01*
X226798231Y-54584893D01*
X226781773Y-54611835D01*
X226757906Y-54628223D01*
X226742626Y-54635463D01*
X226677733Y-54660220D01*
X226639534Y-54668391D01*
X226626912Y-54641103D01*
X226619208Y-54558603D01*
X226616380Y-54419941D01*
X226618386Y-54224162D01*
X226619011Y-54193965D01*
X226623421Y-54015349D01*
X226628635Y-53884923D01*
X226636055Y-53792492D01*
X226647082Y-53727858D01*
X226663117Y-53680825D01*
X226685561Y-53641196D01*
X226697302Y-53624215D01*
X226764619Y-53549080D01*
X226839910Y-53490638D01*
X226849128Y-53485536D01*
X226984133Y-53445260D01*
X227125943Y-53451920D01*
G36*
X228453914Y-53684455D02*
G01*
X228453543Y-53902661D01*
X228452108Y-54070519D01*
X228449002Y-54196070D01*
X228443622Y-54287355D01*
X228435362Y-54352415D01*
X228423616Y-54399291D01*
X228407781Y-54436024D01*
X228395790Y-54456991D01*
X228296490Y-54570694D01*
X228170588Y-54641965D01*
X228031291Y-54667538D01*
X227891805Y-54644150D01*
X227808743Y-54602119D01*
X227721545Y-54529411D01*
X227662117Y-54440612D01*
X227626261Y-54324320D01*
X227609781Y-54169135D01*
X227607447Y-54055287D01*
X227607761Y-54047106D01*
X227811724Y-54047106D01*
X227812970Y-54177657D01*
X227818678Y-54264080D01*
X227831804Y-54320618D01*
X227855306Y-54361514D01*
X227883386Y-54392362D01*
X227977688Y-54451905D01*
X228078940Y-54456992D01*
X228174636Y-54407279D01*
X228182084Y-54400543D01*
X228213874Y-54365502D01*
X228233808Y-54323811D01*
X228244600Y-54261762D01*
X228248965Y-54165644D01*
X228249655Y-54059379D01*
X228248159Y-53925880D01*
X228241964Y-53836822D01*
X228228514Y-53778293D01*
X228205251Y-53736382D01*
X228186175Y-53714123D01*
X228097563Y-53657985D01*
X227995508Y-53651235D01*
X227898095Y-53694114D01*
X227879296Y-53710032D01*
X227847293Y-53745382D01*
X227827318Y-53787502D01*
X227816593Y-53850251D01*
X227812339Y-53947487D01*
X227811724Y-54047106D01*
X227607761Y-54047106D01*
X227614504Y-53871947D01*
X227638472Y-53734195D01*
X227683548Y-53630632D01*
X227753928Y-53549856D01*
X227808743Y-53508455D01*
X227908376Y-53463728D01*
X228023855Y-53442967D01*
X228131199Y-53448525D01*
X228191264Y-53470943D01*
X228214835Y-53477323D01*
X228230477Y-53453535D01*
X228241395Y-53389788D01*
X228249655Y-53292687D01*
X228258699Y-53184541D01*
X228271261Y-53119475D01*
X228294119Y-53082268D01*
X228334051Y-53057699D01*
X228359138Y-53046819D01*
X228454023Y-53007072D01*
X228453914Y-53684455D01*
G37*
X228453914Y-53684455D02*
X228453543Y-53902661D01*
X228452108Y-54070519D01*
X228449002Y-54196070D01*
X228443622Y-54287355D01*
X228435362Y-54352415D01*
X228423616Y-54399291D01*
X228407781Y-54436024D01*
X228395790Y-54456991D01*
X228296490Y-54570694D01*
X228170588Y-54641965D01*
X228031291Y-54667538D01*
X227891805Y-54644150D01*
X227808743Y-54602119D01*
X227721545Y-54529411D01*
X227662117Y-54440612D01*
X227626261Y-54324320D01*
X227609781Y-54169135D01*
X227607447Y-54055287D01*
X227607761Y-54047106D01*
X227811724Y-54047106D01*
X227812970Y-54177657D01*
X227818678Y-54264080D01*
X227831804Y-54320618D01*
X227855306Y-54361514D01*
X227883386Y-54392362D01*
X227977688Y-54451905D01*
X228078940Y-54456992D01*
X228174636Y-54407279D01*
X228182084Y-54400543D01*
X228213874Y-54365502D01*
X228233808Y-54323811D01*
X228244600Y-54261762D01*
X228248965Y-54165644D01*
X228249655Y-54059379D01*
X228248159Y-53925880D01*
X228241964Y-53836822D01*
X228228514Y-53778293D01*
X228205251Y-53736382D01*
X228186175Y-53714123D01*
X228097563Y-53657985D01*
X227995508Y-53651235D01*
X227898095Y-53694114D01*
X227879296Y-53710032D01*
X227847293Y-53745382D01*
X227827318Y-53787502D01*
X227816593Y-53850251D01*
X227812339Y-53947487D01*
X227811724Y-54047106D01*
X227607761Y-54047106D01*
X227614504Y-53871947D01*
X227638472Y-53734195D01*
X227683548Y-53630632D01*
X227753928Y-53549856D01*
X227808743Y-53508455D01*
X227908376Y-53463728D01*
X228023855Y-53442967D01*
X228131199Y-53448525D01*
X228191264Y-53470943D01*
X228214835Y-53477323D01*
X228230477Y-53453535D01*
X228241395Y-53389788D01*
X228249655Y-53292687D01*
X228258699Y-53184541D01*
X228271261Y-53119475D01*
X228294119Y-53082268D01*
X228334051Y-53057699D01*
X228359138Y-53046819D01*
X228454023Y-53007072D01*
X228453914Y-53684455D01*
G36*
X229640124Y-53469840D02*
G01*
X229644579Y-53546653D01*
X229648071Y-53663391D01*
X229650315Y-53810821D01*
X229651035Y-53965455D01*
X229651035Y-54488727D01*
X229558645Y-54581117D01*
X229494978Y-54638047D01*
X229439089Y-54661107D01*
X229362702Y-54659647D01*
X229332380Y-54655934D01*
X229237610Y-54645126D01*
X229159222Y-54638933D01*
X229140115Y-54638361D01*
X229075699Y-54642102D01*
X228983571Y-54651494D01*
X228947850Y-54655934D01*
X228860114Y-54662801D01*
X228801153Y-54647885D01*
X228742690Y-54601835D01*
X228721585Y-54581117D01*
X228629195Y-54488727D01*
X228629195Y-53509947D01*
X228703558Y-53476066D01*
X228767590Y-53450970D01*
X228805052Y-53442184D01*
X228814657Y-53469950D01*
X228823635Y-53547530D01*
X228831386Y-53666348D01*
X228837314Y-53817828D01*
X228840173Y-53945805D01*
X228848161Y-54449425D01*
X228917848Y-54459278D01*
X228981229Y-54452389D01*
X229012286Y-54430083D01*
X229020967Y-54388379D01*
X229028378Y-54299544D01*
X229033931Y-54174834D01*
X229037036Y-54025507D01*
X229037484Y-53948661D01*
X229037931Y-53506287D01*
X229129874Y-53474235D01*
X229194949Y-53452443D01*
X229230347Y-53442281D01*
X229231368Y-53442184D01*
X229234920Y-53469809D01*
X229238823Y-53546411D01*
X229242751Y-53662579D01*
X229246376Y-53808904D01*
X229248908Y-53945805D01*
X229256897Y-54449425D01*
X229432069Y-54449425D01*
X229440107Y-53989965D01*
X229448146Y-53530505D01*
X229533543Y-53486344D01*
X229596593Y-53456019D01*
X229633910Y-53442258D01*
X229634987Y-53442184D01*
X229640124Y-53469840D01*
G37*
X229640124Y-53469840D02*
X229644579Y-53546653D01*
X229648071Y-53663391D01*
X229650315Y-53810821D01*
X229651035Y-53965455D01*
X229651035Y-54488727D01*
X229558645Y-54581117D01*
X229494978Y-54638047D01*
X229439089Y-54661107D01*
X229362702Y-54659647D01*
X229332380Y-54655934D01*
X229237610Y-54645126D01*
X229159222Y-54638933D01*
X229140115Y-54638361D01*
X229075699Y-54642102D01*
X228983571Y-54651494D01*
X228947850Y-54655934D01*
X228860114Y-54662801D01*
X228801153Y-54647885D01*
X228742690Y-54601835D01*
X228721585Y-54581117D01*
X228629195Y-54488727D01*
X228629195Y-53509947D01*
X228703558Y-53476066D01*
X228767590Y-53450970D01*
X228805052Y-53442184D01*
X228814657Y-53469950D01*
X228823635Y-53547530D01*
X228831386Y-53666348D01*
X228837314Y-53817828D01*
X228840173Y-53945805D01*
X228848161Y-54449425D01*
X228917848Y-54459278D01*
X228981229Y-54452389D01*
X229012286Y-54430083D01*
X229020967Y-54388379D01*
X229028378Y-54299544D01*
X229033931Y-54174834D01*
X229037036Y-54025507D01*
X229037484Y-53948661D01*
X229037931Y-53506287D01*
X229129874Y-53474235D01*
X229194949Y-53452443D01*
X229230347Y-53442281D01*
X229231368Y-53442184D01*
X229234920Y-53469809D01*
X229238823Y-53546411D01*
X229242751Y-53662579D01*
X229246376Y-53808904D01*
X229248908Y-53945805D01*
X229256897Y-54449425D01*
X229432069Y-54449425D01*
X229440107Y-53989965D01*
X229448146Y-53530505D01*
X229533543Y-53486344D01*
X229596593Y-53456019D01*
X229633910Y-53442258D01*
X229634987Y-53442184D01*
X229640124Y-53469840D01*
G36*
X230374406Y-53465156D02*
G01*
X230458469Y-53503393D01*
X230524450Y-53549726D01*
X230572794Y-53601532D01*
X230606172Y-53668363D01*
X230627253Y-53759769D01*
X230638707Y-53885301D01*
X230643203Y-54054508D01*
X230643678Y-54165933D01*
X230643678Y-54600627D01*
X230569316Y-54634509D01*
X230510746Y-54659272D01*
X230481730Y-54668391D01*
X230476179Y-54641257D01*
X230471775Y-54568094D01*
X230469078Y-54461263D01*
X230468506Y-54376437D01*
X230466046Y-54253887D01*
X230459412Y-54156668D01*
X230449726Y-54097134D01*
X230442032Y-54084483D01*
X230390311Y-54097402D01*
X230309117Y-54130539D01*
X230215102Y-54175461D01*
X230124917Y-54223735D01*
X230055215Y-54266928D01*
X230022648Y-54296608D01*
X230022519Y-54296929D01*
X230025320Y-54351857D01*
X230050439Y-54404292D01*
X230094541Y-54446881D01*
X230158909Y-54461126D01*
X230213921Y-54459466D01*
X230291835Y-54458245D01*
X230332732Y-54476498D01*
X230357295Y-54524726D01*
X230360392Y-54533820D01*
X230371040Y-54602598D01*
X230342565Y-54644360D01*
X230268344Y-54664263D01*
X230188168Y-54667944D01*
X230043890Y-54640658D01*
X229969203Y-54601690D01*
X229876963Y-54510148D01*
X229828043Y-54397782D01*
X229823654Y-54279051D01*
X229865001Y-54168411D01*
X229927197Y-54099080D01*
X229989294Y-54060265D01*
X230086895Y-54011125D01*
X230200632Y-53961292D01*
X230219590Y-53953677D01*
X230344521Y-53898545D01*
X230416539Y-53849954D01*
X230439700Y-53801647D01*
X230418064Y-53747370D01*
X230380920Y-53704943D01*
X230293127Y-53652702D01*
X230196530Y-53648784D01*
X230107944Y-53689041D01*
X230044186Y-53769326D01*
X230035817Y-53790040D01*
X229987096Y-53866225D01*
X229915965Y-53922785D01*
X229826207Y-53969201D01*
X229826207Y-53837584D01*
X229831490Y-53757168D01*
X229854142Y-53693786D01*
X229904367Y-53626163D01*
X229952582Y-53574076D01*
X230027554Y-53500322D01*
X230085806Y-53460702D01*
X230148372Y-53444810D01*
X230219193Y-53442184D01*
X230374406Y-53465156D01*
G37*
X230374406Y-53465156D02*
X230458469Y-53503393D01*
X230524450Y-53549726D01*
X230572794Y-53601532D01*
X230606172Y-53668363D01*
X230627253Y-53759769D01*
X230638707Y-53885301D01*
X230643203Y-54054508D01*
X230643678Y-54165933D01*
X230643678Y-54600627D01*
X230569316Y-54634509D01*
X230510746Y-54659272D01*
X230481730Y-54668391D01*
X230476179Y-54641257D01*
X230471775Y-54568094D01*
X230469078Y-54461263D01*
X230468506Y-54376437D01*
X230466046Y-54253887D01*
X230459412Y-54156668D01*
X230449726Y-54097134D01*
X230442032Y-54084483D01*
X230390311Y-54097402D01*
X230309117Y-54130539D01*
X230215102Y-54175461D01*
X230124917Y-54223735D01*
X230055215Y-54266928D01*
X230022648Y-54296608D01*
X230022519Y-54296929D01*
X230025320Y-54351857D01*
X230050439Y-54404292D01*
X230094541Y-54446881D01*
X230158909Y-54461126D01*
X230213921Y-54459466D01*
X230291835Y-54458245D01*
X230332732Y-54476498D01*
X230357295Y-54524726D01*
X230360392Y-54533820D01*
X230371040Y-54602598D01*
X230342565Y-54644360D01*
X230268344Y-54664263D01*
X230188168Y-54667944D01*
X230043890Y-54640658D01*
X229969203Y-54601690D01*
X229876963Y-54510148D01*
X229828043Y-54397782D01*
X229823654Y-54279051D01*
X229865001Y-54168411D01*
X229927197Y-54099080D01*
X229989294Y-54060265D01*
X230086895Y-54011125D01*
X230200632Y-53961292D01*
X230219590Y-53953677D01*
X230344521Y-53898545D01*
X230416539Y-53849954D01*
X230439700Y-53801647D01*
X230418064Y-53747370D01*
X230380920Y-53704943D01*
X230293127Y-53652702D01*
X230196530Y-53648784D01*
X230107944Y-53689041D01*
X230044186Y-53769326D01*
X230035817Y-53790040D01*
X229987096Y-53866225D01*
X229915965Y-53922785D01*
X229826207Y-53969201D01*
X229826207Y-53837584D01*
X229831490Y-53757168D01*
X229854142Y-53693786D01*
X229904367Y-53626163D01*
X229952582Y-53574076D01*
X230027554Y-53500322D01*
X230085806Y-53460702D01*
X230148372Y-53444810D01*
X230219193Y-53442184D01*
X230374406Y-53465156D01*
G36*
X231395690Y-53470018D02*
G01*
X231430585Y-53485269D01*
X231513877Y-53551235D01*
X231585103Y-53646618D01*
X231629153Y-53748406D01*
X231636322Y-53798587D01*
X231612285Y-53868647D01*
X231559561Y-53905717D01*
X231503031Y-53928164D01*
X231477146Y-53932300D01*
X231464542Y-53902283D01*
X231439654Y-53836961D01*
X231428735Y-53807445D01*
X231367508Y-53705348D01*
X231278861Y-53654423D01*
X231165193Y-53655989D01*
X231156774Y-53657994D01*
X231096088Y-53686767D01*
X231051474Y-53742859D01*
X231021002Y-53833163D01*
X231002744Y-53964571D01*
X230994771Y-54143974D01*
X230994023Y-54239433D01*
X230993652Y-54389913D01*
X230991223Y-54492495D01*
X230984760Y-54557672D01*
X230972288Y-54595938D01*
X230951833Y-54617785D01*
X230921419Y-54633707D01*
X230919661Y-54634509D01*
X230861091Y-54659272D01*
X230832075Y-54668391D01*
X230827616Y-54640822D01*
X230823799Y-54564620D01*
X230820899Y-54449541D01*
X230819191Y-54305341D01*
X230818851Y-54199814D01*
X230820588Y-53995613D01*
X230827382Y-53840697D01*
X230841607Y-53726024D01*
X230865638Y-53642551D01*
X230901848Y-53581236D01*
X230952612Y-53533034D01*
X231002739Y-53499393D01*
X231123275Y-53454619D01*
X231263557Y-53444521D01*
X231395690Y-53470018D01*
G37*
X231395690Y-53470018D02*
X231430585Y-53485269D01*
X231513877Y-53551235D01*
X231585103Y-53646618D01*
X231629153Y-53748406D01*
X231636322Y-53798587D01*
X231612285Y-53868647D01*
X231559561Y-53905717D01*
X231503031Y-53928164D01*
X231477146Y-53932300D01*
X231464542Y-53902283D01*
X231439654Y-53836961D01*
X231428735Y-53807445D01*
X231367508Y-53705348D01*
X231278861Y-53654423D01*
X231165193Y-53655989D01*
X231156774Y-53657994D01*
X231096088Y-53686767D01*
X231051474Y-53742859D01*
X231021002Y-53833163D01*
X231002744Y-53964571D01*
X230994771Y-54143974D01*
X230994023Y-54239433D01*
X230993652Y-54389913D01*
X230991223Y-54492495D01*
X230984760Y-54557672D01*
X230972288Y-54595938D01*
X230951833Y-54617785D01*
X230921419Y-54633707D01*
X230919661Y-54634509D01*
X230861091Y-54659272D01*
X230832075Y-54668391D01*
X230827616Y-54640822D01*
X230823799Y-54564620D01*
X230820899Y-54449541D01*
X230819191Y-54305341D01*
X230818851Y-54199814D01*
X230820588Y-53995613D01*
X230827382Y-53840697D01*
X230841607Y-53726024D01*
X230865638Y-53642551D01*
X230901848Y-53581236D01*
X230952612Y-53533034D01*
X231002739Y-53499393D01*
X231123275Y-53454619D01*
X231263557Y-53444521D01*
X231395690Y-53470018D01*
G36*
X232403439Y-53486540D02*
G01*
X232518950Y-53562034D01*
X232574664Y-53629617D01*
X232618804Y-53752255D01*
X232622309Y-53849298D01*
X232614368Y-53979056D01*
X232315115Y-54110039D01*
X232169611Y-54176958D01*
X232074537Y-54230790D01*
X232025101Y-54277416D01*
X232016511Y-54322720D01*
X232043972Y-54372582D01*
X232074253Y-54405632D01*
X232162363Y-54458633D01*
X232258196Y-54462347D01*
X232346212Y-54421041D01*
X232410869Y-54338983D01*
X232422433Y-54310008D01*
X232477825Y-54219509D01*
X232541553Y-54180940D01*
X232628966Y-54147946D01*
X232628966Y-54273034D01*
X232621238Y-54358156D01*
X232590966Y-54429938D01*
X232527518Y-54512356D01*
X232518088Y-54523066D01*
X232447513Y-54596391D01*
X232386847Y-54635742D01*
X232310950Y-54653845D01*
X232248030Y-54659774D01*
X232135487Y-54661251D01*
X232055370Y-54642535D01*
X232005390Y-54614747D01*
X231926838Y-54553641D01*
X231872463Y-54487554D01*
X231838052Y-54404441D01*
X231819388Y-54292254D01*
X231812256Y-54138946D01*
X231811687Y-54061136D01*
X231813622Y-53967853D01*
X231989899Y-53967853D01*
X231991944Y-54017896D01*
X231997039Y-54026092D01*
X232030666Y-54014958D01*
X232103030Y-53985493D01*
X232199747Y-53943601D01*
X232219973Y-53934597D01*
X232342203Y-53872442D01*
X232409547Y-53817815D01*
X232424348Y-53766649D01*
X232388947Y-53714876D01*
X232359711Y-53692000D01*
X232254216Y-53646250D01*
X232155476Y-53653808D01*
X232072812Y-53709651D01*
X232015548Y-53808753D01*
X231997188Y-53887414D01*
X231989899Y-53967853D01*
X231813622Y-53967853D01*
X231815459Y-53879351D01*
X231829359Y-53744853D01*
X231856894Y-53646916D01*
X231901572Y-53574811D01*
X231966901Y-53517813D01*
X231995383Y-53499393D01*
X232124763Y-53451422D01*
X232266412Y-53448403D01*
X232403439Y-53486540D01*
G37*
X232403439Y-53486540D02*
X232518950Y-53562034D01*
X232574664Y-53629617D01*
X232618804Y-53752255D01*
X232622309Y-53849298D01*
X232614368Y-53979056D01*
X232315115Y-54110039D01*
X232169611Y-54176958D01*
X232074537Y-54230790D01*
X232025101Y-54277416D01*
X232016511Y-54322720D01*
X232043972Y-54372582D01*
X232074253Y-54405632D01*
X232162363Y-54458633D01*
X232258196Y-54462347D01*
X232346212Y-54421041D01*
X232410869Y-54338983D01*
X232422433Y-54310008D01*
X232477825Y-54219509D01*
X232541553Y-54180940D01*
X232628966Y-54147946D01*
X232628966Y-54273034D01*
X232621238Y-54358156D01*
X232590966Y-54429938D01*
X232527518Y-54512356D01*
X232518088Y-54523066D01*
X232447513Y-54596391D01*
X232386847Y-54635742D01*
X232310950Y-54653845D01*
X232248030Y-54659774D01*
X232135487Y-54661251D01*
X232055370Y-54642535D01*
X232005390Y-54614747D01*
X231926838Y-54553641D01*
X231872463Y-54487554D01*
X231838052Y-54404441D01*
X231819388Y-54292254D01*
X231812256Y-54138946D01*
X231811687Y-54061136D01*
X231813622Y-53967853D01*
X231989899Y-53967853D01*
X231991944Y-54017896D01*
X231997039Y-54026092D01*
X232030666Y-54014958D01*
X232103030Y-53985493D01*
X232199747Y-53943601D01*
X232219973Y-53934597D01*
X232342203Y-53872442D01*
X232409547Y-53817815D01*
X232424348Y-53766649D01*
X232388947Y-53714876D01*
X232359711Y-53692000D01*
X232254216Y-53646250D01*
X232155476Y-53653808D01*
X232072812Y-53709651D01*
X232015548Y-53808753D01*
X231997188Y-53887414D01*
X231989899Y-53967853D01*
X231813622Y-53967853D01*
X231815459Y-53879351D01*
X231829359Y-53744853D01*
X231856894Y-53646916D01*
X231901572Y-53574811D01*
X231966901Y-53517813D01*
X231995383Y-53499393D01*
X232124763Y-53451422D01*
X232266412Y-53448403D01*
X232403439Y-53486540D01*
G36*
X226269014Y-43982998D02*
G01*
X226427006Y-43983863D01*
X226541347Y-43986205D01*
X226619407Y-43990762D01*
X226668554Y-43998270D01*
X226696159Y-44009466D01*
X226709592Y-44025088D01*
X226716221Y-44045873D01*
X226716865Y-44048563D01*
X226726935Y-44097113D01*
X226745575Y-44192905D01*
X226770845Y-44325743D01*
X226800807Y-44485431D01*
X226833522Y-44661774D01*
X226834664Y-44667967D01*
X226867433Y-44840782D01*
X226898093Y-44993469D01*
X226924664Y-45116871D01*
X226945167Y-45201831D01*
X226957626Y-45239190D01*
X226958220Y-45239852D01*
X226994919Y-45258095D01*
X227070586Y-45288497D01*
X227168878Y-45324493D01*
X227169425Y-45324685D01*
X227293233Y-45371222D01*
X227439196Y-45430504D01*
X227576781Y-45490109D01*
X227583293Y-45493056D01*
X227807390Y-45594765D01*
X228303619Y-45255897D01*
X228455846Y-45152592D01*
X228593741Y-45060237D01*
X228709315Y-44984084D01*
X228794579Y-44929385D01*
X228841544Y-44901393D01*
X228846004Y-44899317D01*
X228880134Y-44908560D01*
X228943881Y-44953156D01*
X229039731Y-45035209D01*
X229170169Y-45156821D01*
X229303328Y-45286205D01*
X229431694Y-45413702D01*
X229546581Y-45530046D01*
X229641073Y-45628052D01*
X229708253Y-45700536D01*
X229741206Y-45740313D01*
X229742432Y-45742361D01*
X229746074Y-45769656D01*
X229732350Y-45814234D01*
X229697869Y-45882112D01*
X229639239Y-45979311D01*
X229553070Y-46111851D01*
X229438200Y-46282476D01*
X229336254Y-46432655D01*
X229245123Y-46567350D01*
X229170073Y-46678740D01*
X229116369Y-46759005D01*
X229089280Y-46800325D01*
X229087574Y-46803130D01*
X229090882Y-46842721D01*
X229115953Y-46919669D01*
X229157798Y-47019432D01*
X229172712Y-47051291D01*
X229237786Y-47193226D01*
X229307212Y-47354273D01*
X229363609Y-47493621D01*
X229404247Y-47597044D01*
X229436526Y-47675642D01*
X229455178Y-47716720D01*
X229457497Y-47719885D01*
X229491803Y-47725128D01*
X229572669Y-47739494D01*
X229689343Y-47760937D01*
X229831075Y-47787413D01*
X229987110Y-47816877D01*
X230146698Y-47847283D01*
X230299085Y-47876588D01*
X230433521Y-47902745D01*
X230539252Y-47923710D01*
X230605526Y-47937439D01*
X230621782Y-47941320D01*
X230638573Y-47950900D01*
X230651249Y-47972536D01*
X230660378Y-48013531D01*
X230666531Y-48081189D01*
X230670280Y-48182812D01*
X230672192Y-48325703D01*
X230672840Y-48517165D01*
X230672874Y-48595645D01*
X230672874Y-49233906D01*
X230519598Y-49264160D01*
X230434322Y-49280564D01*
X230307070Y-49304509D01*
X230153315Y-49333107D01*
X229988534Y-49363467D01*
X229942989Y-49371806D01*
X229790932Y-49401370D01*
X229658468Y-49430442D01*
X229556714Y-49456329D01*
X229496788Y-49476337D01*
X229486805Y-49482301D01*
X229462293Y-49524534D01*
X229427148Y-49606370D01*
X229388173Y-49711683D01*
X229380442Y-49734368D01*
X229329360Y-49875018D01*
X229265954Y-50033714D01*
X229203904Y-50176225D01*
X229203598Y-50176886D01*
X229100267Y-50400440D01*
X229779961Y-51400232D01*
X229343621Y-51837300D01*
X229211649Y-51967381D01*
X229091279Y-52082048D01*
X228989273Y-52175181D01*
X228912391Y-52240658D01*
X228867393Y-52272357D01*
X228860938Y-52274368D01*
X228823040Y-52258529D01*
X228745708Y-52214496D01*
X228637389Y-52147490D01*
X228506532Y-52062734D01*
X228365052Y-51967816D01*
X228221461Y-51870998D01*
X228093435Y-51786751D01*
X227989105Y-51720258D01*
X227916600Y-51676702D01*
X227884158Y-51661264D01*
X227844576Y-51674328D01*
X227769519Y-51708750D01*
X227674468Y-51757380D01*
X227664392Y-51762785D01*
X227536391Y-51826980D01*
X227448618Y-51858463D01*
X227394028Y-51858798D01*
X227365575Y-51829548D01*
X227365410Y-51829138D01*
X227351188Y-51794498D01*
X227317269Y-51712269D01*
X227266284Y-51588814D01*
X227200862Y-51430498D01*
X227123634Y-51243686D01*
X227037229Y-51034742D01*
X226953551Y-50832446D01*
X226861588Y-50609200D01*
X226777150Y-50402392D01*
X226702769Y-50218362D01*
X226640974Y-50063451D01*
X226594297Y-49943996D01*
X226565268Y-49866339D01*
X226556322Y-49837356D01*
X226578756Y-49804110D01*
X226637439Y-49751123D01*
X226715689Y-49692704D01*
X226938534Y-49507952D01*
X227112718Y-49296182D01*
X227236154Y-49061856D01*
X227306754Y-48809434D01*
X227322431Y-48543377D01*
X227311036Y-48420575D01*
X227248950Y-48165793D01*
X227142023Y-47940801D01*
X226996889Y-47747817D01*
X226820178Y-47589061D01*
X226618522Y-47466750D01*
X226398554Y-47383105D01*
X226166906Y-47340344D01*
X225930209Y-47340687D01*
X225695095Y-47386352D01*
X225468196Y-47479559D01*
X225256144Y-47622527D01*
X225167636Y-47703383D01*
X224997889Y-47911007D01*
X224879699Y-48137895D01*
X224812278Y-48377433D01*
X224794840Y-48623007D01*
X224826598Y-48868003D01*
X224906765Y-49105808D01*
X225034555Y-49329807D01*
X225209180Y-49533387D01*
X225404312Y-49692704D01*
X225485591Y-49753602D01*
X225543009Y-49806015D01*
X225563678Y-49837406D01*
X225552856Y-49871639D01*
X225522077Y-49953419D01*
X225473874Y-50076407D01*
X225410778Y-50234263D01*
X225335322Y-50420649D01*
X225250038Y-50629226D01*
X225166219Y-50832496D01*
X225073745Y-51055933D01*
X224988089Y-51262984D01*
X224911882Y-51447286D01*
X224847753Y-51602475D01*
X224798332Y-51722188D01*
X224766248Y-51800061D01*
X224754359Y-51829138D01*
X224726274Y-51858677D01*
X224671949Y-51858591D01*
X224584395Y-51827326D01*
X224456619Y-51763329D01*
X224455608Y-51762785D01*
X224359402Y-51713121D01*
X224281631Y-51676945D01*
X224237777Y-51661408D01*
X224235842Y-51661264D01*
X224202829Y-51677024D01*
X224129946Y-51720850D01*
X224025322Y-51787557D01*
X223897090Y-51871964D01*
X223754948Y-51967816D01*
X223610233Y-52064867D01*
X223479804Y-52149270D01*
X223372110Y-52215801D01*
X223295598Y-52259238D01*
X223259062Y-52274368D01*
X223225418Y-52254482D01*
X223157776Y-52198903D01*
X223062893Y-52113754D01*
X222947530Y-52005153D01*
X222818445Y-51879221D01*
X222776229Y-51837149D01*
X222339739Y-51399931D01*
X222671977Y-50912340D01*
X222772946Y-50762605D01*
X222861562Y-50628220D01*
X222932854Y-50516969D01*
X222981850Y-50436639D01*
X223003578Y-50395014D01*
X223004215Y-50392053D01*
X222992760Y-50352818D01*
X222961949Y-50273895D01*
X222917116Y-50168509D01*
X222885647Y-50097954D01*
X222826808Y-49962876D01*
X222771396Y-49826409D01*
X222728436Y-49711103D01*
X222716766Y-49675977D01*
X222683611Y-49582174D01*
X222651201Y-49509694D01*
X222633399Y-49482301D01*
X222594114Y-49465536D01*
X222508374Y-49441770D01*
X222387303Y-49413697D01*
X222242027Y-49384009D01*
X222177012Y-49371806D01*
X222011913Y-49341468D01*
X221853552Y-49312093D01*
X221717404Y-49286569D01*
X221618943Y-49267785D01*
X221600402Y-49264160D01*
X221447127Y-49233906D01*
X221447127Y-48595645D01*
X221447471Y-48385770D01*
X221448884Y-48226980D01*
X221451936Y-48111973D01*
X221457197Y-48033446D01*
X221465237Y-47984096D01*
X221476627Y-47956619D01*
X221491937Y-47943713D01*
X221498218Y-47941320D01*
X221536104Y-47932833D01*
X221619805Y-47915900D01*
X221738567Y-47892566D01*
X221881639Y-47864875D01*
X222038268Y-47834873D01*
X222197703Y-47804604D01*
X222349191Y-47776115D01*
X222481981Y-47751449D01*
X222585319Y-47732651D01*
X222648455Y-47721767D01*
X222662503Y-47719885D01*
X222675230Y-47694704D01*
X222703400Y-47627622D01*
X222741748Y-47531333D01*
X222756391Y-47493621D01*
X222815452Y-47347921D01*
X222885000Y-47186951D01*
X222947288Y-47051291D01*
X222993121Y-46947561D01*
X223023613Y-46862326D01*
X223033792Y-46810126D01*
X223032169Y-46803130D01*
X223010657Y-46770102D01*
X222961535Y-46696643D01*
X222890077Y-46590577D01*
X222801555Y-46459726D01*
X222701241Y-46311912D01*
X222681406Y-46282734D01*
X222565012Y-46109863D01*
X222479452Y-45978226D01*
X222421316Y-45881761D01*
X222387192Y-45814408D01*
X222373669Y-45770106D01*
X222377336Y-45742794D01*
X222377430Y-45742620D01*
X222406293Y-45706746D01*
X222470133Y-45637391D01*
X222562031Y-45541745D01*
X222675067Y-45426999D01*
X222802321Y-45300341D01*
X222816672Y-45286205D01*
X222977043Y-45130903D01*
X223100805Y-45016870D01*
X223190445Y-44942002D01*
X223248448Y-44904196D01*
X223273996Y-44899317D01*
X223311282Y-44920603D01*
X223388657Y-44969773D01*
X223498133Y-45041575D01*
X223631720Y-45130755D01*
X223781430Y-45232063D01*
X223816382Y-45255897D01*
X224312610Y-45594765D01*
X224536707Y-45493056D01*
X224672989Y-45433783D01*
X224819276Y-45374170D01*
X224945035Y-45326640D01*
X224950575Y-45324685D01*
X225048943Y-45288677D01*
X225124771Y-45258229D01*
X225161718Y-45239905D01*
X225161780Y-45239852D01*
X225173504Y-45206729D01*
X225193432Y-45125267D01*
X225219587Y-45004625D01*
X225249990Y-44853959D01*
X225282663Y-44682428D01*
X225285336Y-44667967D01*
X225318110Y-44491235D01*
X225348198Y-44330810D01*
X225373661Y-44196888D01*
X225392559Y-44099663D01*
X225402953Y-44049332D01*
X225403135Y-44048563D01*
X225409461Y-44027153D01*
X225421761Y-44010988D01*
X225447406Y-43999331D01*
X225493765Y-43991445D01*
X225568208Y-43986593D01*
X225678105Y-43984039D01*
X225830825Y-43983045D01*
X226033738Y-43982874D01*
X226060000Y-43982874D01*
X226269014Y-43982998D01*
G37*
X226269014Y-43982998D02*
X226427006Y-43983863D01*
X226541347Y-43986205D01*
X226619407Y-43990762D01*
X226668554Y-43998270D01*
X226696159Y-44009466D01*
X226709592Y-44025088D01*
X226716221Y-44045873D01*
X226716865Y-44048563D01*
X226726935Y-44097113D01*
X226745575Y-44192905D01*
X226770845Y-44325743D01*
X226800807Y-44485431D01*
X226833522Y-44661774D01*
X226834664Y-44667967D01*
X226867433Y-44840782D01*
X226898093Y-44993469D01*
X226924664Y-45116871D01*
X226945167Y-45201831D01*
X226957626Y-45239190D01*
X226958220Y-45239852D01*
X226994919Y-45258095D01*
X227070586Y-45288497D01*
X227168878Y-45324493D01*
X227169425Y-45324685D01*
X227293233Y-45371222D01*
X227439196Y-45430504D01*
X227576781Y-45490109D01*
X227583293Y-45493056D01*
X227807390Y-45594765D01*
X228303619Y-45255897D01*
X228455846Y-45152592D01*
X228593741Y-45060237D01*
X228709315Y-44984084D01*
X228794579Y-44929385D01*
X228841544Y-44901393D01*
X228846004Y-44899317D01*
X228880134Y-44908560D01*
X228943881Y-44953156D01*
X229039731Y-45035209D01*
X229170169Y-45156821D01*
X229303328Y-45286205D01*
X229431694Y-45413702D01*
X229546581Y-45530046D01*
X229641073Y-45628052D01*
X229708253Y-45700536D01*
X229741206Y-45740313D01*
X229742432Y-45742361D01*
X229746074Y-45769656D01*
X229732350Y-45814234D01*
X229697869Y-45882112D01*
X229639239Y-45979311D01*
X229553070Y-46111851D01*
X229438200Y-46282476D01*
X229336254Y-46432655D01*
X229245123Y-46567350D01*
X229170073Y-46678740D01*
X229116369Y-46759005D01*
X229089280Y-46800325D01*
X229087574Y-46803130D01*
X229090882Y-46842721D01*
X229115953Y-46919669D01*
X229157798Y-47019432D01*
X229172712Y-47051291D01*
X229237786Y-47193226D01*
X229307212Y-47354273D01*
X229363609Y-47493621D01*
X229404247Y-47597044D01*
X229436526Y-47675642D01*
X229455178Y-47716720D01*
X229457497Y-47719885D01*
X229491803Y-47725128D01*
X229572669Y-47739494D01*
X229689343Y-47760937D01*
X229831075Y-47787413D01*
X229987110Y-47816877D01*
X230146698Y-47847283D01*
X230299085Y-47876588D01*
X230433521Y-47902745D01*
X230539252Y-47923710D01*
X230605526Y-47937439D01*
X230621782Y-47941320D01*
X230638573Y-47950900D01*
X230651249Y-47972536D01*
X230660378Y-48013531D01*
X230666531Y-48081189D01*
X230670280Y-48182812D01*
X230672192Y-48325703D01*
X230672840Y-48517165D01*
X230672874Y-48595645D01*
X230672874Y-49233906D01*
X230519598Y-49264160D01*
X230434322Y-49280564D01*
X230307070Y-49304509D01*
X230153315Y-49333107D01*
X229988534Y-49363467D01*
X229942989Y-49371806D01*
X229790932Y-49401370D01*
X229658468Y-49430442D01*
X229556714Y-49456329D01*
X229496788Y-49476337D01*
X229486805Y-49482301D01*
X229462293Y-49524534D01*
X229427148Y-49606370D01*
X229388173Y-49711683D01*
X229380442Y-49734368D01*
X229329360Y-49875018D01*
X229265954Y-50033714D01*
X229203904Y-50176225D01*
X229203598Y-50176886D01*
X229100267Y-50400440D01*
X229779961Y-51400232D01*
X229343621Y-51837300D01*
X229211649Y-51967381D01*
X229091279Y-52082048D01*
X228989273Y-52175181D01*
X228912391Y-52240658D01*
X228867393Y-52272357D01*
X228860938Y-52274368D01*
X228823040Y-52258529D01*
X228745708Y-52214496D01*
X228637389Y-52147490D01*
X228506532Y-52062734D01*
X228365052Y-51967816D01*
X228221461Y-51870998D01*
X228093435Y-51786751D01*
X227989105Y-51720258D01*
X227916600Y-51676702D01*
X227884158Y-51661264D01*
X227844576Y-51674328D01*
X227769519Y-51708750D01*
X227674468Y-51757380D01*
X227664392Y-51762785D01*
X227536391Y-51826980D01*
X227448618Y-51858463D01*
X227394028Y-51858798D01*
X227365575Y-51829548D01*
X227365410Y-51829138D01*
X227351188Y-51794498D01*
X227317269Y-51712269D01*
X227266284Y-51588814D01*
X227200862Y-51430498D01*
X227123634Y-51243686D01*
X227037229Y-51034742D01*
X226953551Y-50832446D01*
X226861588Y-50609200D01*
X226777150Y-50402392D01*
X226702769Y-50218362D01*
X226640974Y-50063451D01*
X226594297Y-49943996D01*
X226565268Y-49866339D01*
X226556322Y-49837356D01*
X226578756Y-49804110D01*
X226637439Y-49751123D01*
X226715689Y-49692704D01*
X226938534Y-49507952D01*
X227112718Y-49296182D01*
X227236154Y-49061856D01*
X227306754Y-48809434D01*
X227322431Y-48543377D01*
X227311036Y-48420575D01*
X227248950Y-48165793D01*
X227142023Y-47940801D01*
X226996889Y-47747817D01*
X226820178Y-47589061D01*
X226618522Y-47466750D01*
X226398554Y-47383105D01*
X226166906Y-47340344D01*
X225930209Y-47340687D01*
X225695095Y-47386352D01*
X225468196Y-47479559D01*
X225256144Y-47622527D01*
X225167636Y-47703383D01*
X224997889Y-47911007D01*
X224879699Y-48137895D01*
X224812278Y-48377433D01*
X224794840Y-48623007D01*
X224826598Y-48868003D01*
X224906765Y-49105808D01*
X225034555Y-49329807D01*
X225209180Y-49533387D01*
X225404312Y-49692704D01*
X225485591Y-49753602D01*
X225543009Y-49806015D01*
X225563678Y-49837406D01*
X225552856Y-49871639D01*
X225522077Y-49953419D01*
X225473874Y-50076407D01*
X225410778Y-50234263D01*
X225335322Y-50420649D01*
X225250038Y-50629226D01*
X225166219Y-50832496D01*
X225073745Y-51055933D01*
X224988089Y-51262984D01*
X224911882Y-51447286D01*
X224847753Y-51602475D01*
X224798332Y-51722188D01*
X224766248Y-51800061D01*
X224754359Y-51829138D01*
X224726274Y-51858677D01*
X224671949Y-51858591D01*
X224584395Y-51827326D01*
X224456619Y-51763329D01*
X224455608Y-51762785D01*
X224359402Y-51713121D01*
X224281631Y-51676945D01*
X224237777Y-51661408D01*
X224235842Y-51661264D01*
X224202829Y-51677024D01*
X224129946Y-51720850D01*
X224025322Y-51787557D01*
X223897090Y-51871964D01*
X223754948Y-51967816D01*
X223610233Y-52064867D01*
X223479804Y-52149270D01*
X223372110Y-52215801D01*
X223295598Y-52259238D01*
X223259062Y-52274368D01*
X223225418Y-52254482D01*
X223157776Y-52198903D01*
X223062893Y-52113754D01*
X222947530Y-52005153D01*
X222818445Y-51879221D01*
X222776229Y-51837149D01*
X222339739Y-51399931D01*
X222671977Y-50912340D01*
X222772946Y-50762605D01*
X222861562Y-50628220D01*
X222932854Y-50516969D01*
X222981850Y-50436639D01*
X223003578Y-50395014D01*
X223004215Y-50392053D01*
X222992760Y-50352818D01*
X222961949Y-50273895D01*
X222917116Y-50168509D01*
X222885647Y-50097954D01*
X222826808Y-49962876D01*
X222771396Y-49826409D01*
X222728436Y-49711103D01*
X222716766Y-49675977D01*
X222683611Y-49582174D01*
X222651201Y-49509694D01*
X222633399Y-49482301D01*
X222594114Y-49465536D01*
X222508374Y-49441770D01*
X222387303Y-49413697D01*
X222242027Y-49384009D01*
X222177012Y-49371806D01*
X222011913Y-49341468D01*
X221853552Y-49312093D01*
X221717404Y-49286569D01*
X221618943Y-49267785D01*
X221600402Y-49264160D01*
X221447127Y-49233906D01*
X221447127Y-48595645D01*
X221447471Y-48385770D01*
X221448884Y-48226980D01*
X221451936Y-48111973D01*
X221457197Y-48033446D01*
X221465237Y-47984096D01*
X221476627Y-47956619D01*
X221491937Y-47943713D01*
X221498218Y-47941320D01*
X221536104Y-47932833D01*
X221619805Y-47915900D01*
X221738567Y-47892566D01*
X221881639Y-47864875D01*
X222038268Y-47834873D01*
X222197703Y-47804604D01*
X222349191Y-47776115D01*
X222481981Y-47751449D01*
X222585319Y-47732651D01*
X222648455Y-47721767D01*
X222662503Y-47719885D01*
X222675230Y-47694704D01*
X222703400Y-47627622D01*
X222741748Y-47531333D01*
X222756391Y-47493621D01*
X222815452Y-47347921D01*
X222885000Y-47186951D01*
X222947288Y-47051291D01*
X222993121Y-46947561D01*
X223023613Y-46862326D01*
X223033792Y-46810126D01*
X223032169Y-46803130D01*
X223010657Y-46770102D01*
X222961535Y-46696643D01*
X222890077Y-46590577D01*
X222801555Y-46459726D01*
X222701241Y-46311912D01*
X222681406Y-46282734D01*
X222565012Y-46109863D01*
X222479452Y-45978226D01*
X222421316Y-45881761D01*
X222387192Y-45814408D01*
X222373669Y-45770106D01*
X222377336Y-45742794D01*
X222377430Y-45742620D01*
X222406293Y-45706746D01*
X222470133Y-45637391D01*
X222562031Y-45541745D01*
X222675067Y-45426999D01*
X222802321Y-45300341D01*
X222816672Y-45286205D01*
X222977043Y-45130903D01*
X223100805Y-45016870D01*
X223190445Y-44942002D01*
X223248448Y-44904196D01*
X223273996Y-44899317D01*
X223311282Y-44920603D01*
X223388657Y-44969773D01*
X223498133Y-45041575D01*
X223631720Y-45130755D01*
X223781430Y-45232063D01*
X223816382Y-45255897D01*
X224312610Y-45594765D01*
X224536707Y-45493056D01*
X224672989Y-45433783D01*
X224819276Y-45374170D01*
X224945035Y-45326640D01*
X224950575Y-45324685D01*
X225048943Y-45288677D01*
X225124771Y-45258229D01*
X225161718Y-45239905D01*
X225161780Y-45239852D01*
X225173504Y-45206729D01*
X225193432Y-45125267D01*
X225219587Y-45004625D01*
X225249990Y-44853959D01*
X225282663Y-44682428D01*
X225285336Y-44667967D01*
X225318110Y-44491235D01*
X225348198Y-44330810D01*
X225373661Y-44196888D01*
X225392559Y-44099663D01*
X225402953Y-44049332D01*
X225403135Y-44048563D01*
X225409461Y-44027153D01*
X225421761Y-44010988D01*
X225447406Y-43999331D01*
X225493765Y-43991445D01*
X225568208Y-43986593D01*
X225678105Y-43984039D01*
X225830825Y-43983045D01*
X226033738Y-43982874D01*
X226060000Y-43982874D01*
X226269014Y-43982998D01*
D15*
X236751904Y-36862380D02*
X236751904Y-35862380D01*
X236990000Y-35862380D01*
X237132857Y-35910000D01*
X237228095Y-36005238D01*
X237275714Y-36100476D01*
X237323333Y-36290952D01*
X237323333Y-36433809D01*
X237275714Y-36624285D01*
X237228095Y-36719523D01*
X237132857Y-36814761D01*
X236990000Y-36862380D01*
X236751904Y-36862380D01*
X238180476Y-36195714D02*
X238180476Y-36862380D01*
X237942380Y-35814761D02*
X237704285Y-36529047D01*
X238323333Y-36529047D01*
X207089523Y-94432380D02*
X206756190Y-93956190D01*
X206518095Y-94432380D02*
X206518095Y-93432380D01*
X206899047Y-93432380D01*
X206994285Y-93480000D01*
X207041904Y-93527619D01*
X207089523Y-93622857D01*
X207089523Y-93765714D01*
X207041904Y-93860952D01*
X206994285Y-93908571D01*
X206899047Y-93956190D01*
X206518095Y-93956190D01*
X207518095Y-94432380D02*
X207518095Y-93432380D01*
X208089523Y-94432380D01*
X208089523Y-93432380D01*
X208565714Y-94432380D02*
X208565714Y-93432380D01*
X208803809Y-93432380D01*
X208946666Y-93480000D01*
X209041904Y-93575238D01*
X209089523Y-93670476D01*
X209137142Y-93860952D01*
X209137142Y-94003809D01*
X209089523Y-94194285D01*
X209041904Y-94289523D01*
X208946666Y-94384761D01*
X208803809Y-94432380D01*
X208565714Y-94432380D01*
X209518095Y-93527619D02*
X209565714Y-93480000D01*
X209660952Y-93432380D01*
X209899047Y-93432380D01*
X209994285Y-93480000D01*
X210041904Y-93527619D01*
X210089523Y-93622857D01*
X210089523Y-93718095D01*
X210041904Y-93860952D01*
X209470476Y-94432380D01*
X210089523Y-94432380D01*
X222861428Y-21822380D02*
X222528095Y-21346190D01*
X222290000Y-21822380D02*
X222290000Y-20822380D01*
X222670952Y-20822380D01*
X222766190Y-20870000D01*
X222813809Y-20917619D01*
X222861428Y-21012857D01*
X222861428Y-21155714D01*
X222813809Y-21250952D01*
X222766190Y-21298571D01*
X222670952Y-21346190D01*
X222290000Y-21346190D01*
X223290000Y-21298571D02*
X223623333Y-21298571D01*
X223766190Y-21822380D02*
X223290000Y-21822380D01*
X223290000Y-20822380D01*
X223766190Y-20822380D01*
X224147142Y-21774761D02*
X224290000Y-21822380D01*
X224528095Y-21822380D01*
X224623333Y-21774761D01*
X224670952Y-21727142D01*
X224718571Y-21631904D01*
X224718571Y-21536666D01*
X224670952Y-21441428D01*
X224623333Y-21393809D01*
X224528095Y-21346190D01*
X224337619Y-21298571D01*
X224242380Y-21250952D01*
X224194761Y-21203333D01*
X224147142Y-21108095D01*
X224147142Y-21012857D01*
X224194761Y-20917619D01*
X224242380Y-20870000D01*
X224337619Y-20822380D01*
X224575714Y-20822380D01*
X224718571Y-20870000D01*
X225147142Y-21298571D02*
X225480476Y-21298571D01*
X225623333Y-21822380D02*
X225147142Y-21822380D01*
X225147142Y-20822380D01*
X225623333Y-20822380D01*
X225909047Y-20822380D02*
X226480476Y-20822380D01*
X226194761Y-21822380D02*
X226194761Y-20822380D01*
X227337619Y-21822380D02*
X226766190Y-21822380D01*
X227051904Y-21822380D02*
X227051904Y-20822380D01*
X226956666Y-20965238D01*
X226861428Y-21060476D01*
X226766190Y-21108095D01*
X240741904Y-67032380D02*
X240741904Y-66032380D01*
X240980000Y-66032380D01*
X241122857Y-66080000D01*
X241218095Y-66175238D01*
X241265714Y-66270476D01*
X241313333Y-66460952D01*
X241313333Y-66603809D01*
X241265714Y-66794285D01*
X241218095Y-66889523D01*
X241122857Y-66984761D01*
X240980000Y-67032380D01*
X240741904Y-67032380D01*
X241694285Y-66127619D02*
X241741904Y-66080000D01*
X241837142Y-66032380D01*
X242075238Y-66032380D01*
X242170476Y-66080000D01*
X242218095Y-66127619D01*
X242265714Y-66222857D01*
X242265714Y-66318095D01*
X242218095Y-66460952D01*
X241646666Y-67032380D01*
X242265714Y-67032380D01*
X254786190Y-94337142D02*
X254738571Y-94384761D01*
X254595714Y-94432380D01*
X254500476Y-94432380D01*
X254357619Y-94384761D01*
X254262380Y-94289523D01*
X254214761Y-94194285D01*
X254167142Y-94003809D01*
X254167142Y-93860952D01*
X254214761Y-93670476D01*
X254262380Y-93575238D01*
X254357619Y-93480000D01*
X254500476Y-93432380D01*
X254595714Y-93432380D01*
X254738571Y-93480000D01*
X254786190Y-93527619D01*
X255214761Y-94432380D02*
X255214761Y-93432380D01*
X255214761Y-93908571D02*
X255786190Y-93908571D01*
X255786190Y-94432380D02*
X255786190Y-93432380D01*
X256167142Y-93432380D02*
X256786190Y-93432380D01*
X256452857Y-93813333D01*
X256595714Y-93813333D01*
X256690952Y-93860952D01*
X256738571Y-93908571D01*
X256786190Y-94003809D01*
X256786190Y-94241904D01*
X256738571Y-94337142D01*
X256690952Y-94384761D01*
X256595714Y-94432380D01*
X256310000Y-94432380D01*
X256214761Y-94384761D01*
X256167142Y-94337142D01*
X256976666Y-94527619D02*
X257738571Y-94527619D01*
X258310000Y-93908571D02*
X257976666Y-93908571D01*
X257976666Y-94432380D02*
X257976666Y-93432380D01*
X258452857Y-93432380D01*
X258833809Y-94432380D02*
X258833809Y-93432380D01*
X259786190Y-94432380D02*
X259310000Y-94432380D01*
X259310000Y-93432380D01*
X260595714Y-94432380D02*
X260119523Y-94432380D01*
X260119523Y-93432380D01*
X261452857Y-94432380D02*
X260881428Y-94432380D01*
X261167142Y-94432380D02*
X261167142Y-93432380D01*
X261071904Y-93575238D01*
X260976666Y-93670476D01*
X260881428Y-93718095D01*
X224141904Y-67032380D02*
X224141904Y-66032380D01*
X224380000Y-66032380D01*
X224522857Y-66080000D01*
X224618095Y-66175238D01*
X224665714Y-66270476D01*
X224713333Y-66460952D01*
X224713333Y-66603809D01*
X224665714Y-66794285D01*
X224618095Y-66889523D01*
X224522857Y-66984761D01*
X224380000Y-67032380D01*
X224141904Y-67032380D01*
X225665714Y-67032380D02*
X225094285Y-67032380D01*
X225380000Y-67032380D02*
X225380000Y-66032380D01*
X225284761Y-66175238D01*
X225189523Y-66270476D01*
X225094285Y-66318095D01*
X207089523Y-105642380D02*
X206756190Y-105166190D01*
X206518095Y-105642380D02*
X206518095Y-104642380D01*
X206899047Y-104642380D01*
X206994285Y-104690000D01*
X207041904Y-104737619D01*
X207089523Y-104832857D01*
X207089523Y-104975714D01*
X207041904Y-105070952D01*
X206994285Y-105118571D01*
X206899047Y-105166190D01*
X206518095Y-105166190D01*
X207518095Y-105642380D02*
X207518095Y-104642380D01*
X208089523Y-105642380D01*
X208089523Y-104642380D01*
X208565714Y-105642380D02*
X208565714Y-104642380D01*
X208803809Y-104642380D01*
X208946666Y-104690000D01*
X209041904Y-104785238D01*
X209089523Y-104880476D01*
X209137142Y-105070952D01*
X209137142Y-105213809D01*
X209089523Y-105404285D01*
X209041904Y-105499523D01*
X208946666Y-105594761D01*
X208803809Y-105642380D01*
X208565714Y-105642380D01*
X210089523Y-105642380D02*
X209518095Y-105642380D01*
X209803809Y-105642380D02*
X209803809Y-104642380D01*
X209708571Y-104785238D01*
X209613333Y-104880476D01*
X209518095Y-104928095D01*
X238823809Y-117197142D02*
X238776190Y-117244761D01*
X238633333Y-117292380D01*
X238538095Y-117292380D01*
X238395238Y-117244761D01*
X238300000Y-117149523D01*
X238252380Y-117054285D01*
X238204761Y-116863809D01*
X238204761Y-116720952D01*
X238252380Y-116530476D01*
X238300000Y-116435238D01*
X238395238Y-116340000D01*
X238538095Y-116292380D01*
X238633333Y-116292380D01*
X238776190Y-116340000D01*
X238823809Y-116387619D01*
X239252380Y-117292380D02*
X239252380Y-116292380D01*
X239252380Y-116768571D02*
X239823809Y-116768571D01*
X239823809Y-117292380D02*
X239823809Y-116292380D01*
X240252380Y-116387619D02*
X240300000Y-116340000D01*
X240395238Y-116292380D01*
X240633333Y-116292380D01*
X240728571Y-116340000D01*
X240776190Y-116387619D01*
X240823809Y-116482857D01*
X240823809Y-116578095D01*
X240776190Y-116720952D01*
X240204761Y-117292380D01*
X240823809Y-117292380D01*
X241014285Y-117387619D02*
X241776190Y-117387619D01*
X241966666Y-117006666D02*
X242442857Y-117006666D01*
X241871428Y-117292380D02*
X242204761Y-116292380D01*
X242538095Y-117292380D01*
X243442857Y-117197142D02*
X243395238Y-117244761D01*
X243252380Y-117292380D01*
X243157142Y-117292380D01*
X243014285Y-117244761D01*
X242919047Y-117149523D01*
X242871428Y-117054285D01*
X242823809Y-116863809D01*
X242823809Y-116720952D01*
X242871428Y-116530476D01*
X242919047Y-116435238D01*
X243014285Y-116340000D01*
X243157142Y-116292380D01*
X243252380Y-116292380D01*
X243395238Y-116340000D01*
X243442857Y-116387619D01*
X244395238Y-117292380D02*
X243823809Y-117292380D01*
X244109523Y-117292380D02*
X244109523Y-116292380D01*
X244014285Y-116435238D01*
X243919047Y-116530476D01*
X243823809Y-116578095D01*
X207470476Y-64222380D02*
X208137142Y-65222380D01*
X208137142Y-64222380D02*
X207470476Y-65222380D01*
X209041904Y-65222380D02*
X208470476Y-65222380D01*
X208756190Y-65222380D02*
X208756190Y-64222380D01*
X208660952Y-64365238D01*
X208565714Y-64460476D01*
X208470476Y-64508095D01*
X237541428Y-46712380D02*
X237208095Y-46236190D01*
X236970000Y-46712380D02*
X236970000Y-45712380D01*
X237350952Y-45712380D01*
X237446190Y-45760000D01*
X237493809Y-45807619D01*
X237541428Y-45902857D01*
X237541428Y-46045714D01*
X237493809Y-46140952D01*
X237446190Y-46188571D01*
X237350952Y-46236190D01*
X236970000Y-46236190D01*
X237970000Y-46188571D02*
X238303333Y-46188571D01*
X238446190Y-46712380D02*
X237970000Y-46712380D01*
X237970000Y-45712380D01*
X238446190Y-45712380D01*
X238827142Y-46664761D02*
X238970000Y-46712380D01*
X239208095Y-46712380D01*
X239303333Y-46664761D01*
X239350952Y-46617142D01*
X239398571Y-46521904D01*
X239398571Y-46426666D01*
X239350952Y-46331428D01*
X239303333Y-46283809D01*
X239208095Y-46236190D01*
X239017619Y-46188571D01*
X238922380Y-46140952D01*
X238874761Y-46093333D01*
X238827142Y-45998095D01*
X238827142Y-45902857D01*
X238874761Y-45807619D01*
X238922380Y-45760000D01*
X239017619Y-45712380D01*
X239255714Y-45712380D01*
X239398571Y-45760000D01*
X239827142Y-46188571D02*
X240160476Y-46188571D01*
X240303333Y-46712380D02*
X239827142Y-46712380D01*
X239827142Y-45712380D01*
X240303333Y-45712380D01*
X240589047Y-45712380D02*
X241160476Y-45712380D01*
X240874761Y-46712380D02*
X240874761Y-45712380D01*
X241446190Y-45807619D02*
X241493809Y-45760000D01*
X241589047Y-45712380D01*
X241827142Y-45712380D01*
X241922380Y-45760000D01*
X241970000Y-45807619D01*
X242017619Y-45902857D01*
X242017619Y-45998095D01*
X241970000Y-46140952D01*
X241398571Y-46712380D01*
X242017619Y-46712380D01*
X224099523Y-105547142D02*
X224051904Y-105594761D01*
X223909047Y-105642380D01*
X223813809Y-105642380D01*
X223670952Y-105594761D01*
X223575714Y-105499523D01*
X223528095Y-105404285D01*
X223480476Y-105213809D01*
X223480476Y-105070952D01*
X223528095Y-104880476D01*
X223575714Y-104785238D01*
X223670952Y-104690000D01*
X223813809Y-104642380D01*
X223909047Y-104642380D01*
X224051904Y-104690000D01*
X224099523Y-104737619D01*
X224528095Y-105642380D02*
X224528095Y-104642380D01*
X224528095Y-105118571D02*
X225099523Y-105118571D01*
X225099523Y-105642380D02*
X225099523Y-104642380D01*
X226099523Y-105642380D02*
X225528095Y-105642380D01*
X225813809Y-105642380D02*
X225813809Y-104642380D01*
X225718571Y-104785238D01*
X225623333Y-104880476D01*
X225528095Y-104928095D01*
X222694761Y-34647142D02*
X222647142Y-34694761D01*
X222504285Y-34742380D01*
X222409047Y-34742380D01*
X222266190Y-34694761D01*
X222170952Y-34599523D01*
X222123333Y-34504285D01*
X222075714Y-34313809D01*
X222075714Y-34170952D01*
X222123333Y-33980476D01*
X222170952Y-33885238D01*
X222266190Y-33790000D01*
X222409047Y-33742380D01*
X222504285Y-33742380D01*
X222647142Y-33790000D01*
X222694761Y-33837619D01*
X223599523Y-34742380D02*
X223123333Y-34742380D01*
X223123333Y-33742380D01*
X224123333Y-33742380D02*
X224313809Y-33742380D01*
X224409047Y-33790000D01*
X224504285Y-33885238D01*
X224551904Y-34075714D01*
X224551904Y-34409047D01*
X224504285Y-34599523D01*
X224409047Y-34694761D01*
X224313809Y-34742380D01*
X224123333Y-34742380D01*
X224028095Y-34694761D01*
X223932857Y-34599523D01*
X223885238Y-34409047D01*
X223885238Y-34075714D01*
X223932857Y-33885238D01*
X224028095Y-33790000D01*
X224123333Y-33742380D01*
X225551904Y-34647142D02*
X225504285Y-34694761D01*
X225361428Y-34742380D01*
X225266190Y-34742380D01*
X225123333Y-34694761D01*
X225028095Y-34599523D01*
X224980476Y-34504285D01*
X224932857Y-34313809D01*
X224932857Y-34170952D01*
X224980476Y-33980476D01*
X225028095Y-33885238D01*
X225123333Y-33790000D01*
X225266190Y-33742380D01*
X225361428Y-33742380D01*
X225504285Y-33790000D01*
X225551904Y-33837619D01*
X225980476Y-34742380D02*
X225980476Y-33742380D01*
X226551904Y-34742380D02*
X226123333Y-34170952D01*
X226551904Y-33742380D02*
X225980476Y-34313809D01*
X227504285Y-34742380D02*
X226932857Y-34742380D01*
X227218571Y-34742380D02*
X227218571Y-33742380D01*
X227123333Y-33885238D01*
X227028095Y-33980476D01*
X226932857Y-34028095D01*
X257119523Y-105547142D02*
X257071904Y-105594761D01*
X256929047Y-105642380D01*
X256833809Y-105642380D01*
X256690952Y-105594761D01*
X256595714Y-105499523D01*
X256548095Y-105404285D01*
X256500476Y-105213809D01*
X256500476Y-105070952D01*
X256548095Y-104880476D01*
X256595714Y-104785238D01*
X256690952Y-104690000D01*
X256833809Y-104642380D01*
X256929047Y-104642380D01*
X257071904Y-104690000D01*
X257119523Y-104737619D01*
X257548095Y-105642380D02*
X257548095Y-104642380D01*
X257548095Y-105118571D02*
X258119523Y-105118571D01*
X258119523Y-105642380D02*
X258119523Y-104642380D01*
X258500476Y-104642380D02*
X259119523Y-104642380D01*
X258786190Y-105023333D01*
X258929047Y-105023333D01*
X259024285Y-105070952D01*
X259071904Y-105118571D01*
X259119523Y-105213809D01*
X259119523Y-105451904D01*
X259071904Y-105547142D01*
X259024285Y-105594761D01*
X258929047Y-105642380D01*
X258643333Y-105642380D01*
X258548095Y-105594761D01*
X258500476Y-105547142D01*
X221766190Y-94337142D02*
X221718571Y-94384761D01*
X221575714Y-94432380D01*
X221480476Y-94432380D01*
X221337619Y-94384761D01*
X221242380Y-94289523D01*
X221194761Y-94194285D01*
X221147142Y-94003809D01*
X221147142Y-93860952D01*
X221194761Y-93670476D01*
X221242380Y-93575238D01*
X221337619Y-93480000D01*
X221480476Y-93432380D01*
X221575714Y-93432380D01*
X221718571Y-93480000D01*
X221766190Y-93527619D01*
X222194761Y-94432380D02*
X222194761Y-93432380D01*
X222194761Y-93908571D02*
X222766190Y-93908571D01*
X222766190Y-94432380D02*
X222766190Y-93432380D01*
X223766190Y-94432380D02*
X223194761Y-94432380D01*
X223480476Y-94432380D02*
X223480476Y-93432380D01*
X223385238Y-93575238D01*
X223290000Y-93670476D01*
X223194761Y-93718095D01*
X223956666Y-94527619D02*
X224718571Y-94527619D01*
X225290000Y-93908571D02*
X224956666Y-93908571D01*
X224956666Y-94432380D02*
X224956666Y-93432380D01*
X225432857Y-93432380D01*
X225813809Y-94432380D02*
X225813809Y-93432380D01*
X226766190Y-94432380D02*
X226290000Y-94432380D01*
X226290000Y-93432380D01*
X227575714Y-94432380D02*
X227099523Y-94432380D01*
X227099523Y-93432380D01*
X228432857Y-94432380D02*
X227861428Y-94432380D01*
X228147142Y-94432380D02*
X228147142Y-93432380D01*
X228051904Y-93575238D01*
X227956666Y-93670476D01*
X227861428Y-93718095D01*
X255333809Y-116977142D02*
X255286190Y-117024761D01*
X255143333Y-117072380D01*
X255048095Y-117072380D01*
X254905238Y-117024761D01*
X254810000Y-116929523D01*
X254762380Y-116834285D01*
X254714761Y-116643809D01*
X254714761Y-116500952D01*
X254762380Y-116310476D01*
X254810000Y-116215238D01*
X254905238Y-116120000D01*
X255048095Y-116072380D01*
X255143333Y-116072380D01*
X255286190Y-116120000D01*
X255333809Y-116167619D01*
X255762380Y-117072380D02*
X255762380Y-116072380D01*
X255762380Y-116548571D02*
X256333809Y-116548571D01*
X256333809Y-117072380D02*
X256333809Y-116072380D01*
X256714761Y-116072380D02*
X257333809Y-116072380D01*
X257000476Y-116453333D01*
X257143333Y-116453333D01*
X257238571Y-116500952D01*
X257286190Y-116548571D01*
X257333809Y-116643809D01*
X257333809Y-116881904D01*
X257286190Y-116977142D01*
X257238571Y-117024761D01*
X257143333Y-117072380D01*
X256857619Y-117072380D01*
X256762380Y-117024761D01*
X256714761Y-116977142D01*
X257524285Y-117167619D02*
X258286190Y-117167619D01*
X258476666Y-116786666D02*
X258952857Y-116786666D01*
X258381428Y-117072380D02*
X258714761Y-116072380D01*
X259048095Y-117072380D01*
X259952857Y-116977142D02*
X259905238Y-117024761D01*
X259762380Y-117072380D01*
X259667142Y-117072380D01*
X259524285Y-117024761D01*
X259429047Y-116929523D01*
X259381428Y-116834285D01*
X259333809Y-116643809D01*
X259333809Y-116500952D01*
X259381428Y-116310476D01*
X259429047Y-116215238D01*
X259524285Y-116120000D01*
X259667142Y-116072380D01*
X259762380Y-116072380D01*
X259905238Y-116120000D01*
X259952857Y-116167619D01*
X260905238Y-117072380D02*
X260333809Y-117072380D01*
X260619523Y-117072380D02*
X260619523Y-116072380D01*
X260524285Y-116215238D01*
X260429047Y-116310476D01*
X260333809Y-116358095D01*
X241879523Y-105767142D02*
X241831904Y-105814761D01*
X241689047Y-105862380D01*
X241593809Y-105862380D01*
X241450952Y-105814761D01*
X241355714Y-105719523D01*
X241308095Y-105624285D01*
X241260476Y-105433809D01*
X241260476Y-105290952D01*
X241308095Y-105100476D01*
X241355714Y-105005238D01*
X241450952Y-104910000D01*
X241593809Y-104862380D01*
X241689047Y-104862380D01*
X241831904Y-104910000D01*
X241879523Y-104957619D01*
X242308095Y-105862380D02*
X242308095Y-104862380D01*
X242308095Y-105338571D02*
X242879523Y-105338571D01*
X242879523Y-105862380D02*
X242879523Y-104862380D01*
X243308095Y-104957619D02*
X243355714Y-104910000D01*
X243450952Y-104862380D01*
X243689047Y-104862380D01*
X243784285Y-104910000D01*
X243831904Y-104957619D01*
X243879523Y-105052857D01*
X243879523Y-105148095D01*
X243831904Y-105290952D01*
X243260476Y-105862380D01*
X243879523Y-105862380D01*
X256941904Y-67342380D02*
X256941904Y-66342380D01*
X257180000Y-66342380D01*
X257322857Y-66390000D01*
X257418095Y-66485238D01*
X257465714Y-66580476D01*
X257513333Y-66770952D01*
X257513333Y-66913809D01*
X257465714Y-67104285D01*
X257418095Y-67199523D01*
X257322857Y-67294761D01*
X257180000Y-67342380D01*
X256941904Y-67342380D01*
X257846666Y-66342380D02*
X258465714Y-66342380D01*
X258132380Y-66723333D01*
X258275238Y-66723333D01*
X258370476Y-66770952D01*
X258418095Y-66818571D01*
X258465714Y-66913809D01*
X258465714Y-67151904D01*
X258418095Y-67247142D01*
X258370476Y-67294761D01*
X258275238Y-67342380D01*
X257989523Y-67342380D01*
X257894285Y-67294761D01*
X257846666Y-67247142D01*
X222313809Y-116977142D02*
X222266190Y-117024761D01*
X222123333Y-117072380D01*
X222028095Y-117072380D01*
X221885238Y-117024761D01*
X221790000Y-116929523D01*
X221742380Y-116834285D01*
X221694761Y-116643809D01*
X221694761Y-116500952D01*
X221742380Y-116310476D01*
X221790000Y-116215238D01*
X221885238Y-116120000D01*
X222028095Y-116072380D01*
X222123333Y-116072380D01*
X222266190Y-116120000D01*
X222313809Y-116167619D01*
X222742380Y-117072380D02*
X222742380Y-116072380D01*
X222742380Y-116548571D02*
X223313809Y-116548571D01*
X223313809Y-117072380D02*
X223313809Y-116072380D01*
X224313809Y-117072380D02*
X223742380Y-117072380D01*
X224028095Y-117072380D02*
X224028095Y-116072380D01*
X223932857Y-116215238D01*
X223837619Y-116310476D01*
X223742380Y-116358095D01*
X224504285Y-117167619D02*
X225266190Y-117167619D01*
X225456666Y-116786666D02*
X225932857Y-116786666D01*
X225361428Y-117072380D02*
X225694761Y-116072380D01*
X226028095Y-117072380D01*
X226932857Y-116977142D02*
X226885238Y-117024761D01*
X226742380Y-117072380D01*
X226647142Y-117072380D01*
X226504285Y-117024761D01*
X226409047Y-116929523D01*
X226361428Y-116834285D01*
X226313809Y-116643809D01*
X226313809Y-116500952D01*
X226361428Y-116310476D01*
X226409047Y-116215238D01*
X226504285Y-116120000D01*
X226647142Y-116072380D01*
X226742380Y-116072380D01*
X226885238Y-116120000D01*
X226932857Y-116167619D01*
X227885238Y-117072380D02*
X227313809Y-117072380D01*
X227599523Y-117072380D02*
X227599523Y-116072380D01*
X227504285Y-116215238D01*
X227409047Y-116310476D01*
X227313809Y-116358095D01*
X238276190Y-94337142D02*
X238228571Y-94384761D01*
X238085714Y-94432380D01*
X237990476Y-94432380D01*
X237847619Y-94384761D01*
X237752380Y-94289523D01*
X237704761Y-94194285D01*
X237657142Y-94003809D01*
X237657142Y-93860952D01*
X237704761Y-93670476D01*
X237752380Y-93575238D01*
X237847619Y-93480000D01*
X237990476Y-93432380D01*
X238085714Y-93432380D01*
X238228571Y-93480000D01*
X238276190Y-93527619D01*
X238704761Y-94432380D02*
X238704761Y-93432380D01*
X238704761Y-93908571D02*
X239276190Y-93908571D01*
X239276190Y-94432380D02*
X239276190Y-93432380D01*
X239704761Y-93527619D02*
X239752380Y-93480000D01*
X239847619Y-93432380D01*
X240085714Y-93432380D01*
X240180952Y-93480000D01*
X240228571Y-93527619D01*
X240276190Y-93622857D01*
X240276190Y-93718095D01*
X240228571Y-93860952D01*
X239657142Y-94432380D01*
X240276190Y-94432380D01*
X240466666Y-94527619D02*
X241228571Y-94527619D01*
X241800000Y-93908571D02*
X241466666Y-93908571D01*
X241466666Y-94432380D02*
X241466666Y-93432380D01*
X241942857Y-93432380D01*
X242323809Y-94432380D02*
X242323809Y-93432380D01*
X243276190Y-94432380D02*
X242800000Y-94432380D01*
X242800000Y-93432380D01*
X244085714Y-94432380D02*
X243609523Y-94432380D01*
X243609523Y-93432380D01*
X244942857Y-94432380D02*
X244371428Y-94432380D01*
X244657142Y-94432380D02*
X244657142Y-93432380D01*
X244561904Y-93575238D01*
X244466666Y-93670476D01*
X244371428Y-93718095D01*
X206533809Y-36806190D02*
X206533809Y-37282380D01*
X206200476Y-36282380D02*
X206533809Y-36806190D01*
X206867142Y-36282380D01*
X207724285Y-37282380D02*
X207152857Y-37282380D01*
X207438571Y-37282380D02*
X207438571Y-36282380D01*
X207343333Y-36425238D01*
X207248095Y-36520476D01*
X207152857Y-36568095D01*
X207208571Y-117197142D02*
X207160952Y-117244761D01*
X207018095Y-117292380D01*
X206922857Y-117292380D01*
X206780000Y-117244761D01*
X206684761Y-117149523D01*
X206637142Y-117054285D01*
X206589523Y-116863809D01*
X206589523Y-116720952D01*
X206637142Y-116530476D01*
X206684761Y-116435238D01*
X206780000Y-116340000D01*
X206922857Y-116292380D01*
X207018095Y-116292380D01*
X207160952Y-116340000D01*
X207208571Y-116387619D01*
X208113333Y-117292380D02*
X207637142Y-117292380D01*
X207637142Y-116292380D01*
X208446666Y-117292380D02*
X208446666Y-116292380D01*
X209018095Y-117292380D02*
X208589523Y-116720952D01*
X209018095Y-116292380D02*
X208446666Y-116863809D01*
X209970476Y-117292380D02*
X209399047Y-117292380D01*
X209684761Y-117292380D02*
X209684761Y-116292380D01*
X209589523Y-116435238D01*
X209494285Y-116530476D01*
X209399047Y-116578095D01*
X235092380Y-30397619D02*
X234092380Y-30397619D01*
X234092380Y-30016666D01*
X234140000Y-29921428D01*
X234187619Y-29873809D01*
X234282857Y-29826190D01*
X234425714Y-29826190D01*
X234520952Y-29873809D01*
X234568571Y-29921428D01*
X234616190Y-30016666D01*
X234616190Y-30397619D01*
X235187619Y-29635714D02*
X235187619Y-28873809D01*
X234092380Y-28778571D02*
X234092380Y-28207142D01*
X235092380Y-28492857D02*
X234092380Y-28492857D01*
X234568571Y-27873809D02*
X234568571Y-27540476D01*
X235092380Y-27397619D02*
X235092380Y-27873809D01*
X234092380Y-27873809D01*
X234092380Y-27397619D01*
X235092380Y-26969047D02*
X234092380Y-26969047D01*
X234806666Y-26635714D01*
X234092380Y-26302380D01*
X235092380Y-26302380D01*
X235092380Y-25826190D02*
X234092380Y-25826190D01*
X234092380Y-25445238D01*
X234140000Y-25350000D01*
X234187619Y-25302380D01*
X234282857Y-25254761D01*
X234425714Y-25254761D01*
X234520952Y-25302380D01*
X234568571Y-25350000D01*
X234616190Y-25445238D01*
X234616190Y-25826190D01*
X234092380Y-24635714D02*
X234092380Y-24445238D01*
X234140000Y-24350000D01*
X234235238Y-24254761D01*
X234425714Y-24207142D01*
X234759047Y-24207142D01*
X234949523Y-24254761D01*
X235044761Y-24350000D01*
X235092380Y-24445238D01*
X235092380Y-24635714D01*
X235044761Y-24730952D01*
X234949523Y-24826190D01*
X234759047Y-24873809D01*
X234425714Y-24873809D01*
X234235238Y-24826190D01*
X234140000Y-24730952D01*
X234092380Y-24635714D01*
X235092380Y-23254761D02*
X235092380Y-23826190D01*
X235092380Y-23540476D02*
X234092380Y-23540476D01*
X234235238Y-23635714D01*
X234330476Y-23730952D01*
X234378095Y-23826190D01*
X217712380Y-86142857D02*
X216712380Y-86142857D01*
X216712380Y-85761904D01*
X216760000Y-85666666D01*
X216807619Y-85619047D01*
X216902857Y-85571428D01*
X217045714Y-85571428D01*
X217140952Y-85619047D01*
X217188571Y-85666666D01*
X217236190Y-85761904D01*
X217236190Y-86142857D01*
X217807619Y-85380952D02*
X217807619Y-84619047D01*
X217617142Y-83809523D02*
X217664761Y-83857142D01*
X217712380Y-84000000D01*
X217712380Y-84095238D01*
X217664761Y-84238095D01*
X217569523Y-84333333D01*
X217474285Y-84380952D01*
X217283809Y-84428571D01*
X217140952Y-84428571D01*
X216950476Y-84380952D01*
X216855238Y-84333333D01*
X216760000Y-84238095D01*
X216712380Y-84095238D01*
X216712380Y-84000000D01*
X216760000Y-83857142D01*
X216807619Y-83809523D01*
X217712380Y-83380952D02*
X216712380Y-83380952D01*
X217188571Y-83380952D02*
X217188571Y-82809523D01*
X217712380Y-82809523D02*
X216712380Y-82809523D01*
X217712380Y-81809523D02*
X217712380Y-82380952D01*
X217712380Y-82095238D02*
X216712380Y-82095238D01*
X216855238Y-82190476D01*
X216950476Y-82285714D01*
X216998095Y-82380952D01*
X234712380Y-86142857D02*
X233712380Y-86142857D01*
X233712380Y-85761904D01*
X233760000Y-85666666D01*
X233807619Y-85619047D01*
X233902857Y-85571428D01*
X234045714Y-85571428D01*
X234140952Y-85619047D01*
X234188571Y-85666666D01*
X234236190Y-85761904D01*
X234236190Y-86142857D01*
X234807619Y-85380952D02*
X234807619Y-84619047D01*
X234617142Y-83809523D02*
X234664761Y-83857142D01*
X234712380Y-84000000D01*
X234712380Y-84095238D01*
X234664761Y-84238095D01*
X234569523Y-84333333D01*
X234474285Y-84380952D01*
X234283809Y-84428571D01*
X234140952Y-84428571D01*
X233950476Y-84380952D01*
X233855238Y-84333333D01*
X233760000Y-84238095D01*
X233712380Y-84095238D01*
X233712380Y-84000000D01*
X233760000Y-83857142D01*
X233807619Y-83809523D01*
X234712380Y-83380952D02*
X233712380Y-83380952D01*
X234188571Y-83380952D02*
X234188571Y-82809523D01*
X234712380Y-82809523D02*
X233712380Y-82809523D01*
X233807619Y-82380952D02*
X233760000Y-82333333D01*
X233712380Y-82238095D01*
X233712380Y-82000000D01*
X233760000Y-81904761D01*
X233807619Y-81857142D01*
X233902857Y-81809523D01*
X233998095Y-81809523D01*
X234140952Y-81857142D01*
X234712380Y-82428571D01*
X234712380Y-81809523D01*
X250712380Y-86142857D02*
X249712380Y-86142857D01*
X249712380Y-85761904D01*
X249760000Y-85666666D01*
X249807619Y-85619047D01*
X249902857Y-85571428D01*
X250045714Y-85571428D01*
X250140952Y-85619047D01*
X250188571Y-85666666D01*
X250236190Y-85761904D01*
X250236190Y-86142857D01*
X250807619Y-85380952D02*
X250807619Y-84619047D01*
X250617142Y-83809523D02*
X250664761Y-83857142D01*
X250712380Y-84000000D01*
X250712380Y-84095238D01*
X250664761Y-84238095D01*
X250569523Y-84333333D01*
X250474285Y-84380952D01*
X250283809Y-84428571D01*
X250140952Y-84428571D01*
X249950476Y-84380952D01*
X249855238Y-84333333D01*
X249760000Y-84238095D01*
X249712380Y-84095238D01*
X249712380Y-84000000D01*
X249760000Y-83857142D01*
X249807619Y-83809523D01*
X250712380Y-83380952D02*
X249712380Y-83380952D01*
X250188571Y-83380952D02*
X250188571Y-82809523D01*
X250712380Y-82809523D02*
X249712380Y-82809523D01*
X249712380Y-82428571D02*
X249712380Y-81809523D01*
X250093333Y-82142857D01*
X250093333Y-82000000D01*
X250140952Y-81904761D01*
X250188571Y-81857142D01*
X250283809Y-81809523D01*
X250521904Y-81809523D01*
X250617142Y-81857142D01*
X250664761Y-81904761D01*
X250712380Y-82000000D01*
X250712380Y-82285714D01*
X250664761Y-82380952D01*
X250617142Y-82428571D01*
X200362380Y-86967857D02*
X199362380Y-86967857D01*
X199362380Y-86586904D01*
X199410000Y-86491666D01*
X199457619Y-86444047D01*
X199552857Y-86396428D01*
X199695714Y-86396428D01*
X199790952Y-86444047D01*
X199838571Y-86491666D01*
X199886190Y-86586904D01*
X199886190Y-86967857D01*
X200457619Y-86205952D02*
X200457619Y-85444047D01*
X200362380Y-84634523D02*
X199886190Y-84967857D01*
X200362380Y-85205952D02*
X199362380Y-85205952D01*
X199362380Y-84825000D01*
X199410000Y-84729761D01*
X199457619Y-84682142D01*
X199552857Y-84634523D01*
X199695714Y-84634523D01*
X199790952Y-84682142D01*
X199838571Y-84729761D01*
X199886190Y-84825000D01*
X199886190Y-85205952D01*
X200362380Y-84205952D02*
X199362380Y-84205952D01*
X200362380Y-83634523D01*
X199362380Y-83634523D01*
X200362380Y-83158333D02*
X199362380Y-83158333D01*
X199362380Y-82920238D01*
X199410000Y-82777380D01*
X199505238Y-82682142D01*
X199600476Y-82634523D01*
X199790952Y-82586904D01*
X199933809Y-82586904D01*
X200124285Y-82634523D01*
X200219523Y-82682142D01*
X200314761Y-82777380D01*
X200362380Y-82920238D01*
X200362380Y-83158333D01*
X200362380Y-81634523D02*
X200362380Y-82205952D01*
X200362380Y-81920238D02*
X199362380Y-81920238D01*
X199505238Y-82015476D01*
X199600476Y-82110714D01*
X199648095Y-82205952D01*
X200712380Y-28517619D02*
X199712380Y-28517619D01*
X199712380Y-28136666D01*
X199760000Y-28041428D01*
X199807619Y-27993809D01*
X199902857Y-27946190D01*
X200045714Y-27946190D01*
X200140952Y-27993809D01*
X200188571Y-28041428D01*
X200236190Y-28136666D01*
X200236190Y-28517619D01*
X200807619Y-27755714D02*
X200807619Y-26993809D01*
X200236190Y-26565238D02*
X200712380Y-26565238D01*
X199712380Y-26898571D02*
X200236190Y-26565238D01*
X199712380Y-26231904D01*
X200712380Y-25374761D02*
X200712380Y-25946190D01*
X200712380Y-25660476D02*
X199712380Y-25660476D01*
X199855238Y-25755714D01*
X199950476Y-25850952D01*
X199998095Y-25946190D01*
X200712380Y-55235238D02*
X199712380Y-55235238D01*
X199712380Y-54854285D01*
X199760000Y-54759047D01*
X199807619Y-54711428D01*
X199902857Y-54663809D01*
X200045714Y-54663809D01*
X200140952Y-54711428D01*
X200188571Y-54759047D01*
X200236190Y-54854285D01*
X200236190Y-55235238D01*
X200807619Y-54473333D02*
X200807619Y-53711428D01*
X199712380Y-53568571D02*
X200712380Y-52901904D01*
X199712380Y-52901904D02*
X200712380Y-53568571D01*
X200712380Y-51997142D02*
X200712380Y-52568571D01*
X200712380Y-52282857D02*
X199712380Y-52282857D01*
X199855238Y-52378095D01*
X199950476Y-52473333D01*
X199998095Y-52568571D01*
M02*
