M48
; DRILL file {KiCad (5.1.6)-1} date 08/06/21 14:07:57
; FORMAT={-:-/ absolute / inch / decimal}
; #@! TF.CreationDate,2021-08-06T14:07:57+02:00
; #@! TF.GenerationSoftware,Kicad,Pcbnew,(5.1.6)-1
; #@! TF.FileFunction,Plated,1,2,PTH
FMAT,2
INCH
T1C0.0354
T2C0.0394
T3C0.0433
T4C0.0480
T5C0.0559
T6C0.0563
%
G90
G05
T1
X8.8035Y-2.7378
X8.9035Y-2.7378
X9.3Y-1.55
X9.4Y-1.55
X10.0949Y-2.75
X10.1949Y-2.75
X9.4571Y-2.7378
X9.5571Y-2.7378
T2
X9.4406Y-1.2953
X9.539Y-1.2953
X9.6374Y-1.2953
X8.087Y-1.3
X8.1854Y-1.3
X8.2839Y-1.3
X7.85Y-3.95
X7.85Y-4.05
X7.85Y-4.15
X7.85Y-4.25
X7.85Y-4.35
X7.85Y-4.45
X7.85Y-4.55
X7.85Y-4.65
X7.85Y-4.75
X7.85Y-4.85
X8.087Y-3.5453
X8.1854Y-3.5453
X8.2839Y-3.5453
X10.3Y-0.848
X10.3Y-0.948
X10.3Y-1.048
X10.3Y-1.148
X10.3Y-1.248
X10.3Y-1.348
X10.3Y-1.448
X10.3Y-1.548
X10.3Y-1.648
X10.3Y-1.748
X8.087Y-2.35
X8.1854Y-2.35
X8.2839Y-2.35
X10.0555Y-3.5453
X10.1539Y-3.5453
X10.2524Y-3.5453
X9.4256Y-3.5453
X9.524Y-3.5453
X9.6224Y-3.5453
X8.7563Y-3.5453
X8.8547Y-3.5453
X8.9531Y-3.5453
X8.15Y-2.95
X8.25Y-2.95
X8.35Y-2.95
X8.45Y-2.95
X8.55Y-2.95
X8.65Y-2.95
X8.75Y-2.95
X8.85Y-2.95
X8.95Y-2.95
X9.05Y-2.95
X9.15Y-2.95
X9.25Y-2.95
T3
X9.3Y-1.9
X9.3Y-2.0772
X9.5559Y-1.9
X9.5559Y-2.0772
T4
X8.4413Y-2.65
X10.4098Y-4.75
X8.4413Y-4.3
X9.1106Y-4.75
X9.7799Y-4.75
X10.4098Y-4.3
X9.7799Y-3.85
X9.7799Y-4.3
X8.4413Y-3.85
X9.1106Y-3.85
X9.1106Y-4.3
X9.1106Y-1.5
X8.4413Y-1.6
X9.1106Y-1.0
X10.4098Y-3.85
X8.4413Y-4.75
T5
X9.6579Y-4.75
X10.2878Y-4.3
X9.6579Y-3.85
X9.6579Y-4.3
X8.3193Y-3.85
X8.9886Y-3.85
X8.9886Y-4.3
X8.9886Y-1.5
X8.3193Y-1.6
X8.9886Y-1.0
X10.2878Y-3.85
X8.3193Y-4.75
X8.3193Y-2.65
X10.2878Y-4.75
X8.3193Y-4.3
X8.9886Y-4.75
T6
X9.3311Y-4.75
X9.961Y-4.3
X9.3311Y-3.85
X9.3311Y-4.3
X7.9925Y-3.85
X8.6618Y-3.85
X8.6618Y-4.3
X8.6618Y-1.5
X7.9925Y-1.6
X8.6618Y-1.0
X9.961Y-3.85
X7.9925Y-4.75
X7.9925Y-2.65
X9.961Y-4.75
X7.9925Y-4.3
X8.6618Y-4.75
T0
M30
